<svg width="100" height="100" viewBox="0 0 100 100" fill="none" xmlns="http://www.w3.org/2000/svg">
<path d="M49.5834 0.00149953C22.9864 0.213949 0.0327098 21.8348 3.54197e-05 49.9762C-0.0326389 77.7418 22.5453 100 49.9918 100C77.863 100 100.049 77.2352 99.9999 50.0089C100.016 22.178 77.0952 -0.21095 49.5834 0.00149953ZM50.0081 99.0521C23.0191 99.0521 1.20899 77.1208 0.963929 50.4665C0.702534 23.2893 22.8721 0.753246 50.3676 0.949353C77.0298 1.14546 98.8563 22.8153 99.0524 49.6167C99.2484 77.0064 76.9645 99.0685 50.0081 99.0521Z" fill="#141517"/>
<path d="M93.1546 50.2214C93.171 26.6394 73.8931 7.35553 50.3512 7.33919C27.0544 7.32285 7.56415 26.2636 7.4988 50.1233C7.4988 73.7379 26.7277 92.9728 50.3349 92.9728C74.0401 92.9728 93.122 73.5745 93.1546 50.2214ZM50.7923 92.5969C27.2505 92.8421 7.89089 73.7543 7.89089 50.156C7.89089 26.6558 27.1034 7.51895 50.6943 7.71506C73.9748 7.91117 92.7789 26.9663 92.7789 50.1887C92.7462 73.4111 73.9258 92.3355 50.7923 92.5969Z" fill="#151618"/>
<path d="M80.7 49.8336C80.6836 32.5858 66.6316 19.0163 49.8835 19C32.9721 19 19.1815 32.6839 19.0017 49.5394C18.822 66.5584 32.5799 80.6836 49.8182 80.7C66.8113 80.7163 80.7163 66.9507 80.7 49.8336ZM49.8672 80.1278C33.0538 80.1278 19.5573 66.4439 19.5736 49.8009C19.59 33.1253 33.1518 19.5395 49.8835 19.5559C66.5662 19.5722 80.1281 33.1416 80.1444 49.85C80.1118 66.493 66.6153 80.1278 49.8672 80.1278Z" fill="#141517"/>
</svg>
