<svg width="47" height="28" viewBox="0 0 47 28" fill="none" xmlns="http://www.w3.org/2000/svg">
<path d="M45.4589 5.97163C45.4589 5.64479 45.3935 5.28525 45.8019 5.08915C45.998 4.99109 46.1124 4.77864 46.2757 4.58254C45.8673 4.43546 45.4425 4.35374 45.1158 4.0269C44.8544 3.78176 44.5113 3.66737 44.1519 3.61834C43.5964 3.52029 43.0573 3.602 42.5345 3.74908C42.0607 3.87982 41.587 3.89616 41.1622 3.68371C40.2963 3.24247 39.3978 3.24247 38.4829 3.42223C38.1561 3.4876 37.8131 3.53663 37.5843 3.83079C37.4863 3.94519 37.3556 3.92885 37.2249 3.92885C36.4898 3.86348 35.8199 4.09227 35.1664 4.40277C34.758 4.59888 34.4313 4.81133 34.3986 5.33428C34.3823 5.53039 34.3006 5.87358 34.0065 5.88992C33.4674 5.9226 32.9282 6.1514 32.3728 5.84089C32.0624 5.66113 31.703 5.6121 31.3599 5.4977C30.7717 5.3016 30.2326 5.57942 30.0366 6.1514C29.9712 6.36385 29.8732 6.4619 29.6281 6.31482C29.2687 6.10237 28.8766 5.97163 28.5335 5.75918C27.8964 5.38331 27.2102 5.26891 26.4914 5.38331C26.1973 5.43234 25.8216 5.48136 25.6255 5.26891C25.3641 4.97475 25.1027 4.95841 24.776 5.00744C24.7106 5.02378 24.5963 5.02378 24.5636 4.99109C24.2859 4.74596 23.9265 4.69693 23.5997 4.56619C23.4037 4.48448 23.3873 4.35374 23.469 4.15764C23.6977 3.602 23.6814 3.56932 23.1096 3.55297C22.9626 3.55297 22.8155 3.55297 22.6522 3.55297C22.5215 3.55297 22.3908 3.56931 22.3418 3.71639C22.2927 3.87982 22.3254 4.01056 22.4888 4.09227C22.5541 4.12495 22.6031 4.19032 22.6522 4.23935C22.8645 4.48448 22.8155 4.64791 22.5051 4.69693C22.2601 4.74596 22.0313 4.74596 21.7863 4.71328C21.6719 4.69693 21.6393 4.95841 21.4595 4.84401C21.3125 4.74596 21.3452 4.58254 21.3615 4.43546C21.3615 4.22301 21.2308 4.12495 21.0511 4.10861C20.8877 4.09227 20.708 4.0269 20.561 4.15764C20.3976 4.30472 20.1689 4.28838 20.0382 4.20666C19.7768 4.0269 19.4991 4.09227 19.1887 4.07593C19.1887 3.99422 19.1723 3.94519 19.1723 3.9125C19.352 3.34052 19.2704 3.19344 18.6822 3.1771C18.5025 3.1771 18.3555 3.12807 18.2411 2.98099C18.0287 2.71952 17.8164 2.78489 17.6203 2.99734C17.4896 3.14442 17.2936 3.32418 17.1629 3.27515C16.7708 3.12807 16.4277 3.40589 16.0846 3.37321C15.4965 3.34052 15.1861 3.96153 14.6306 3.9125C14.6143 3.9125 14.5816 3.96153 14.5816 3.99421C14.5489 4.37009 14.2385 4.05958 14.1078 4.19032C13.9771 3.97787 13.7647 4.05958 13.5687 4.04324C13.1112 3.99421 13.1439 3.96153 12.8499 4.30472C12.6865 4.48448 12.7028 4.77864 12.5231 4.86036C12.3107 4.97475 12.082 4.71328 11.8369 4.71328C11.8206 4.71328 11.8043 4.69693 11.7879 4.69693C11.6409 4.64791 11.5919 4.68059 11.6082 4.84401C11.6246 4.92572 11.5429 4.97475 11.4612 4.97475C11.1671 4.97475 10.8404 5.05646 10.579 4.94207C10.3012 4.84401 10.1052 4.54985 9.92549 5.02378C9.92549 5.04012 9.86015 5.02378 9.82747 5.02378C9.71311 4.99109 9.58241 4.89304 9.45172 4.97475C9.35369 5.05646 9.45172 5.23623 9.27201 5.3016C8.71654 4.81133 7.96503 4.69693 7.32788 4.3374C7.18085 4.25569 7.00114 4.25569 6.83777 4.30472C6.34765 4.41911 5.85754 4.54985 5.38376 4.7623C5.28574 4.81133 5.1387 4.84401 5.1387 4.95841C5.12236 5.48136 4.77928 5.71016 4.38719 5.93895C3.75004 6.29848 3.70103 6.7724 4.20748 7.34439C4.35452 7.50781 4.38719 7.80197 4.22382 7.86734C4.02777 7.93271 3.94608 8.11247 3.76638 8.19418C3.61934 8.25955 3.57033 8.22687 3.47231 8.09613C3.1619 7.70391 3.09655 7.21365 2.86783 6.80509C2.70446 6.83777 2.57376 6.87046 2.42673 6.90314C2.27969 6.93583 2.16533 7.03388 2.18167 7.16462C2.19801 7.45878 2.03464 7.63854 1.83859 7.81831C1.64255 7.99808 1.70789 8.39029 1.90394 8.43932C2.26336 8.50469 2.47574 8.68445 2.50842 9.06032C2.52475 9.20741 2.63911 9.22375 2.75347 9.24009C2.86783 9.25643 2.96586 9.35449 2.93318 9.48522C2.90051 9.64865 2.78615 9.68133 2.62278 9.64865C2.39405 9.59962 2.18167 9.59962 1.95295 9.64865C1.83859 9.66499 1.67522 9.7467 1.7569 9.8611C1.95295 10.1226 1.74057 10.4004 1.80592 10.6455C1.83859 10.7436 1.78958 10.8907 1.90394 10.956C2.16533 11.0868 2.44307 11.0868 2.7208 11.0704C2.93318 11.0541 2.99853 10.907 3.11289 10.7272C3.32527 10.3677 3.57033 10.0082 4.07678 10.0409C4.19114 10.0409 4.3055 9.95915 4.46888 9.89378C4.53422 10.1879 4.76294 10.3023 4.99166 10.4331C5.08969 10.4984 5.30207 10.6619 4.95899 10.7109C4.84463 10.7272 4.81196 10.8253 4.81196 10.9233C4.81196 11.0704 4.94265 11.0868 5.02434 11.1358C5.17137 11.2012 5.28574 11.1358 5.35108 11.0051C5.44911 10.858 5.53079 10.6946 5.62882 10.5148C5.82486 10.5802 5.89021 10.7436 5.93922 10.907C6.02091 11.1521 6.21695 11.2992 6.38033 11.479C6.46201 11.5607 6.59271 11.5444 6.6744 11.4463C6.72341 11.3809 6.75608 11.2992 6.6744 11.2502C6.31498 11.0704 6.62539 10.8416 6.59271 10.6292C6.80509 10.7926 6.77242 11.0704 6.91945 11.2665C6.96846 11.2665 7.01748 11.2665 7.08282 11.2665C7.58928 11.2829 7.88335 11.5444 7.88335 12.051C7.88335 12.4105 7.99771 12.6883 8.16108 12.9988C8.43881 13.5218 8.8309 13.9957 8.86358 14.633C8.86358 14.7801 9.01061 14.8618 9.15765 14.8128C9.7948 14.633 10.4319 14.4696 10.9547 14.0611C11.2651 13.8159 11.4449 13.5218 11.2325 13.1132C11.8043 13.0805 12.3761 12.9825 12.6538 13.6362C12.6701 13.6852 12.7355 13.7342 12.7682 13.7506C13.0296 13.7669 13.0132 13.963 13.0622 14.1428C13.2419 14.6821 13.2093 15.3521 13.8791 15.6299C13.9118 15.6463 13.9281 15.6953 13.9281 15.728C13.9771 15.8751 14.0425 16.0385 14.2385 15.9568C14.3855 15.8751 14.3529 15.6953 14.3365 15.5482C14.3202 15.4665 14.2712 15.3848 14.2385 15.2867C14.1078 14.9109 14.2058 14.584 14.5162 14.3552C14.8593 14.1101 15.2024 13.865 15.6272 13.7342C15.7252 13.963 16.0356 14.0937 16.0519 14.4206C16.0519 14.5186 16.1336 14.5677 16.248 14.584C16.5747 14.6167 16.5747 14.8455 16.5257 15.0906C16.4604 15.3848 16.444 15.6626 16.6564 15.9241C16.4604 15.9404 16.248 15.8097 16.15 16.0058C16.0683 16.1692 16.248 16.2673 16.3297 16.398C16.5747 16.7575 16.8198 17.1171 17.0322 17.4766C17.2936 17.9179 17.6693 18.1466 18.1758 18.163C18.7312 18.1793 19.254 18.3918 19.8095 18.4408C20.2179 18.4898 20.3486 18.4571 20.4793 17.9996C20.0219 17.9505 19.5481 17.9342 19.0907 17.8525C18.6005 17.7871 18.1104 17.7871 17.6693 17.6073C17.653 17.3786 17.9307 17.3459 17.8817 17.1334C17.8164 17.1171 17.751 17.0844 17.6857 17.0681C17.5059 17.0027 17.3752 16.9863 17.3916 16.6758C17.4079 16.3817 17.3753 15.9731 17.0322 15.728C16.8851 15.6136 16.6891 15.3848 16.9178 15.2214C17.0812 15.0906 17.1792 15.3685 17.2936 15.4665C17.3262 15.4828 17.3426 15.5319 17.3589 15.5646C17.4406 15.7443 17.555 15.7443 17.7183 15.6463C18.3391 15.2704 18.3882 15.0089 17.9471 14.4533C17.9144 14.4043 17.8654 14.3716 17.849 14.3225C17.8 14.2408 17.7347 14.1428 17.849 14.0774C17.9961 13.9957 18.0451 14.0938 18.0451 14.2408C18.0451 14.3389 18.0778 14.4369 18.1758 14.4696C18.2738 14.5023 18.3718 14.4206 18.3882 14.3225C18.4372 14.0774 18.6169 14.012 18.8129 13.9467C19.156 13.8159 19.4664 13.6525 19.7115 13.3747C19.7441 13.342 19.7768 13.342 19.8258 13.391C19.8585 13.4727 19.7932 13.6852 20.0219 13.6852C20.1689 13.5381 20.1689 13.342 20.2506 13.1786C20.2833 13.0969 20.2343 13.0152 20.1526 13.0478C19.9565 13.1296 19.9075 13.0642 19.9729 12.8844C20.0545 12.6393 20.0219 12.4105 19.9075 12.1817C19.8422 12.0673 19.7605 11.9529 19.8748 11.8222C19.9892 11.6751 20.0709 11.4136 20.1852 11.3809C20.463 11.2992 20.3813 11.6751 20.5447 11.7731C20.5773 11.7895 20.5773 11.8712 20.5937 11.9366C20.61 12.0346 20.6427 12.1327 20.757 12.1163C20.8551 12.1 20.9368 12.051 20.9858 11.9693C21.0675 11.8058 21.1001 11.6424 20.9858 11.4953C20.9041 11.3809 20.9204 11.2992 21.0184 11.2175C21.1982 11.0541 21.2472 10.6946 21.6229 10.8743C21.7046 10.907 21.77 10.8416 21.819 10.7926C22.162 10.3677 22.6195 10.0082 22.7338 9.41985C22.7502 9.64865 22.7502 9.8611 22.7502 10.0735C22.7502 10.1553 22.7665 10.237 22.8482 10.2533C22.9626 10.2697 23.0116 10.1879 23.0443 10.0899C23.1749 9.63231 23.1586 9.17472 23.0769 8.7008C22.7992 8.76616 22.5705 8.60274 22.3254 8.60274C22.3254 8.53737 22.3254 8.50469 22.3418 8.50469C22.4234 8.43932 22.5215 8.35761 22.6031 8.29224C23.1096 7.86734 23.6487 7.68757 24.2859 8.01442C24.4493 8.09613 24.6453 8.0471 24.7597 7.851C25.0537 7.39341 25.0701 7.39341 25.6582 7.6222C25.4622 7.851 25.2171 8.03076 25.0374 8.2759C24.8087 8.5864 24.7597 8.92959 24.7923 9.28912C24.8087 9.38717 24.8577 9.48523 24.9394 9.51791C25.0374 9.55059 25.1191 9.46888 25.1681 9.40351C25.3641 9.15838 25.5765 8.91324 25.7726 8.66811C25.8869 8.53737 26.0013 8.40663 25.9359 8.21052C25.8706 7.98173 26.0176 7.91637 26.1973 7.88368C26.6548 7.80197 27.1122 7.75294 27.5206 7.50781C27.586 7.47512 27.6677 7.45878 27.733 7.45878C28.0434 7.49147 28.2395 7.39341 28.2231 7.03388C28.2231 6.78875 28.4029 6.78875 28.5826 6.83777C28.6969 6.87046 28.8113 6.96851 28.9256 7.03388C29.0727 7.09925 29.2034 7.13193 29.3177 6.98485C29.5464 6.67435 29.8078 6.75606 30.0529 6.96851C29.6935 7.50781 29.7752 7.7366 30.4613 8.07979C30.2326 8.40663 29.6771 8.27589 29.5301 8.73348C29.6935 8.84787 29.7425 8.68445 29.8569 8.66811C30.4287 8.57006 30.9678 8.40663 31.4579 8.09613C31.9153 7.81831 32.5362 7.98173 32.8466 8.42298C32.9936 8.61908 33.157 8.79885 33.1896 9.06032C33.206 9.15838 33.2387 9.28912 33.3203 9.28912C33.7614 9.30546 33.5981 9.76305 33.8268 9.94281C34.0882 10.1716 33.9902 10.4984 33.9412 10.7926C33.8431 11.2992 33.9412 11.7568 34.2842 12.1654C34.4966 12.4105 34.66 12.6556 34.7417 12.9825C34.7907 13.2113 34.9541 13.6362 35.1664 13.5708C35.5422 13.3747 35.5259 13.6198 35.5422 13.8159C35.5585 14.0938 35.7219 14.1918 35.918 14.3225C36.3264 14.5677 36.8002 14.6821 37.1759 15.0089C37.3229 15.1233 37.4373 15.2214 37.519 15.4011C37.617 15.6299 37.7641 15.8914 38.0908 15.826C38.2378 15.7933 38.2542 15.8751 38.2542 15.9731C38.2542 16.1529 38.2052 16.3163 38.0908 16.4307C37.7314 16.8066 37.715 17.2151 37.9764 17.6564C38.0418 17.7708 38.0908 17.9015 38.1071 18.0159C38.1398 18.3591 38.2868 18.6369 38.5319 18.833C38.7116 18.9801 38.7279 19.1272 38.6626 19.3233C38.6136 19.4867 38.5972 19.6501 38.5646 19.8136C38.4012 20.696 38.2052 21.5622 37.8784 22.3956C37.7477 22.7061 37.7641 23.0657 37.8131 23.3925C37.8947 23.8664 38.3032 24.1606 38.6953 24.0462C38.8423 23.9972 39.022 23.9482 38.8586 23.6867C38.6953 23.4252 38.5973 23.1147 38.9403 22.8696C39.0384 22.8042 39.0057 22.7225 38.9403 22.6408C38.8586 22.5427 38.9567 22.4773 38.9893 22.3956C39.2181 21.8237 39.8879 21.6602 40.182 21.1373C40.6394 20.9739 40.8028 20.5163 41.0642 20.1731C41.1785 20.026 41.2439 19.8626 41.4399 19.8136C41.7993 19.7482 41.979 19.4704 42.0934 19.1762C42.2241 18.833 42.2895 18.4735 42.5835 18.212C42.7142 18.0976 42.7142 17.9015 42.7469 17.7381C42.7632 17.64 42.7306 17.5583 42.6162 17.5256C42.1588 17.3949 41.8484 17.0027 41.3909 16.8883C41.3092 16.8719 41.2112 16.8393 41.2439 16.6922C41.3419 16.2673 41.0315 16.1365 40.7374 16.0058C40.5577 15.9241 40.329 15.9077 40.2636 15.6626C40.182 15.4175 40.0186 15.3031 39.7572 15.3521C39.6918 15.3684 39.5938 15.3521 39.5448 15.3194C39.2344 15.0416 38.9567 15.0416 38.6136 15.3194C38.3359 15.5319 37.9274 15.2704 37.9274 14.9435C37.9274 14.7474 37.9111 14.5677 37.7314 14.4533C37.6007 14.3716 37.5843 14.2408 37.6007 14.1101C37.6007 13.9957 37.666 13.8813 37.5353 13.8159C37.3883 13.7342 37.2903 13.8486 37.1922 13.9303C36.9635 14.1101 36.7185 14.1101 36.5878 13.8976C36.4734 13.7179 36.4407 13.5218 36.5551 13.3093C36.6531 13.1296 36.7511 12.9335 37.0125 13.0152C37.1759 13.0642 37.3393 13.0152 37.519 12.9988C37.7477 12.9825 37.9764 12.9825 37.9764 13.3257C37.9764 13.4727 38.0908 13.5708 38.2542 13.5381C38.3849 13.5218 38.4502 13.391 38.4175 13.2766C38.3032 12.8191 38.5482 12.5412 38.8586 12.2798C38.9403 12.2144 39.0057 12.1 39.071 12.0183C39.3651 11.6588 39.5938 11.2175 40.1656 11.2992C40.2636 11.3156 40.3943 11.2338 40.4597 11.1521C40.6231 10.907 40.8028 10.8743 41.0805 10.9724C41.1949 11.0214 41.3909 11.0214 41.4726 10.8416C41.5543 10.6619 41.587 10.4821 41.3256 10.3841C41.2112 10.335 41.1949 10.2533 41.2602 10.1553C41.4072 9.89379 41.2112 9.73036 41.0642 9.58328C40.4924 9.0113 40.3943 8.35761 40.7864 7.67123C40.8354 7.58952 40.9498 7.49146 40.8518 7.4261C40.5904 7.1973 40.5087 6.85412 40.2636 6.62532C39.9859 6.38019 39.7245 6.10237 39.4795 5.82455C39.1527 5.46502 39.169 5.41599 39.4141 5.00744C39.5121 4.82767 39.6755 4.7623 39.8389 4.66425C39.8389 4.71327 39.8552 4.74596 39.8552 4.77865C40.0186 5.39965 40.0186 5.39965 40.5904 5.46502C41.1132 5.51405 41.3092 5.71016 41.3419 6.24945C41.3582 6.54361 41.4399 6.83777 41.5706 7.06657C41.636 7.1973 41.6686 7.24633 41.6196 7.37707C41.4399 7.85099 41.6686 8.57006 42.0607 8.83153C42.4202 9.07667 42.4855 9.06033 42.7306 8.7008C42.8613 8.52103 42.9103 8.2759 43.1226 8.17784C43.5311 7.98174 43.9068 7.65489 44.3969 7.60586C44.6093 7.58952 44.8381 7.52415 44.9197 7.32804C45.0994 6.91949 45.1811 6.44556 45.5079 6.10237C45.5242 6.11871 45.4589 6.037 45.4589 5.97163ZM10.5136 12.9661C10.4646 13.0315 10.3666 13.0642 10.3176 13.0152C10.0399 12.7864 9.72945 12.5739 9.6641 12.1C10.0072 12.3288 10.1706 12.672 10.481 12.8191C10.53 12.8517 10.5463 12.9171 10.5136 12.9661ZM10.8731 12.9825C10.8567 12.9661 10.8404 12.9334 10.824 12.9008C10.824 12.9008 10.8404 12.8844 10.8731 12.8681C10.8894 12.9008 10.9384 12.9171 10.9384 12.9498C10.9547 12.9825 10.9221 12.9988 10.8731 12.9825ZM19.8748 11.2502C19.8422 11.3319 19.8095 11.43 19.6788 11.3809C19.6298 11.3646 19.5971 11.3319 19.5481 11.2992C19.6298 11.2012 19.7115 11.1358 19.7932 11.1358C19.8585 11.1521 19.8912 11.2012 19.8748 11.2502ZM40.8681 10.3187C40.7864 10.6782 40.6721 10.8743 40.2963 10.7436C40.4433 10.5311 40.6231 10.4494 40.8681 10.3187Z" fill="#602E31"/>
<path d="M9.05963 15.1887C8.84725 15.0906 8.73288 14.7801 8.55317 14.6004C8.09573 14.1428 8.04672 13.5054 7.71998 12.9825C7.67097 12.9008 7.70364 12.8191 7.71998 12.721C7.80166 12.2634 7.71998 12.1654 7.2462 12.1327C7.06649 12.1163 6.87045 12.1163 6.69074 12.1C6.31498 12.0837 5.93922 11.7732 5.54713 12.1C5.48178 12.149 5.30208 12.0673 5.17138 12.0183C5.02434 11.9693 4.90998 11.8712 4.76295 11.8385C4.58324 11.7895 4.55057 11.7241 4.55057 11.528C4.55057 11.1521 4.4362 11.0704 4.07679 11.0868C3.61935 11.1195 3.12923 11.0868 2.70446 11.3319C2.60644 11.3809 2.49208 11.4463 2.37772 11.3973C1.96929 11.2012 1.72423 11.528 1.64255 11.7568C1.51185 12.1 1.25046 12.2798 1.02174 12.5249C0.694992 12.8844 0.368247 13.2603 0.580631 13.8159C0.629642 13.963 0.53162 14.0938 0.482609 14.2408C0.400923 14.4696 0.368247 14.7475 0.580631 14.9109C0.793014 15.0906 0.923711 15.3031 1.08708 15.4992C1.23412 15.6626 1.39749 15.7934 1.64255 15.826C2.11633 15.8751 2.57377 15.9404 3.03121 15.7934C3.43964 15.6626 3.68469 16.0712 4.02777 16.1202C4.07679 16.1202 4.10946 16.2509 4.06045 16.3163C3.81539 16.6922 4.01144 16.97 4.22382 17.2642C4.48522 17.6237 4.61591 18.0322 4.33818 18.4735C4.19115 18.7186 4.19115 18.9638 4.32184 19.2252C4.40353 19.3887 4.46888 19.5684 4.50155 19.7482C4.5669 20.2385 4.68126 20.696 4.97533 21.1046C5.08969 21.268 5.04068 21.5132 5.23673 21.6439C5.48179 21.8073 5.66149 21.5785 5.87388 21.5458C5.90655 21.5458 5.95556 21.5458 5.98824 21.5458C6.36399 21.6276 6.57638 21.3661 6.78876 21.1373C7.09916 20.8268 7.21353 20.3855 7.54027 20.0914C7.58928 20.0587 7.62195 19.9443 7.60562 19.8789C7.49126 19.4867 7.76899 19.2906 8.03038 19.1108C8.32445 18.8984 8.43881 18.6369 8.34079 18.2937C8.30812 18.163 8.30812 18.0323 8.24277 17.9179C8.12841 17.64 8.19376 17.4112 8.3898 17.1988C8.6512 16.9373 8.87992 16.6105 9.17399 16.398C9.61509 16.0875 9.69678 15.6136 9.87649 15.1397C9.56608 15.205 9.25567 15.2867 9.05963 15.1887Z" fill="#602E31"/>
<path d="M25.0864 20.2221C24.9884 19.8462 24.923 19.4377 24.629 19.1272C24.3022 19.356 24.3022 19.7318 24.1225 20.0097C23.6651 19.6665 23.6651 19.6665 23.8611 19.1435C23.7794 19.0945 23.6814 19.0618 23.6161 19.0128C23.3383 18.784 23.0606 18.735 22.7665 18.9801C22.6195 19.1108 22.4234 19.0945 22.2274 19.0782C22.0804 19.0618 21.917 19.0455 21.7863 19.1435C21.3942 19.454 20.9204 19.5031 20.4303 19.6011C19.5644 19.7645 19.4827 20.1241 19.5808 20.7124C19.6298 20.9902 19.6461 21.268 19.5808 21.5458C19.4664 22.0198 19.5154 22.1015 19.9892 22.1668C20.1526 22.1995 20.3323 22.1995 20.4957 22.1832C20.8551 22.1342 21.2145 22.1505 21.5576 22.1342C21.917 22.1015 22.1457 22.1995 22.3091 22.5427C22.6195 23.1474 23.1096 23.5723 23.7468 23.8338C24.0735 23.9808 24.3839 23.9318 24.629 23.7194C25.021 23.3762 25.3805 22.984 25.6092 22.51C25.8052 22.1015 25.8216 21.7093 25.5438 21.3497C25.2824 21.0065 25.1844 20.6307 25.0864 20.2221Z" fill="#602E31"/>
<path d="M26.6711 18.3591C26.7201 18.2284 26.6548 18.1466 26.5567 18.0813C26.4751 18.0159 26.3444 17.9996 26.328 17.8198C26.5404 17.7708 26.7691 17.7054 26.9652 17.5583C27.0959 17.4603 27.1612 17.3132 27.1122 17.1661C27.0795 17.019 26.9325 16.97 26.8018 16.97C26.6384 16.97 26.377 16.8719 26.377 17.0844C26.3607 17.4112 26.1647 17.3295 26.0176 17.2968C25.7399 17.2315 25.4785 17.1171 25.2171 17.019C24.7923 16.8719 24.3839 16.6595 23.9101 16.7575C23.8284 16.7739 23.7631 16.7739 23.7141 16.6922C23.4854 16.3653 23.273 16.5614 23.0606 16.7249C22.9462 16.8066 22.9299 17.019 22.7175 17.0027C22.7175 16.8229 22.7175 16.6268 22.7175 16.447C22.7175 16.3326 22.6685 16.2509 22.5705 16.2346C22.4725 16.2183 22.4234 16.3163 22.3581 16.3817C22.2764 16.4961 22.2764 16.6268 22.2601 16.7575C22.2601 16.8556 22.2927 16.9863 22.1457 17.019C21.819 16.8393 22.162 16.5941 22.0967 16.349C21.77 16.5124 21.4922 16.3327 21.1981 16.3653C20.9041 16.398 20.8387 16.3163 20.9694 16.0548C21.0184 15.9404 21.1655 15.826 21.0838 15.7116C20.8224 15.3685 21.1165 15.2541 21.2635 15.058C21.5086 15.2867 21.2798 15.4992 21.2798 15.728C21.5249 15.7443 21.7209 15.777 21.917 15.8097C22.1457 15.8587 22.3581 15.728 22.3418 15.4829C22.3091 15.0253 22.2601 14.535 21.819 14.2408C21.6393 14.1264 21.5249 14.0284 21.5902 13.7996C21.6393 13.6525 21.5576 13.5381 21.4105 13.4891C21.2472 13.4401 21.1165 13.4891 21.0184 13.6362C20.9204 13.7669 20.8714 13.8976 20.9041 14.0611C20.9858 14.6331 20.8061 15.107 20.4793 15.5809C20.2669 15.8751 20.1036 16.1692 19.6788 16.2019C19.3847 16.2183 19.205 16.5124 19.2214 16.7575C19.2377 17.1661 19.5644 17.493 19.9892 17.5256C20.0709 17.5256 20.1526 17.5093 20.2179 17.5583C20.5937 17.7871 20.708 17.5093 20.8224 17.1988C20.9204 17.3786 20.9858 17.493 21.0511 17.6073C21.0675 17.64 21.0838 17.6727 21.1165 17.7054C21.1491 17.7708 21.2472 17.8688 21.2798 17.8198C21.4105 17.6237 21.6066 17.8035 21.7373 17.7381C21.8843 17.6564 21.8026 17.5093 21.819 17.3949C21.8353 17.2315 21.917 17.1824 22.0804 17.3132C22.4888 17.64 22.5705 17.6237 23.0769 17.2642C23.1586 17.1988 23.2076 17.2478 23.273 17.2805C23.3873 17.3459 23.5017 17.4276 23.6161 17.4766C23.8448 17.591 24.0572 17.6564 24.1225 17.9832C24.1879 18.3427 24.9557 18.5062 25.2498 18.261C25.4458 18.0976 25.5602 18.114 25.7072 18.2937C25.8869 18.5062 26.1156 18.6042 26.4097 18.5552C26.5404 18.5389 26.6384 18.4735 26.6711 18.3591Z" fill="#612F32"/>
<path d="M10.8731 4.01056C11.2978 4.0269 11.3142 4.0269 11.2651 3.55298C11.2488 3.37321 11.3305 3.27515 11.4285 3.16076C11.6899 2.89928 11.9676 2.70318 12.3107 2.58878C12.5721 2.50707 12.7682 2.34364 12.9806 2.19656C13.0949 2.09851 13.1439 1.98411 13.0786 1.85338C13.0132 1.72264 12.8825 1.7063 12.7355 1.7063C12.6865 1.7063 12.6211 1.73898 12.5721 1.75532C12.3271 1.88606 12.0493 1.91875 11.7716 2.00046C11.0854 2.19656 10.6117 2.67049 10.3503 3.32418C10.2032 3.76542 10.3829 3.99422 10.8731 4.01056Z" fill="#633133"/>
<path d="M11.8043 1.10163C12.0983 1.167 12.3434 1.00357 12.6048 0.92186C12.7518 0.872833 12.8825 0.758436 13.0132 0.889175C13.1766 1.06894 13.3563 0.98723 13.536 0.954546C13.7321 0.921861 13.9444 0.823805 14.1405 0.840147C14.4672 0.856489 14.5489 0.676725 14.5816 0.349879C14.0751 0.219141 13.5687 0.07206 13.0622 0.202798C12.6048 0.317194 12.1637 0.480617 11.7226 0.611356C11.5919 0.64404 11.4939 0.693067 11.4939 0.856489C11.5102 1.06894 11.6572 1.06894 11.8043 1.10163Z" fill="#663436"/>
<path d="M27.8801 24.8633C27.782 24.7163 27.6187 24.6182 27.4553 24.7489C27.3083 24.8633 27.3409 25.0104 27.4226 25.1411C27.439 25.1575 27.439 25.1738 27.4553 25.1902C27.6023 25.5007 27.5697 25.7622 27.3246 26.04C27.1122 26.2851 26.8672 26.4485 26.5894 26.6283C26.4914 26.6937 26.328 26.7754 26.3934 26.9225C26.4587 27.1022 26.6058 27.2166 26.8018 27.2983C26.9652 27.3637 27.0632 27.2656 27.1285 27.1513C27.3736 26.7264 27.733 26.3995 28.0598 26.04C28.2558 25.8439 28.4028 25.5987 28.4845 25.2229C28.2068 25.2229 28.0271 25.0758 27.8801 24.8633Z" fill="#643335"/>
<path d="M22.064 11.5444C21.9006 11.6588 21.7863 11.8222 21.5576 11.8712C21.3615 11.9039 21.2472 12.0673 21.1165 12.2144C20.9858 12.3615 21.0348 12.4759 21.1491 12.6066C21.2962 12.7537 21.3452 12.6393 21.4432 12.5412C21.6393 12.3451 21.9006 12.2307 22.162 12.1654C22.3908 12.1163 22.4888 12.0019 22.4888 11.7895C22.5215 11.3483 22.7012 10.9724 23.0606 10.6946C23.0933 10.6619 23.1096 10.5965 23.1423 10.5148C23.0279 10.4331 22.9136 10.5311 22.8482 10.4985C22.4561 10.237 22.3908 10.5802 22.2437 10.7926C22.162 10.907 22.1294 11.0214 22.1947 11.1521C22.2927 11.3156 22.2111 11.4463 22.064 11.5444Z" fill="#683638"/>
<path d="M8.37346 1.60824C8.55317 1.78801 8.66753 1.62458 8.78189 1.51019C8.86358 1.44482 8.9616 1.49384 9.04329 1.51019C9.15765 1.52653 9.19032 1.4775 9.23933 1.36311C9.27201 1.26505 9.23933 1.11797 9.37003 1.08529C9.54974 1.03626 9.69677 0.970889 9.61509 0.742097C9.5334 0.529648 9.33736 0.627701 9.17399 0.595016C9.12497 0.595016 9.05962 0.595016 8.92893 0.595016C8.71654 0.627701 8.42247 0.644046 8.1284 0.693072C7.9487 0.709415 7.89968 0.823809 7.89968 1.00357C7.93236 1.34676 8.19376 1.44482 8.37346 1.60824Z" fill="#673537"/>
<path d="M10.3339 19.1762C10.1542 19.5357 9.7948 19.7972 9.77846 20.2058C9.76212 20.3855 9.76212 20.5163 9.90916 20.5653C10.1052 20.6307 10.1869 20.4836 10.2196 20.3365C10.3013 20.0587 10.4156 19.8136 10.5953 19.6011C10.6607 19.5031 10.6933 19.405 10.6607 19.2906C10.628 19.1108 10.3993 19.0291 10.3339 19.1762Z" fill="#673639"/>
<path d="M45.8183 7.75294C45.7529 7.76928 45.6876 7.80197 45.6059 7.81831C45.5405 7.80197 45.4589 7.76928 45.3935 7.75294C45.1648 7.7366 45.0341 7.88368 45.0178 8.06344C45.0014 8.29223 45.1975 8.30858 45.3608 8.32492C45.6386 8.3576 45.8019 8.19418 45.9653 7.99807C46.0143 7.93271 46.047 7.86734 45.998 7.80197C45.9817 7.75294 45.9163 7.72026 45.8183 7.75294Z" fill="#714143"/>
<path d="M23.7631 24.6999C23.6977 24.896 23.7467 25.0921 23.9591 25.1575C24.1879 25.2229 24.2042 25.0104 24.2369 24.847C24.2532 24.7816 24.2369 24.6999 24.2369 24.6345C24.0572 24.6999 23.8284 24.4548 23.7631 24.6999Z" fill="#6D3B3D"/>
<path d="M10.481 12.8191C10.1706 12.672 10.0072 12.3288 9.6641 12.1C9.72945 12.5739 10.0562 12.7864 10.3176 13.0152C10.3666 13.0642 10.4646 13.0315 10.5136 12.9661C10.5463 12.9171 10.53 12.8517 10.481 12.8191Z" fill="#BCA6A5"/>
<path d="M10.824 12.9008C10.8404 12.9334 10.8404 12.9661 10.8731 12.9825C10.9057 12.9988 10.9547 12.9825 10.9384 12.9498C10.9221 12.9171 10.8894 12.9008 10.8731 12.8681C10.8567 12.8844 10.824 12.9008 10.824 12.9008Z" fill="#BCA6A5"/>
</svg>
