<svg width="96" height="92" viewBox="0 0 96 92" fill="none" xmlns="http://www.w3.org/2000/svg">
<path d="M44.8877 2.90419C44.9531 3.18201 44.7897 3.42714 44.7897 3.68862C44.7897 4.08083 44.9531 4.32597 45.2962 4.375C45.6556 4.42402 45.9333 4.22791 46.015 3.81936C46.064 3.55788 46.064 3.31275 45.917 2.9859C47.0116 3.2964 47.1586 2.80613 47.1913 2.2505C47.2076 1.76023 46.8645 1.48241 46.3908 1.61315C46.162 1.67852 45.9497 1.76023 45.7209 1.85828C45.77 1.53144 45.819 1.26996 45.8353 0.99214C45.8516 0.648952 45.6393 0.387475 45.3452 0.338448C45.0511 0.289421 44.7897 0.469186 44.6754 0.796032C44.5773 1.12288 44.561 1.44972 44.708 1.79291C43.9402 1.66217 43.7278 1.69486 43.5481 2.0217C43.352 2.36489 43.352 2.82248 43.5644 3.03493C44.0382 3.49251 44.463 3.06761 44.8877 2.90419Z" fill="#622F31"/>
<path d="M39.1044 3.90107C39.3168 3.80302 39.5128 3.65593 39.7252 3.5252C39.7905 3.81936 39.6435 4.06449 39.6598 4.32597C39.6925 4.6855 39.9212 4.96332 40.2316 4.97966C40.5747 4.996 40.8525 4.75087 40.8851 4.35865C40.9178 4.09718 40.9015 3.81936 40.7871 3.55788C40.9832 3.55788 41.1139 3.55788 41.2445 3.55788C41.555 3.55788 41.7673 3.4108 41.8327 3.13298C41.9144 2.82248 41.9961 2.46295 41.702 2.18513C41.4569 1.95634 41.1955 1.98902 40.9178 2.11976C40.7218 2.21781 40.5257 2.34855 40.297 2.47929C40.3297 2.31587 40.346 2.18513 40.3623 2.05439C40.3787 1.90731 40.395 1.76023 40.395 1.61315C40.395 1.23727 40.1826 0.975797 39.8559 0.943113C39.5291 0.910428 39.2841 1.12288 39.2024 1.49875C39.1371 1.79291 39.1207 2.08707 39.3004 2.36489C39.1697 2.46295 39.1044 2.43026 39.0227 2.43026C38.4019 2.41392 38.1732 2.64271 38.1405 3.24738C38.1405 3.81936 38.5979 4.12986 39.1044 3.90107Z" fill="#622F31"/>
<path d="M70.1287 8.67302C69.9163 8.93449 69.7366 9.16329 69.6222 9.4411C69.4752 9.78429 69.6059 10.0948 69.9163 10.2419C70.2267 10.389 70.5371 10.2746 70.7168 9.94772C70.8312 9.73527 70.8965 9.49013 71.0109 9.22865C71.305 9.52282 71.501 9.9804 72.0238 9.80064C72.4159 9.65355 72.5303 9.27768 72.5466 8.93449C72.5793 8.26446 71.9421 8.34617 71.5337 8.16641C71.7297 7.93761 71.9258 7.74151 72.0075 7.44734C72.1382 7.02244 72.0728 6.74463 71.7297 6.59755C71.4193 6.45046 71.1579 6.59754 70.9129 6.97342C70.7822 7.18587 70.7822 7.46369 70.6025 7.65979C70.0797 7.08781 69.8673 6.97342 69.5569 7.1205C69.2792 7.23489 68.9851 7.74151 69.0341 8.05201C69.1321 8.64033 69.6386 8.60765 70.1287 8.67302Z" fill="#622F31"/>
<path d="M55.3435 3.44348C55.2455 3.7213 55.1312 3.96644 55.0821 4.21157C54.9841 4.60379 55.1802 4.91429 55.5232 4.996C55.8337 5.07771 56.1277 4.8816 56.2421 4.52207C56.3238 4.27694 56.3401 4.01546 56.3401 3.7213C56.7322 3.91741 57.0753 4.22791 57.4837 3.85204C57.6961 3.65593 57.8431 3.1003 57.7124 2.85516C57.4347 2.26684 56.9119 2.54466 56.4218 2.54466C56.5852 2.28318 56.6668 2.0217 56.7159 1.74388C56.7975 1.36801 56.6505 1.07385 56.3401 0.975797C56.0297 0.877743 55.7356 1.04117 55.5886 1.38435C55.4742 1.66217 55.4252 1.97268 55.4579 2.29952C55.0495 2.08707 54.7064 1.76023 54.2816 2.11976C54.0856 2.29952 53.9222 2.88785 54.0366 3.11664C54.3306 3.77033 54.8534 3.47617 55.3435 3.44348Z" fill="#622E31"/>
<path d="M64.8355 6.28704C65.0152 6.33607 65.2275 6.2707 65.4236 6.3851C65.3256 6.51583 65.2602 6.63023 65.1949 6.74463C65.1295 6.85902 65.0642 6.97342 65.0315 7.10416C64.9008 7.48003 65.0478 7.80688 65.3746 7.93761C65.685 8.05201 66.0117 7.90493 66.1424 7.56174C66.2404 7.33295 66.2895 7.07147 66.3711 6.82634C66.6816 7.08782 66.8939 7.52906 67.4167 7.31661C67.6618 7.21855 67.9558 6.66292 67.9068 6.36875C67.7925 5.74775 67.237 5.8458 66.7306 5.78043C67.0246 5.48627 67.1717 5.20845 67.2534 4.91429C67.335 4.5711 67.2043 4.29328 66.9103 4.17889C66.6162 4.06449 66.3058 4.19523 66.1588 4.48939C66.0117 4.75087 65.9464 5.04503 65.8647 5.48627C65.7503 5.3065 65.7177 5.22479 65.6523 5.15942C65.0805 4.60379 64.6067 4.71818 64.3453 5.45359C64.182 5.86214 64.378 6.17265 64.8355 6.28704Z" fill="#622F31"/>
<path d="M60.4571 4.60379C60.3264 4.89795 60.212 5.12674 60.1303 5.37187C60.016 5.73141 60.1793 6.04191 60.4898 6.1563C60.7838 6.2707 61.1759 6.09094 61.2903 5.73141C61.3556 5.48627 61.4046 5.25748 61.421 4.96332C61.6334 5.09406 61.764 5.20845 61.9111 5.27382C62.1561 5.38822 62.3849 5.35553 62.5972 5.17577C62.7606 5.04503 62.7933 4.86526 62.8423 4.6855C62.9893 4.12986 62.7606 3.81936 62.1888 3.80301C62.0091 3.80301 61.8294 3.81936 61.617 3.81936C61.715 3.65593 61.7804 3.55788 61.8294 3.44348C61.8784 3.31275 61.9274 3.16566 61.9601 3.01858C62.0418 2.64271 61.9111 2.33221 61.6007 2.23415C61.2903 2.1361 61.0125 2.28318 60.8328 2.64271C60.7021 2.90419 60.7021 3.19835 60.6695 3.5252C60.261 3.2964 59.9179 2.92053 59.4605 3.31275C59.2481 3.50885 59.0848 4.06449 59.1991 4.29328C59.4605 4.86526 59.967 4.63647 60.4571 4.60379Z" fill="#622F31"/>
<path d="M50.2463 2.78979C50.1647 3.1003 50.083 3.34543 50.034 3.59056C49.9686 3.93375 50.1647 4.2606 50.4751 4.32597C50.8345 4.40768 51.1449 4.21157 51.2266 3.8357C51.2756 3.57422 51.3083 3.31275 51.2266 3.00224C51.9291 3.26372 52.1251 3.26372 52.3702 2.96956C52.5662 2.74076 52.6316 2.18513 52.5009 1.95633C52.1251 1.4007 51.6513 1.74389 51.1449 1.84194C51.2592 1.49875 51.3573 1.20459 51.3573 0.894085C51.3573 0.56724 51.1776 0.338448 50.8998 0.273079C50.5894 0.20771 50.328 0.371132 50.2137 0.697978C50.0993 0.992139 50.0993 1.31899 50.1156 1.62949C49.3805 1.43338 49.1681 1.44972 48.972 1.74388C48.7596 2.05439 48.7106 2.52832 48.9067 2.74077C49.2824 3.26372 49.7562 2.95322 50.2463 2.78979Z" fill="#622F31"/>
<path d="M33.321 5.15942C33.5497 5.3065 33.7948 5.27382 34.0072 5.14308C34.2032 5.01234 34.3993 4.86526 34.6607 4.65281C34.628 4.86526 34.6117 4.97966 34.5953 5.1104C34.579 5.24114 34.5626 5.37187 34.579 5.50261C34.6117 5.89483 34.8731 6.13996 35.2325 6.12362C35.5756 6.10728 35.7716 5.87849 35.8043 5.48627C35.8206 5.20845 35.7879 4.94697 35.6409 4.6855C36.5231 4.63647 36.7355 4.44036 36.6865 3.75399C36.6701 3.24738 36.2944 3.00224 35.8043 3.21469C35.5756 3.31274 35.3795 3.49251 35.1344 3.67228C35.1344 3.47617 35.1344 3.36177 35.1344 3.23103C35.1344 3.08395 35.1344 2.93687 35.1344 2.78979C35.1018 2.43026 34.9057 2.20147 34.5953 2.18513C34.2849 2.16878 34.0562 2.34855 33.9745 2.69174C33.8765 3.06761 33.9745 3.4108 34.2032 3.73764C33.3374 3.67228 33.1413 3.81936 33.0596 4.48939C32.9943 4.78355 33.0923 5.01234 33.321 5.15942Z" fill="#622F31"/>
<path d="M78.5913 14.785C78.428 14.9158 78.3136 14.9811 78.2156 15.0629C78.1176 15.1773 78.0195 15.2916 77.9542 15.4224C77.7418 15.7656 77.7908 16.1088 78.1012 16.3049C78.379 16.501 78.7547 16.3866 78.9671 16.0761C79.0978 15.88 79.1468 15.6348 79.3429 15.4714C79.4245 15.6512 79.4899 15.8473 79.5879 15.9944C79.7349 16.2232 79.931 16.4193 80.2414 16.3376C80.6172 16.2558 80.7642 15.929 80.8786 15.6185C80.9766 15.3407 80.8622 15.0955 80.6172 14.9321C80.4538 14.8341 80.2904 14.736 80.078 14.638C80.4211 14.4745 80.6335 14.2457 80.7805 13.9352C80.9439 13.5757 80.8786 13.2815 80.5845 13.1018C80.3231 12.9384 80.029 12.9874 79.8003 13.2815C79.6206 13.5103 79.4899 13.7555 79.3265 14.0006C79.0978 13.592 79.0161 13.0364 78.3626 13.1181C78.1176 13.1508 77.7418 13.6084 77.7091 13.9026C77.6765 14.4909 78.1339 14.6053 78.5913 14.785Z" fill="#622F31"/>
<path d="M74.4417 11.4839C74.2457 11.6963 74.0496 11.8924 73.9189 12.1376C73.7392 12.5135 73.8046 12.8076 74.115 13.0037C74.4254 13.1835 74.7521 13.0854 74.9645 12.7259C75.0789 12.5135 75.1769 12.2847 75.2749 12.0559C75.5363 12.4154 75.667 12.922 76.2715 12.7913C76.5329 12.7259 76.8433 12.301 76.8596 11.9578C76.8759 11.3532 76.3368 11.3205 75.9121 11.1407C76.1898 10.9283 76.4022 10.7158 76.5165 10.4053C76.6472 10.0294 76.5819 9.75161 76.2878 9.58819C76.0101 9.42476 75.6833 9.52282 75.4709 9.84966C75.3239 10.0785 75.2096 10.3399 75.0789 10.6014C74.8175 10.2092 74.6541 9.73527 74.0659 9.866C73.8209 9.91503 73.4615 10.4053 73.4778 10.6995C73.4778 11.2878 74.0006 11.3368 74.4417 11.4839Z" fill="#622F31"/>
<path d="M81.532 17.5142C81.4013 17.7757 81.4504 18.0208 81.6954 18.2169C81.8588 18.3477 82.0222 18.4621 82.1855 18.5765C81.7444 18.8216 81.7444 18.8216 81.532 19.1157C81.2543 19.4753 81.287 19.8021 81.6137 20.0473C81.8914 20.2434 82.2345 20.178 82.4959 19.8675C82.6266 19.7041 82.7246 19.5243 82.888 19.2955C82.9697 19.5406 83.0187 19.6877 83.0677 19.8511C83.1821 20.129 83.3781 20.3414 83.6885 20.3251C84.0806 20.3087 84.244 19.9655 84.391 19.6714C84.5381 19.4099 84.4074 19.1648 84.2113 18.9687C84.0806 18.8379 83.8846 18.7889 83.7866 18.6091C84.293 18.3313 84.342 18.2986 84.5217 17.9554C84.7014 17.6123 84.6524 17.3181 84.3747 17.122C84.1133 16.9422 83.8192 16.9749 83.5742 17.2527C83.3945 17.4652 83.2311 17.694 83.0351 17.9391C82.9534 17.694 82.9044 17.4979 82.8227 17.3181C82.7083 17.0566 82.5123 16.8769 82.2182 16.8932C81.8588 16.8932 81.6791 17.22 81.532 17.5142Z" fill="#622F31"/>
<path d="M24.3846 9.63721C24.548 9.52282 24.695 9.37574 24.8093 9.19597C24.8747 9.09792 24.8747 8.93449 25.0707 8.96718C25.1034 9.245 25.0871 9.53916 25.2014 9.80064C25.3485 10.1275 25.5935 10.2746 25.9203 10.2092C26.2143 10.1438 26.4104 9.86601 26.3941 9.53916C26.3777 9.21231 26.296 8.91815 26.0183 8.68936C26.2143 8.62399 26.3777 8.60765 26.5248 8.52594C26.8188 8.3952 26.9168 8.15007 26.8842 7.83956C26.8678 7.52906 26.8025 7.2349 26.4757 7.10416C26.198 6.98976 25.953 7.10416 25.7732 7.31661C25.5935 7.49637 25.4302 7.69248 25.2505 7.90493C25.2014 7.56174 25.1688 7.26758 25.0871 6.97342C25.0054 6.66292 24.744 6.48315 24.4663 6.49949C24.1722 6.53218 23.9598 6.77731 23.9108 7.10416C23.8618 7.51272 24.0415 7.82322 24.3356 8.11738C24.1885 8.15007 24.0742 8.16641 23.9762 8.19909C23.4534 8.37886 23.241 8.95084 23.5187 9.42476C23.7148 9.76795 24.0905 9.86601 24.3846 9.63721Z" fill="#622F31"/>
<path d="M28.4362 7.28392C28.7629 7.431 29.008 7.26758 29.2367 7.05513C29.4001 6.92439 29.4818 6.6956 29.7268 6.59755C29.7268 6.79365 29.7105 6.94074 29.7268 7.08782C29.7432 7.2349 29.7595 7.38198 29.8085 7.52906C29.9229 7.82322 30.1843 7.98664 30.462 7.93761C30.7397 7.88859 30.9195 7.6598 30.9521 7.34929C30.9848 7.0061 30.9195 6.6956 30.6907 6.41778C31.4749 6.2707 31.6873 6.02557 31.5893 5.38822C31.5076 4.88161 31.0665 4.66916 30.6254 4.93063C30.3803 5.07771 30.217 5.32285 29.9392 5.58432C29.9229 5.24114 29.9229 4.97966 29.8902 4.73452C29.8249 4.32597 29.5471 4.09718 29.2204 4.12986C28.8936 4.16254 28.7303 4.40768 28.6813 4.79989C28.6322 5.17577 28.861 5.45359 29.008 5.76409C28.8446 5.78043 28.7303 5.78043 28.6322 5.79677C28.2728 5.87849 28.1258 6.04191 28.0768 6.40144C28.0441 6.87537 28.1421 7.15318 28.4362 7.28392Z" fill="#622F31"/>
<path d="M84.6851 24.1982C84.9628 24.427 85.3059 24.4106 85.5837 24.1001C85.7307 23.9367 85.8614 23.757 85.9921 23.5772C86.1064 23.6589 86.0574 23.757 86.0738 23.8387C86.0901 23.9367 86.1228 24.0184 86.1391 24.1165C86.2535 24.4924 86.4495 24.6885 86.7273 24.7048C87.1357 24.7212 87.3154 24.4106 87.4788 24.1165C87.6258 23.855 87.5441 23.6262 87.3154 23.3484C87.201 23.234 87.005 23.185 86.9887 22.9889C87.4788 22.8254 87.5768 22.7601 87.7892 22.4332C88.0016 22.1227 87.9852 21.8449 87.7565 21.6161C87.5114 21.3873 87.1847 21.3873 86.907 21.6488C86.7109 21.8449 86.5312 22.0574 86.2862 22.3352C86.2698 21.992 86.2371 21.7305 86.1228 21.4854C85.9431 21.1422 85.5837 21.0278 85.2733 21.2239C84.6688 21.5834 84.6198 22.1391 85.1589 22.5967C85.2406 22.662 85.3549 22.6784 85.3876 22.8091C84.9302 23.0379 84.8485 23.1033 84.6688 23.3321C84.391 23.6426 84.4074 23.9694 84.6851 24.1982Z" fill="#622F32"/>
<path d="M20.0879 12.5788C20.3493 12.3827 20.4146 12.0559 20.6597 11.8107C20.7251 12.1049 20.7741 12.3664 20.8558 12.6115C20.9864 12.9547 21.2969 13.1181 21.6236 13.0201C21.9177 12.9547 22.0647 12.6769 22.0647 12.3173C22.0484 11.9742 21.885 11.6963 21.5746 11.4512C21.8196 11.4022 21.983 11.3368 22.1137 11.2388C22.3914 11.059 22.4078 10.7975 22.3588 10.487C22.3098 10.1929 22.1954 9.94772 21.885 9.86601C21.5909 9.78429 21.3785 9.94772 21.1988 10.1602C21.0355 10.3563 20.9048 10.5851 20.7251 10.8465C20.676 10.6014 20.627 10.4053 20.5944 10.2092C20.5617 10.0294 20.4963 9.84966 20.382 9.70258C20.0879 9.35939 19.4998 9.44111 19.3854 9.88235C19.3037 10.2255 19.2874 10.6014 19.5978 10.8792C19.6958 10.9609 19.8428 11.01 19.8265 11.1734C19.7121 11.2061 19.6141 11.2224 19.4998 11.2714C19.0096 11.4839 18.8626 12.1376 19.2057 12.5461C19.4344 12.824 19.7775 12.824 20.0879 12.5788Z" fill="#622F31"/>
<path d="M87.6421 26.0612C87.4788 26.339 87.4951 26.5515 87.6912 26.8456C87.7892 26.9927 88.0179 27.0418 88.0179 27.2705C87.5441 27.4013 87.4788 27.434 87.2501 27.7118C86.9887 28.006 86.9723 28.3165 87.201 28.5616C87.4461 28.8231 87.7892 28.8394 88.0996 28.5616C88.2793 28.4145 88.4263 28.2347 88.6224 28.0386C88.6387 28.2674 88.6387 28.4635 88.6714 28.6433C88.7204 28.9375 88.8511 29.1826 89.1778 29.2316C89.5863 29.297 89.7823 29.0192 89.9947 28.7414C90.1744 28.4962 90.1254 28.2511 89.9457 28.006C89.8313 27.8589 89.6516 27.7772 89.5863 27.5647C89.9457 27.5484 90.2398 27.4013 90.4521 27.1235C90.6972 26.813 90.7135 26.5025 90.5012 26.2573C90.2561 25.9958 89.9294 25.9958 89.6026 26.2737C89.4229 26.4371 89.2759 26.6332 89.1125 26.813C89.0798 26.7966 89.0471 26.7803 88.9981 26.7476C88.9818 26.5678 88.9818 26.3881 88.9491 26.2083C88.9001 25.9141 88.7858 25.669 88.459 25.5873C88.1813 25.5383 87.8709 25.718 87.6421 26.0612Z" fill="#612F31"/>
<path d="M90.5175 30.3919C89.8803 30.49 89.5863 31.1764 89.9947 31.6993C90.06 31.781 90.1581 31.8627 90.1907 32.0425C89.864 32.0425 89.6026 32.1406 89.3739 32.3693C89.0635 32.6798 88.9981 32.9577 89.2268 33.2518C89.4556 33.5623 89.7987 33.5623 90.1581 33.3009C90.3214 33.1701 90.4358 32.9577 90.6645 32.9086C90.6645 33.1701 90.6482 33.3826 90.6645 33.6114C90.7135 34.0526 91.1546 34.3141 91.5141 34.1343C92.0859 33.8728 92.2166 33.3662 91.8571 32.8596C91.7918 32.7779 91.6774 32.7125 91.7264 32.5491C92.1839 32.6145 92.5106 32.3693 92.7557 32.0262C93.0171 31.6503 92.7557 31.1437 92.2982 31.111C92.1022 31.0946 91.9388 31.209 91.7918 31.3234C91.5957 31.4705 91.4487 31.683 91.171 31.7974C91.22 31.4705 91.269 31.1927 91.1873 30.9149C91.0893 30.5553 90.8116 30.3592 90.5175 30.3919Z" fill="#622F32"/>
<path d="M92.5433 35.5398C92.1839 35.3763 91.9388 35.6051 91.6938 35.8176C91.4487 36.03 91.4324 36.2588 91.5631 36.5857C91.6284 36.7327 91.7591 36.8471 91.7755 37.0106C91.171 37.0923 91.122 37.0923 90.8279 37.3537C90.5338 37.6152 90.4848 37.8604 90.6645 38.1382C90.8606 38.4323 91.171 38.5304 91.4977 38.3343C91.7264 38.2035 91.9225 38.0401 92.2166 37.844C92.1349 38.1872 92.0205 38.4323 92.0532 38.6938C92.0859 39.1351 92.478 39.4292 92.87 39.2821C93.4255 39.0697 93.6052 38.6121 93.3275 38.0728C93.2785 37.9911 93.1641 37.9094 93.2621 37.746C93.7032 37.8767 94.0463 37.6643 94.3241 37.3374C94.4874 37.1576 94.5201 36.9288 94.3894 36.7164C94.2587 36.4713 94.0463 36.3732 93.7849 36.4059C93.6052 36.4222 93.4745 36.5203 93.3275 36.6183C93.1641 36.7327 93.0007 36.8308 92.7884 36.9779C92.8374 36.6837 92.9027 36.4876 92.9191 36.2915C92.9354 35.9156 92.8047 35.6541 92.5433 35.5398Z" fill="#622F32"/>
<path d="M15.1051 15.88C15.1541 16.1414 15.3501 16.3049 15.6115 16.3539C15.9383 16.4029 16.1343 16.2068 16.2977 15.9617C16.4447 15.7329 16.4774 15.4714 16.5917 15.2099C16.7878 15.4878 16.7878 15.8309 16.9838 16.0761C17.1962 16.3376 17.4249 16.4356 17.7027 16.3376C17.9967 16.2232 18.1438 15.9617 18.0948 15.6185C18.0458 15.2263 17.8334 14.9648 17.4903 14.785C17.67 14.687 17.817 14.6216 17.9477 14.5236C18.2255 14.3111 18.1928 14.0169 18.1274 13.7064C18.0621 13.4286 17.9151 13.2162 17.621 13.1671C17.2942 13.1018 17.0982 13.2979 16.9348 13.5594C16.7551 13.8372 16.6734 14.1313 16.5754 14.4582C16.4447 14.0823 16.3957 13.6738 16.167 13.3469C16.0363 13.1508 15.8402 13.0364 15.5952 13.0691C15.3338 13.1181 15.1377 13.2815 15.1051 13.543C15.0561 13.8862 15.1051 14.2131 15.3991 14.4582C15.4972 14.5399 15.6769 14.5562 15.7259 14.7197C15.5625 14.8177 15.4155 14.8994 15.2848 14.9975C14.9744 15.2263 15.0561 15.5695 15.1051 15.88Z" fill="#623032"/>
<path d="M94.9285 47.2245C94.6508 47.3225 94.4057 47.4533 94.079 47.584C94.177 47.3879 94.2424 47.2735 94.3077 47.1264C94.3731 46.9957 94.4221 46.8486 94.4548 46.7015C94.5201 46.4401 94.4384 46.2113 94.226 46.0642C94.03 45.9171 93.8176 45.9171 93.5889 46.0315C93.0824 46.2603 92.9681 46.5218 93.1151 47.0611C93.1478 47.1591 93.2458 47.2408 93.1805 47.3552C92.5923 47.2735 92.478 47.2899 92.2166 47.4369C91.8571 47.6494 91.7264 47.9599 91.8898 48.2704C92.0532 48.5972 92.3473 48.6953 92.7557 48.5482C92.9517 48.4829 93.1478 48.3848 93.3928 48.2704C93.2785 48.5482 93.1968 48.7607 93.1151 48.9568C93.0171 49.2346 93.0824 49.4797 93.3111 49.6595C93.5399 49.8556 93.7849 49.8229 94.0463 49.6758C94.5038 49.4144 94.5854 49.2019 94.4548 48.7116C94.4221 48.6136 94.3567 48.5155 94.3894 48.3521C94.7652 48.4828 95.1409 48.5809 95.484 48.2867C95.7781 48.0416 95.8761 47.7965 95.7617 47.5187C95.5984 47.2245 95.288 47.0938 94.9285 47.2245Z" fill="#622F31"/>
<path d="M93.9156 41.6354C94.0136 41.2269 93.9156 40.9327 93.6542 40.7856C93.4092 40.6385 93.0824 40.7039 92.772 40.949C92.527 41.1452 92.4616 41.3903 92.5596 41.7008C92.6086 41.8642 92.7393 41.9786 92.7557 42.1747C92.4453 42.2074 92.1185 42.142 91.8408 42.3545C91.4977 42.6323 91.367 42.9101 91.5467 43.2043C91.7591 43.5475 92.0695 43.6292 92.4616 43.4004C92.6577 43.286 92.8374 43.1716 93.0824 43.0082C93.0007 43.3677 92.821 43.6455 92.87 43.9724C92.9191 44.3319 93.2295 44.5934 93.5725 44.528C94.128 44.4136 94.3894 43.9233 94.177 43.384C94.1443 43.286 94.0463 43.2043 94.0953 43.0572C94.4384 43.0735 94.7815 43.1226 95.0919 42.8448C95.386 42.5669 95.484 42.2891 95.3206 42.0113C95.1409 41.7335 94.8468 41.6354 94.4874 41.8152C94.2424 41.9296 93.9973 42.0767 93.7032 42.2401C93.8013 42.0276 93.8666 41.8315 93.9156 41.6354Z" fill="#622F31"/>
<path d="M11.805 18.4621C11.903 18.5111 12.0827 18.4947 12.099 18.6745C11.9683 18.7726 11.8213 18.8706 11.7069 18.9687C11.4129 19.2301 11.5109 19.557 11.6089 19.8511C11.6906 20.0963 11.8703 20.2434 12.1644 20.2434C12.5075 20.2434 12.6872 20.0473 12.8015 19.7694C12.8995 19.557 12.9486 19.3282 13.0466 19.034C13.2426 19.3282 13.2916 19.6387 13.504 19.8511C13.7491 20.1126 13.9941 20.1617 14.2555 20.0309C14.5333 19.8838 14.6149 19.655 14.5823 19.3282C14.5496 18.9033 14.2229 18.7072 13.8961 18.5111C14.0431 18.413 14.1738 18.3477 14.2719 18.2659C14.6149 17.9718 14.5169 17.22 14.1248 17.0076C13.8308 16.8442 13.4713 16.9586 13.2753 17.3181C13.1283 17.5959 13.0466 17.8901 12.9322 18.2169C12.7852 17.8901 12.7035 17.5632 12.5075 17.3181C12.3114 17.0566 12.0173 16.9749 11.7559 17.0893C11.4945 17.2037 11.3638 17.4652 11.4129 17.792C11.4129 18.0698 11.5272 18.315 11.805 18.4621Z" fill="#623032"/>
<path d="M94.9939 52.7809C94.7978 52.7482 94.6181 52.8136 94.4384 52.8626C94.275 52.8953 94.1117 53.0587 93.9156 52.977C94.0627 52.7155 94.226 52.4867 94.3241 52.2252C94.4711 51.8494 94.2587 51.4735 93.8829 51.4081C93.3438 51.3101 92.87 51.7513 92.9517 52.307C92.9681 52.454 93.0988 52.5848 92.9844 52.7318C92.4289 52.5194 92.2819 52.5031 91.9715 52.6665C91.6447 52.8299 91.4977 53.1077 91.5794 53.3855C91.6611 53.696 91.9552 53.8922 92.3146 53.8268C92.576 53.7778 92.8047 53.6797 93.1151 53.598C92.9354 53.8758 92.7393 54.0883 92.6413 54.3661C92.5596 54.5949 92.5923 54.8073 92.7557 54.9871C92.9354 55.1832 93.1641 55.2486 93.4255 55.1505C93.8993 54.9871 94.079 54.7256 94.03 54.219C94.0136 54.1046 93.8993 53.9902 94.0136 53.8595C94.0953 53.8922 94.177 53.9412 94.2587 53.9739C94.6181 54.17 94.9449 54.0719 95.2553 53.8431C95.4513 53.696 95.5493 53.4999 95.5003 53.2548C95.435 52.9933 95.2553 52.8299 94.9939 52.7809Z" fill="#622F31"/>
<path d="M8.52118 22.8908C8.65188 22.9398 8.78257 22.9562 8.96228 23.0052C8.79891 23.1686 8.65188 23.2994 8.53752 23.4465C8.3088 23.757 8.43949 24.0511 8.57019 24.3453C8.68455 24.5741 8.89693 24.6558 9.14199 24.6394C9.46874 24.6068 9.61577 24.3943 9.71379 24.1001C9.79548 23.855 9.76281 23.5935 9.81182 23.283C10.0242 23.5608 10.1712 23.7896 10.3673 23.9857C10.596 24.2472 10.9391 24.2799 11.1841 24.1165C11.4129 23.9694 11.4619 23.6916 11.4129 23.3811C11.3312 22.9235 10.9881 22.7928 10.5797 22.6784C10.743 22.5313 10.8411 22.4496 10.9227 22.3515C11.1841 22.0737 11.1025 21.7632 10.9554 21.469C10.8247 21.1912 10.596 21.0605 10.3346 21.1095C10.0079 21.1585 9.87717 21.4037 9.79548 21.6815C9.71379 21.943 9.69746 22.2208 9.66478 22.5149C9.50141 22.3679 9.4524 22.1881 9.35438 22.0247C9.24001 21.8449 9.12565 21.6815 8.94595 21.5671C8.58653 21.322 8.11275 21.5181 8.01473 21.9266C7.93304 22.2861 8.1781 22.7601 8.52118 22.8908Z" fill="#622F31"/>
<path d="M93.8829 58.1248C93.5725 58.1575 93.2621 58.2229 92.9027 58.2882C93.1314 57.9777 93.3928 57.7653 93.4909 57.4221C93.5889 57.0952 93.4418 56.7684 93.1314 56.654C92.6903 56.4906 92.1512 56.8664 92.1022 57.324C92.0859 57.5038 92.1675 57.6836 92.0695 57.8797C91.7101 57.6509 91.367 57.5365 90.9913 57.7489C90.6972 57.896 90.5665 58.1411 90.6318 58.4353C90.6809 58.7131 90.9096 58.8929 91.2363 58.9092C91.5141 58.9256 91.7918 58.8439 92.0859 58.7948C91.9225 59.0236 91.7428 59.2197 91.6284 59.4485C91.5141 59.6773 91.4977 59.9061 91.6774 60.1349C91.8735 60.38 92.1022 60.4127 92.3799 60.331C92.821 60.2003 93.0171 59.9225 92.9844 59.4485C92.9844 59.3341 92.8864 59.2361 92.9844 59.1053C93.1314 59.1871 93.2785 59.2688 93.4255 59.3341C93.7523 59.4649 94.2424 59.3178 94.4384 59.0563C94.5691 58.8766 94.5854 58.6641 94.4874 58.468C94.3731 58.2065 94.1443 58.0921 93.8829 58.1248Z" fill="#622F31"/>
<path d="M5.90723 27.5484C6.02159 27.5811 6.16862 27.5157 6.26665 27.6791C6.15229 27.8262 6.00525 27.9569 5.90723 28.104C5.71118 28.3982 5.84188 28.6923 5.98892 28.9538C6.11961 29.1826 6.34833 29.2806 6.60973 29.2316C6.9038 29.1826 7.01816 28.9538 7.11618 28.6923C7.19787 28.4472 7.13252 28.1857 7.23054 27.8752C7.45926 28.1203 7.58996 28.3818 7.80234 28.5452C8.03106 28.725 8.29246 28.7414 8.53752 28.6106C8.78257 28.4635 8.86426 28.1857 8.78257 27.8752C8.66821 27.434 8.34147 27.2542 7.86769 27.2052C7.99839 27.0581 8.06374 26.9764 8.14542 26.8947C8.39048 26.6169 8.40682 26.3881 8.22711 26.0285C8.09641 25.7671 7.9167 25.6036 7.62263 25.6363C7.32856 25.6527 7.16519 25.8324 7.05083 26.241C6.96915 26.5025 7.0345 26.7803 6.95281 27.1235C6.80577 26.911 6.72409 26.7639 6.60973 26.6169C6.49537 26.4534 6.34833 26.29 6.16862 26.192C5.79287 25.9959 5.33543 26.2573 5.30275 26.6822C5.25374 27.0581 5.53147 27.434 5.90723 27.5484Z" fill="#622F32"/>
<path d="M3.86508 32.5164C3.97944 32.5328 4.12648 32.4674 4.24084 32.5818C4.12648 32.7452 3.99578 32.9086 3.89776 33.0884C3.71805 33.3989 3.88142 33.6767 4.04479 33.9219C4.19183 34.1507 4.45322 34.1833 4.69828 34.1016C5.00868 34.0036 5.12304 33.7584 5.13938 33.4479C5.15572 33.2028 5.13938 32.9577 5.13938 32.7125C5.30275 32.7452 5.35177 32.9086 5.44979 33.0067C5.58049 33.1211 5.69485 33.2355 5.84188 33.3335C6.08694 33.4806 6.332 33.4479 6.56072 33.2682C6.78944 33.0721 6.78944 32.8433 6.70775 32.5981C6.60973 32.304 6.43002 32.0752 6.08694 32.0098C5.97258 31.9935 5.82554 32.0588 5.74386 31.8791C5.82554 31.781 5.92357 31.683 5.98892 31.5686C6.21764 31.2581 6.08694 30.9639 5.89089 30.6861C5.74386 30.4573 5.53147 30.3756 5.25374 30.441C4.97601 30.5063 4.81264 30.7351 4.77996 31.1273C4.76363 31.3725 4.77996 31.6339 4.77996 31.9771C4.60026 31.781 4.50223 31.6339 4.37154 31.5032C4.2245 31.3561 4.0938 31.209 3.88142 31.1273C3.522 30.9966 3.12991 31.2417 3.09723 31.6176C3.0809 32.0752 3.40764 32.4674 3.86508 32.5164Z" fill="#622F32"/>
<path d="M92.625 63.3543C92.4453 63.289 92.2656 63.2726 92.0695 63.3053C91.8898 63.338 91.7101 63.387 91.4814 63.338C91.6938 63.0765 91.9715 62.8968 92.1022 62.6026C92.2982 62.1777 92.0369 61.7201 91.5794 61.7201C91.0893 61.7201 90.7789 61.9979 90.7462 62.5045C90.7462 62.6353 90.7789 62.766 90.7135 62.8804C90.5175 62.8641 90.4031 62.6843 90.2234 62.6353C89.9457 62.5372 89.5373 62.6189 89.3412 62.815C89.1615 62.9948 89.1288 63.2073 89.2105 63.4361C89.2922 63.6975 89.5699 63.8446 89.9457 63.8283C90.1417 63.8283 90.3214 63.8119 90.5828 63.7956C90.4031 63.9917 90.2724 64.1224 90.1581 64.2695C89.8967 64.5964 89.8803 64.8905 90.0764 65.1356C90.2888 65.3808 90.5665 65.4298 90.9423 65.2664C91.1873 65.1683 91.3344 64.9886 91.3507 64.7107C91.367 64.531 91.367 64.3676 91.3834 64.1878C91.5631 64.2041 91.6284 64.3349 91.7428 64.4002C92.0695 64.5964 92.4453 64.5963 92.7393 64.3839C92.9191 64.2532 93.0171 64.0897 93.0007 63.8609C93.0007 63.6158 92.8537 63.4524 92.625 63.3543Z" fill="#612F31"/>
<path d="M90.2071 68.4041C89.962 68.3714 89.7006 68.3387 89.4066 68.3061C89.6516 68.1099 89.8477 67.9465 90.0437 67.7831C90.2561 67.587 90.3214 67.3419 90.2071 67.064C90.0764 66.7862 89.8477 66.7045 89.5536 66.7208C89.1452 66.7535 88.9491 66.9006 88.8348 67.3092C88.8021 67.4563 88.7694 67.6033 88.7204 67.7668C88.5734 67.636 88.459 67.5216 88.3283 67.4236C88.0506 67.2275 87.6421 67.2438 87.3807 67.4236C87.152 67.587 87.0867 67.8158 87.152 68.0773C87.2174 68.3714 87.4788 68.5348 87.8872 68.5512C88.0669 68.5512 88.2303 68.5512 88.4427 68.5512C88.3446 68.7636 88.1976 68.78 88.0996 68.8617C88.0016 68.9434 87.8872 69.0251 87.8055 69.1232C87.6258 69.3193 87.5441 69.5317 87.6748 69.7932C87.7892 70.0383 88.0016 70.1364 88.263 70.1364C88.7041 70.1364 88.9654 69.9403 89.0635 69.499C89.0961 69.3683 89.0961 69.2212 89.1452 68.9434C89.3575 69.2049 89.4719 69.3846 89.6353 69.5154C89.864 69.7115 90.2561 69.6788 90.5338 69.499C90.7462 69.352 90.8279 69.1558 90.7789 68.9107C90.7462 68.5839 90.5011 68.4531 90.2071 68.4041Z" fill="#622F32"/>
<path d="M84.342 77.5558C84.2277 77.5068 84.097 77.4741 83.9663 77.4414C83.8519 77.4087 83.6886 77.4577 83.6395 77.278C83.9173 77.1472 84.244 77.0655 84.4727 76.8367C84.8322 76.4935 84.7178 75.9706 84.244 75.8072C83.8519 75.6764 83.4925 75.8235 83.2965 76.183C83.2148 76.3301 83.2475 76.5262 83.0677 76.6243C82.9534 76.4609 82.839 76.2811 82.7083 76.1504C82.4796 75.9216 82.1692 75.8725 81.8751 75.9869C81.6301 76.085 81.4994 76.2811 81.5157 76.5589C81.532 76.8694 81.6791 77.0655 82.0548 77.1799C82.2509 77.2453 82.4469 77.278 82.7247 77.3433C82.3979 77.5395 82.0712 77.5721 81.8261 77.8173C81.6464 77.997 81.5811 78.1931 81.6627 78.4219C81.7444 78.6507 81.9078 78.7978 82.1529 78.8468C82.5123 78.9285 82.8063 78.7815 83.0187 78.4546C83.1168 78.3075 83.0841 78.0787 83.2801 77.9807C83.3945 78.1605 83.4925 78.3402 83.6232 78.4873C83.8193 78.7324 84.2113 78.7978 84.5054 78.6671C84.7341 78.569 84.8648 78.4056 84.8812 78.1605C84.8812 77.9317 84.7178 77.7029 84.342 77.5558Z" fill="#622F32"/>
<path d="M2.36206 37.7786C2.5091 37.7786 2.65613 37.7623 2.8195 37.746C2.72148 37.9257 2.60712 38.0728 2.54177 38.2362C2.41107 38.514 2.49276 38.8899 2.72148 39.1187C2.91753 39.3148 3.22793 39.3638 3.44032 39.2331C3.66904 39.1024 3.81607 38.7919 3.76706 38.4487C3.73439 38.2199 3.66904 37.9911 3.60369 37.7133C3.89776 37.9257 4.11014 38.1545 4.42055 38.2853C4.84531 38.4487 5.25374 38.2035 5.28642 37.7786C5.31909 37.3864 4.99235 37.0106 4.60026 36.9615C4.43688 36.9452 4.27351 37.0432 4.0938 36.9615C4.17549 36.8144 4.27351 36.6837 4.33886 36.5366C4.45322 36.2588 4.37154 35.8993 4.11014 35.6705C3.9141 35.4907 3.68537 35.4417 3.44032 35.5561C3.12991 35.7032 3.0809 35.9646 3.09724 36.2588C3.11357 36.5366 3.17892 36.7981 3.22793 37.1413C3.06456 36.9942 2.9502 36.8798 2.8195 36.7818C2.68881 36.6837 2.55811 36.5693 2.39474 36.5039C2.13334 36.3895 1.88828 36.3895 1.6759 36.6183C1.47985 36.8144 1.47985 37.0596 1.57788 37.3047C1.70858 37.6316 1.96997 37.795 2.36206 37.7786Z" fill="#622F32"/>
<path d="M87.5278 73.0617C87.2827 73.0126 87.0377 72.9799 86.7273 72.9146C86.9723 72.7512 87.1684 72.6531 87.3481 72.5224C87.7075 72.2445 87.7892 71.9994 87.6585 71.7052C87.5114 71.3947 87.201 71.264 86.7926 71.3621C86.5312 71.4274 86.3842 71.6072 86.2862 71.836C86.2208 71.9831 86.2535 72.1628 86.1391 72.3099C85.9921 72.2772 85.9431 72.1301 85.8777 72.0484C85.649 71.787 85.3713 71.7543 85.0609 71.8033C84.8158 71.836 84.6524 71.9831 84.5871 72.2119C84.5217 72.4733 84.5871 72.6858 84.7995 72.8655C84.9628 72.9963 85.1589 73.0453 85.3713 73.0617C85.5183 73.078 85.6817 73.078 85.9267 73.0943C85.7144 73.2251 85.6 73.2905 85.4856 73.3558C85.3713 73.4212 85.2732 73.5029 85.1752 73.5846C84.9628 73.7807 84.8648 73.9932 84.9792 74.2873C85.0935 74.5651 85.3059 74.6632 85.6653 74.6469C86.0084 74.6305 86.2208 74.4671 86.3352 74.1566C86.3842 74.0095 86.4169 73.8461 86.4822 73.601C86.6619 73.8134 86.7763 73.9932 86.9396 74.1239C87.152 74.32 87.5605 74.3364 87.8382 74.1729C88.0506 74.0422 88.1649 73.8624 88.1486 73.6173C88.1159 73.3558 87.9035 73.1434 87.5278 73.0617Z" fill="#612F32"/>
<path d="M81.1563 80.285C81.1399 80.0071 80.9766 79.8437 80.7152 79.762C80.3558 79.6313 80.0617 79.713 79.833 80.0562C79.7349 80.2196 79.6533 80.383 79.5552 80.5628C79.4409 80.3503 79.3592 80.1542 79.2285 80.0071C79.0161 79.7457 78.7384 79.664 78.4116 79.7457C78.1502 79.811 77.9869 79.9908 77.9705 80.2686C77.9379 80.5955 78.1502 80.7752 78.3953 80.9386C78.5913 81.053 78.8364 81.053 78.9998 81.2165C78.7711 81.2982 78.5423 81.3635 78.3463 81.4616C78.0195 81.6087 77.8725 81.8865 77.9542 82.1807C78.0195 82.4748 78.2809 82.6382 78.6404 82.6546C78.9344 82.6709 79.1305 82.5402 79.2938 82.3114C79.3919 82.148 79.4245 81.9519 79.5879 81.8211C79.6859 82.0663 79.7676 82.3114 79.9473 82.5075C80.1597 82.7363 80.4375 82.769 80.7315 82.7036C80.9929 82.6382 81.1563 82.4421 81.1726 82.1807C81.189 81.8865 81.0256 81.6741 80.7642 81.5597C80.5028 81.4289 80.2087 81.3309 79.931 81.2328C80.2414 81.0857 80.5845 81.0694 80.8622 80.8733C81.0583 80.7099 81.1726 80.5301 81.1563 80.285Z" fill="#612F32"/>
<path d="M1.41451 43.0899C1.57788 43.0735 1.72491 42.9265 1.88828 43.0409C1.8066 43.237 1.70858 43.4167 1.65956 43.6128C1.57788 43.9397 1.74125 44.2012 1.98631 44.3973C2.18235 44.5607 2.39474 44.5444 2.62346 44.43C2.91753 44.2665 2.98288 44.0051 2.91753 43.7109C2.86852 43.4658 2.78683 43.2043 2.68881 42.8774C3.01555 43.0899 3.26061 43.3023 3.58735 43.3841C3.96311 43.4658 4.32252 43.2043 4.3552 42.8448C4.38787 42.4689 4.02846 42.0603 3.63636 42.0603C3.45665 42.0603 3.27694 42.093 3.06456 42.1094C3.14625 41.9459 3.22793 41.8152 3.27694 41.6845C3.39131 41.3739 3.30962 41.0798 3.03189 40.8347C2.8195 40.6549 2.60712 40.5895 2.36206 40.7366C2.10067 40.8837 1.98631 41.1288 2.05166 41.5047C2.10067 41.7662 2.18235 42.0113 2.26404 42.3381C1.92096 42.1094 1.6759 41.8806 1.34916 41.7825C1.08776 41.7008 0.859042 41.7498 0.679333 41.9459C0.499624 42.1584 0.499624 42.3872 0.597647 42.6323C0.777356 42.9918 1.02241 43.1226 1.41451 43.0899Z" fill="#623032"/>
<path d="M1.1041 48.4992C1.28381 48.4828 1.43084 48.3358 1.64323 48.3848C1.57788 48.5646 1.49619 48.7443 1.46352 48.9077C1.39817 49.2019 1.56154 49.5778 1.82294 49.7249C2.03532 49.8556 2.2477 49.8393 2.46009 49.7085C2.72148 49.5451 2.80317 49.3 2.70514 48.9077C2.6398 48.6626 2.52543 48.4338 2.41107 48.1233C2.73782 48.3358 2.99921 48.4828 3.29328 48.5319C3.76706 48.6299 4.14282 48.2541 4.04479 47.8292C3.96311 47.4533 3.58735 47.2082 3.2116 47.2408C3.04822 47.2572 2.91753 47.4043 2.72148 47.3225C2.78683 47.1591 2.85218 47.012 2.88485 46.8486C2.98288 46.5054 2.77049 46.2766 2.54177 46.0805C2.34573 45.9008 2.08433 45.9171 1.85561 46.0642C1.62689 46.2113 1.5452 46.4727 1.62689 46.8159C1.70858 47.0938 1.8066 47.3716 1.92096 47.6821C1.56154 47.5023 1.28381 47.2735 0.924391 47.2082C0.679333 47.1755 0.483287 47.2408 0.336252 47.4369C0.189218 47.6331 0.189218 47.8455 0.287241 48.0743C0.46695 48.4338 0.712008 48.5646 1.1041 48.4992Z" fill="#612F32"/>
<path d="M77.219 83.7822C77.1863 83.5371 77.0393 83.3736 76.8106 83.2756C76.4348 83.1285 76.1571 83.1775 75.912 83.488C75.7977 83.6351 75.6997 83.8149 75.5853 83.9946C75.4873 83.7659 75.4219 83.5534 75.2912 83.3736C75.1115 83.0958 74.8175 82.9978 74.507 83.0631C74.262 83.1122 74.115 83.2592 74.0496 83.5044C73.9679 83.8312 74.1476 84.0273 74.3764 84.2234C74.5561 84.3705 74.8338 84.3705 75.0298 84.6157C74.7031 84.6483 74.4254 84.681 74.1803 84.8118C73.9516 84.9425 73.8209 85.1386 73.8536 85.4164C73.8699 85.6616 74.0169 85.825 74.2457 85.923C74.5724 86.0701 74.8665 86.0211 75.1115 85.7433C75.2422 85.5962 75.3402 85.4001 75.5036 85.1713C75.5853 85.4655 75.6343 85.7269 75.7977 85.9394C75.9937 86.2009 76.2715 86.2499 76.5492 86.2009C76.8106 86.1518 76.9903 85.9884 77.023 85.7106C77.072 85.4164 76.925 85.204 76.6799 85.0569C76.4512 84.9262 76.2061 84.8118 75.9284 84.6647C76.2551 84.5176 76.5982 84.5339 76.8596 84.3705C77.1047 84.2398 77.2517 84.06 77.219 83.7822Z" fill="#612F32"/>
<path d="M67.8088 88.9464C67.4984 88.7666 67.3024 88.7993 66.9919 89.0608C66.8449 89.1752 66.7306 89.3059 66.5672 89.453C66.5182 89.2078 66.5018 88.9954 66.4365 88.783C66.3548 88.4888 66.0607 88.2927 65.7667 88.2763C65.4889 88.26 65.3092 88.4071 65.1785 88.6359C65.0151 88.9464 65.1785 89.1752 65.3746 89.3876C65.5216 89.551 65.685 89.6818 65.881 89.8452C65.685 89.8452 65.5543 89.8452 65.4236 89.8452C65.2929 89.8452 65.1622 89.8452 65.0315 89.8779C64.7374 89.9596 64.525 90.2047 64.525 90.4826C64.525 90.7604 64.7211 90.9892 65.0315 91.0872C65.2765 91.1689 65.5216 91.1362 65.7176 90.9565C65.8647 90.8421 65.9954 90.7113 66.1751 90.5316C66.2241 90.8421 66.1751 91.0872 66.2731 91.316C66.4038 91.5938 66.6652 91.7736 66.9756 91.7736C67.2207 91.7736 67.4167 91.6592 67.5147 91.4304C67.6454 91.1362 67.5474 90.8748 67.3187 90.6787C67.1063 90.4989 66.8939 90.3191 66.6489 90.0903C66.9756 90.0903 67.2207 90.172 67.4657 90.123C67.7761 90.0576 68.0539 89.9759 68.1355 89.6164C68.2172 89.3549 68.1029 89.1098 67.8088 88.9464Z" fill="#612F32"/>
<path d="M71.6644 86.495C71.501 86.6421 71.354 86.8055 71.2069 86.9853C71.0599 86.7892 71.1089 86.544 70.9946 86.3479C70.8312 86.0538 70.5698 85.923 70.2594 85.923C69.998 85.923 69.851 86.1028 69.7529 86.3153C69.6222 86.5441 69.7203 86.8219 69.9817 87.067C70.1614 87.2304 70.3574 87.3448 70.6351 87.5573C70.243 87.5246 69.9653 87.5246 69.7039 87.6226C69.4425 87.7044 69.2955 87.8841 69.2628 88.1619C69.2301 88.4398 69.3772 88.6195 69.6059 88.7503C69.9 88.9137 70.2104 88.8647 70.4881 88.6359C70.6351 88.5051 70.7168 88.2927 70.9292 88.2273C70.9455 88.4888 70.9619 88.7012 71.0599 88.9137C71.2069 89.2242 71.4683 89.3549 71.7787 89.3386C72.0401 89.3386 72.2362 89.2078 72.3342 88.9464C72.4486 88.6195 72.2852 88.4071 72.0565 88.211C71.8604 88.0475 71.648 87.9168 71.3867 87.7207C71.7624 87.6717 72.0565 87.688 72.3505 87.59C72.759 87.4429 72.9223 87.018 72.6936 86.6911C72.4812 86.3316 71.9748 86.2335 71.6644 86.495Z" fill="#612F32"/>
<path d="M2.08433 53.7124C2.03532 53.9412 1.98631 54.1209 1.96997 54.3007C1.92096 54.6439 2.08433 54.9381 2.39474 55.0851C2.63979 55.2159 2.86852 55.1668 3.06456 54.9871C3.29328 54.7746 3.32596 54.5295 3.14625 54.17C3.03189 53.9412 2.90119 53.7451 2.75415 53.4836C2.91753 53.5326 3.04822 53.5653 3.17892 53.598C3.30962 53.6307 3.42398 53.6797 3.55468 53.696C3.76706 53.7124 3.99578 53.696 4.15915 53.4999C4.3552 53.2711 4.38787 53.0424 4.24084 52.7809C4.04479 52.4704 3.75072 52.3396 3.42398 52.4377C3.22793 52.5031 3.06456 52.6011 2.83584 52.6992C2.88485 52.5031 2.93386 52.3396 2.96654 52.1762C3.01555 51.8494 2.85218 51.5715 2.54177 51.3918C2.29671 51.261 2.06799 51.2937 1.87195 51.4735C1.62689 51.7023 1.62689 51.9638 1.75759 52.2416C1.87195 52.4867 2.00264 52.7155 2.14968 53.026C1.90462 52.9443 1.75759 52.8953 1.59422 52.8299C1.43084 52.7645 1.26747 52.7482 1.1041 52.7482C0.630321 52.7809 0.385264 53.2221 0.597647 53.6307C0.793693 53.9739 1.13677 54.1209 1.51253 53.9739C1.69224 53.9248 1.87195 53.8268 2.08433 53.7124Z" fill="#612F32"/>
<path d="M2.99921 59.6773C3.01555 60.0042 3.22793 60.2003 3.48933 60.2983C3.73439 60.3964 3.96311 60.2983 4.14282 60.0859C4.33886 59.8407 4.30619 59.5956 4.15915 59.3505C4.01212 59.1217 3.84875 58.8929 3.6527 58.6314C3.84875 58.6804 3.97944 58.7131 4.12648 58.7295C4.28985 58.7458 4.46956 58.7622 4.63293 58.7458C5.0577 58.7131 5.30276 58.3373 5.15572 57.9614C5.02502 57.6019 4.58392 57.4057 4.24084 57.5528C4.06113 57.6345 3.89776 57.7489 3.71805 57.847C3.66904 57.6182 3.76706 57.4384 3.75072 57.2587C3.73439 56.9645 3.522 56.6867 3.22793 56.5886C2.99921 56.5233 2.78683 56.5559 2.60712 56.7357C2.41107 56.9482 2.39474 57.1769 2.55811 57.5201C2.67247 57.7816 2.88485 57.9941 3.06456 58.2392C2.86851 58.2882 2.73782 58.1738 2.59078 58.1575C2.44375 58.1411 2.29671 58.0921 2.14968 58.0758C1.8066 58.0594 1.52887 58.2392 1.46352 58.5334C1.38183 58.8275 1.57788 59.1871 1.88828 59.3014C2.117 59.3995 2.32939 59.3668 2.52543 59.2361C2.68881 59.1544 2.80317 58.9909 2.98288 58.9746C2.99921 59.2361 2.98287 59.4649 2.99921 59.6773Z" fill="#612F32"/>
<path d="M5.74386 65.0866C5.92357 64.8742 5.90723 64.5964 5.71118 64.3185C5.56415 64.1061 5.38444 63.9263 5.22107 63.7139C5.4988 63.7139 5.74386 63.7139 5.97258 63.7139C6.332 63.6975 6.54438 63.5504 6.62607 63.289C6.70775 63.0275 6.60973 62.766 6.38101 62.6026C6.13595 62.4228 5.87456 62.4065 5.59682 62.5863C5.43345 62.7006 5.27008 62.8314 5.09037 62.9785C5.0577 62.7006 5.18839 62.4555 5.10671 62.194C5.00869 61.9162 4.82898 61.7528 4.55125 61.6874C4.30619 61.6221 4.11014 61.7201 3.96311 61.8999C3.7834 62.145 3.83241 62.3901 3.96311 62.6353C4.0938 62.8804 4.32252 63.0602 4.55125 63.3543C4.12648 63.3707 3.83241 63.2073 3.50567 63.289C3.12991 63.3707 2.90119 63.6812 2.98288 64.008C3.0809 64.4002 3.45665 64.629 3.83241 64.5146C4.01212 64.4656 4.11014 64.3349 4.25718 64.2532C4.37154 64.1878 4.42055 64.008 4.60026 64.0244C4.58392 64.1551 4.56758 64.2695 4.56758 64.3839C4.56758 64.4983 4.56758 64.6127 4.58392 64.7271C4.63293 65.0539 4.86165 65.2827 5.15572 65.3318C5.40078 65.3808 5.58049 65.2827 5.74386 65.0866Z" fill="#612F32"/>
<path d="M8.12909 69.8586C8.25978 69.5971 8.14542 69.3846 7.96571 69.1885C7.76967 68.9924 7.55728 68.829 7.27955 68.5839C7.58996 68.5675 7.81868 68.5675 8.03106 68.5348C8.32513 68.4858 8.57019 68.3551 8.63554 68.0282C8.70089 67.7668 8.60286 67.5543 8.39048 67.3909C8.1781 67.2275 7.81868 67.2275 7.6063 67.4072C7.42659 67.5543 7.26322 67.7341 7.08351 67.9138C7.06717 67.7014 7.06717 67.538 7.03449 67.3745C6.96915 66.9987 6.74043 66.7862 6.41368 66.7535C6.15229 66.7208 5.9399 66.8352 5.80921 67.064C5.66217 67.3255 5.71118 67.5706 6.00525 67.8648C6.18496 68.0446 6.36467 68.208 6.59339 68.4041C6.26665 68.4204 6.00525 68.4204 5.74386 68.4695C5.44979 68.5185 5.22107 68.6656 5.15572 68.9924C5.10671 69.2376 5.25374 69.5154 5.51514 69.6461C5.77653 69.7769 6.03793 69.7442 6.28298 69.5154C6.46269 69.352 6.60973 69.1722 6.80577 68.9597C6.83845 69.2866 6.78944 69.5644 6.92013 69.8259C7.06717 70.071 7.26322 70.2508 7.55728 70.2344C7.81868 70.2344 8.01473 70.1037 8.12909 69.8586Z" fill="#612F32"/>
<path d="M11.2495 72.2772C11.2168 71.9994 10.9718 71.7706 10.6777 71.7379C10.4326 71.7052 10.2366 71.8033 10.0895 71.9831C9.95885 72.1302 9.84449 72.2936 9.69746 72.506C9.63211 72.2445 9.66478 72.0158 9.5831 71.8033C9.48507 71.5255 9.30536 71.3621 9.01129 71.3457C8.71723 71.313 8.47217 71.4601 8.37414 71.7052C8.25978 71.9831 8.34147 72.2282 8.55385 72.408C8.7499 72.5877 8.97862 72.7512 9.24002 72.9636C9.02763 72.9963 8.89693 73.029 8.7499 73.0453C8.58653 73.0617 8.42316 73.078 8.25978 73.1597C7.88403 73.3231 7.75333 73.6663 7.93304 73.9768C8.11275 74.3037 8.53752 74.4181 8.84792 74.2056C9.01129 74.1076 9.12566 73.9605 9.24002 73.8134C9.30536 73.7154 9.30536 73.5519 9.50141 73.5683C9.55042 73.8297 9.53408 74.0912 9.64844 74.32C9.77914 74.5815 9.99153 74.7286 10.2693 74.7122C10.5307 74.6959 10.7267 74.5488 10.8247 74.3037C10.9554 73.9932 10.7757 73.7644 10.5797 73.5519C10.4 73.3722 10.1222 73.3068 9.94251 73.0617C10.2856 73.078 10.5633 73.029 10.8247 72.9309C11.1351 72.8165 11.2822 72.5551 11.2495 72.2772Z" fill="#612F32"/>
<path d="M30.6744 89.8942C30.4457 89.8779 30.217 89.8779 29.9066 89.8615C30.2006 89.6001 30.462 89.4366 30.5927 89.1588C30.7561 88.832 30.609 88.4398 30.2986 88.2927C29.9719 88.1456 29.5635 88.3417 29.4654 88.7176C29.4328 88.8647 29.4164 89.0117 29.4001 89.1588C29.3838 89.2732 29.4491 89.404 29.3347 89.5184C29.1877 89.3549 29.0734 89.1915 28.959 89.0608C28.7139 88.8156 28.4689 88.7503 28.1911 88.8647C27.9461 88.9791 27.7827 89.2569 27.8317 89.502C27.8971 89.7962 28.0604 90.0086 28.3872 90.0577C28.6322 90.1067 28.861 90.123 29.2041 90.172C28.9263 90.3845 28.7139 90.5479 28.5669 90.7604C28.4035 91.0055 28.3872 91.2506 28.5342 91.4958C28.6486 91.7082 28.861 91.8226 29.106 91.7899C29.4001 91.7573 29.5635 91.5611 29.6452 91.2833C29.7432 90.9728 29.6778 90.6787 29.6778 90.3191C29.9392 90.5806 30.0863 90.8748 30.364 91.0382C30.6254 91.2016 30.8704 91.2016 31.0992 91.0218C31.3115 90.8421 31.3932 90.4989 31.2789 90.2538C31.1482 90.0413 30.9521 89.9269 30.6744 89.8942Z" fill="#623032"/>
<path d="M13.9451 75.9542C13.7164 75.8398 13.4387 75.9052 13.2263 76.1177C13.0302 76.3138 12.9649 76.5916 12.7688 76.8857C12.7035 76.5589 12.6708 76.2974 12.5238 76.085C12.3277 75.7908 12.05 75.6928 11.7559 75.8072C11.2985 75.9869 11.2168 76.4935 11.5762 76.8531C11.805 77.0655 12.1154 77.1636 12.4748 77.3924C12.0663 77.4577 11.7723 77.5231 11.5272 77.6702C11.2985 77.8009 11.1515 77.997 11.1678 78.2585C11.1841 78.52 11.3475 78.7161 11.5926 78.7978C11.8376 78.8795 12.0663 78.8141 12.2624 78.618C12.3931 78.5036 12.4584 78.3402 12.5401 78.2095C12.6055 78.0951 12.5728 77.899 12.7852 77.8826C12.8342 78.1278 12.8832 78.3566 12.9976 78.5853C13.1609 78.8795 13.3897 78.9939 13.6837 78.9449C13.9451 78.8958 14.1248 78.7324 14.1902 78.4709C14.2555 78.1768 14.1248 77.9643 13.8961 77.8009C13.6674 77.6375 13.3897 77.5721 13.1119 77.4087C13.2753 77.3597 13.3897 77.327 13.504 77.278C13.6347 77.2289 13.7491 77.1963 13.8798 77.1472C14.0922 77.0492 14.2719 76.9184 14.3045 76.6733C14.3536 76.3628 14.2065 76.085 13.9451 75.9542Z" fill="#612F32"/>
<path d="M25.8713 87.59C25.6752 87.5736 25.4792 87.5573 25.2178 87.5246C25.4628 87.3121 25.6752 87.1487 25.8549 86.969C26.0183 86.8055 26.1327 86.6094 26.051 86.3643C25.9693 86.1192 25.8223 85.9394 25.5609 85.8904C25.2831 85.8413 25.0544 85.9721 24.9237 86.2335C24.7767 86.5114 24.793 86.8219 24.7603 87.1814C24.5806 86.9199 24.4499 86.7238 24.3029 86.5604C24.0742 86.2989 23.7964 86.2172 23.5514 86.3479C23.3227 86.4623 23.1756 86.6584 23.1756 86.9363C23.1756 87.2304 23.339 87.4429 23.6657 87.5409C23.9108 87.6226 24.1722 87.639 24.4826 87.7044C24.1885 87.9331 23.9108 88.0639 23.7311 88.309C23.5024 88.6195 23.5841 89.0608 23.8945 89.2405C24.1885 89.4203 24.5643 89.3059 24.744 88.9627C24.8584 88.7666 24.8747 88.5378 24.891 88.309C24.891 88.1946 24.8257 88.0639 24.9727 87.9495C25.0707 88.0966 25.1361 88.2273 25.2178 88.3417C25.3158 88.4724 25.4302 88.6032 25.5609 88.7012C25.8223 88.8973 26.1653 88.8647 26.3614 88.6195C26.5738 88.3907 26.5901 88.0802 26.4267 87.8514C26.296 87.7207 26.1 87.6063 25.8713 87.59Z" fill="#612F32"/>
<path d="M17.474 81.4943C17.2616 81.3799 17.0165 81.3145 16.7878 81.2165C16.9022 81.053 17.0819 81.0694 17.1962 81.004C17.3269 80.9223 17.474 80.8733 17.5883 80.7752C17.9641 80.4811 17.9477 80.0398 17.572 79.7783C17.2942 79.5822 16.9185 79.6639 16.6898 79.9744C16.5264 80.2032 16.4937 80.4811 16.363 80.7425C16.265 80.4811 16.1833 80.2359 16.0526 80.0071C15.9219 79.762 15.6932 79.6313 15.3828 79.6966C15.1214 79.7457 14.958 79.9254 14.8763 80.1706C14.7947 80.4647 14.958 80.6772 15.1867 80.8406C15.4481 81.0367 15.7585 81.1021 16.0853 81.2165C15.8892 81.2982 15.6932 81.3635 15.4972 81.4453C15.3011 81.5106 15.1214 81.6087 14.9907 81.7721C14.8437 81.9682 14.7783 82.1643 14.909 82.3931C15.0397 82.6382 15.2358 82.7526 15.4972 82.7363C15.7749 82.72 15.9546 82.5729 16.069 82.3441C16.1833 82.1316 16.265 81.9028 16.3794 81.625C16.4937 81.8865 16.5591 82.0989 16.6571 82.2951C16.7878 82.5565 17.0002 82.7363 17.3269 82.72C17.5883 82.6873 17.8334 82.4585 17.8824 82.2297C17.9477 81.9192 17.8334 81.674 17.474 81.4943Z" fill="#612F32"/>
<path d="M21.7216 84.8935C21.5583 84.7627 21.3622 84.7137 21.1498 84.6647C21.0191 84.632 20.8721 84.6647 20.7577 84.5176C20.9701 84.4032 21.1498 84.3215 21.3295 84.2071C21.6726 83.9783 21.8033 83.7005 21.7216 83.4063C21.6399 83.1449 21.4439 83.0141 21.1825 82.9814C20.8884 82.9487 20.627 83.1449 20.4963 83.5207C20.431 83.7005 20.3983 83.9129 20.3166 84.1581C20.2513 84.011 20.2023 83.8966 20.1533 83.7985C20.1042 83.6842 20.0389 83.5534 19.9735 83.4554C19.7938 83.1775 19.5324 83.0795 19.2547 83.1612C18.9933 83.2429 18.8299 83.4227 18.7973 83.6842C18.7646 83.9783 18.9116 84.1744 19.1567 84.3215C19.4017 84.4686 19.6795 84.5013 20.0716 84.5993C19.7285 84.7954 19.4671 84.8608 19.2547 85.0242C19.0097 85.2203 18.8953 85.4491 18.977 85.7596C19.0587 86.0211 19.2384 86.1682 19.4998 86.1845C19.8265 86.2009 20.0389 86.0211 20.1533 85.7433C20.2513 85.4981 20.3166 85.253 20.3983 84.9752C20.5944 85.253 20.6597 85.5799 20.8884 85.8086C21.1662 86.0538 21.5419 86.0374 21.787 85.7596C22.0484 85.4981 22.0157 85.1223 21.7216 84.8935Z" fill="#612F32"/>
</svg>
