<svg width="78" height="87" viewBox="0 0 78 87" fill="none" xmlns="http://www.w3.org/2000/svg">
<path d="M70.2448 58.7504C69.6894 58.7504 69.2483 59.208 69.2646 59.7636C69.2809 60.2866 69.722 60.7115 70.2612 60.6951C70.8003 60.6788 71.2087 60.2539 71.2087 59.7146C71.2087 59.1917 70.7676 58.7504 70.2448 58.7504Z" fill="#161719"/>
<path d="M8.5393 58.7014C8.01651 58.7177 7.57541 59.1426 7.59175 59.6819C7.59175 60.2049 8.04919 60.6461 8.55564 60.6461C9.06209 60.6461 9.53587 60.2049 9.53587 59.6819C9.56855 59.159 9.09477 58.7014 8.5393 58.7014Z" fill="#161719"/>
<path d="M36.4105 2.89245C36.4105 3.25198 36.4432 3.61151 36.4269 3.9547C36.4105 4.23252 36.5739 4.23252 36.7863 4.24886C37.0313 4.2652 37.113 4.16715 37.113 3.92201C37.0967 3.57883 37.0804 3.25198 37.0967 2.90879C37.0967 2.63097 37.0477 2.33681 37.1457 1.97728C37.3581 2.30413 37.5215 2.5656 37.6848 2.81074C37.9462 3.21929 38.2076 3.62785 38.469 4.03641C38.6487 4.31423 38.9101 4.19983 39.1388 4.18349C39.3839 4.16715 39.3022 3.92201 39.3022 3.77493C39.2859 2.81074 39.2695 1.86288 39.2369 0.898689C39.2369 0.800635 39.2695 0.669898 39.1225 0.620871C38.8284 0.490133 38.567 0.653555 38.567 0.980401C38.567 1.12748 38.5834 1.27456 38.5834 1.43799C38.5834 1.89557 38.5834 2.35315 38.5834 2.81074C38.5507 2.82708 38.518 2.82708 38.4854 2.84342C38.1913 2.38584 37.9136 1.9446 37.6195 1.48701C37.4725 1.25822 37.3418 1.04577 37.1947 0.83332C37.0967 0.686239 36.6883 0.62087 36.5249 0.702582C36.3452 0.784293 36.4105 0.96406 36.4105 1.0948C36.3779 1.69946 36.3942 2.30413 36.4105 2.89245Z" fill="#161719"/>
<path d="M47.6015 5.21306C47.6342 5.2294 47.6669 5.19671 47.7159 5.19671C47.9119 4.77181 47.9282 4.2652 48.1406 3.8403C48.5817 3.87299 48.7941 4.11812 48.9085 4.51034C48.9738 4.73913 49.0555 4.96792 49.1372 5.19671C49.3332 5.76869 49.3986 5.80138 50.1011 5.78504C49.9214 5.21306 49.807 4.62473 49.4149 4.0691C49.6763 4.03641 49.8724 4.05275 50.0357 3.9547C50.3952 3.75859 50.5585 3.4154 50.5585 3.02319C50.5585 2.63097 50.3462 2.35315 49.9867 2.20607C49.4476 1.97728 48.8758 1.89557 48.3203 1.7158C48.0426 1.61775 47.9282 1.68312 47.8629 1.97728C47.6505 2.82708 47.4218 3.67688 47.1767 4.52668C46.9807 5.19671 47.046 5.06598 47.6015 5.21306ZM48.3857 2.74537C48.451 2.45121 48.5654 2.3695 48.8431 2.46755C49.0718 2.54926 49.3169 2.59829 49.5293 2.68C49.758 2.76171 49.8234 2.95782 49.7743 3.18661C49.7253 3.43175 49.562 3.51346 49.3006 3.5298C49.1209 3.49712 48.9248 3.44809 48.7288 3.39906C48.2387 3.25198 48.2713 3.25198 48.3857 2.74537Z" fill="#151618"/>
<path d="M4.35698 43.5684C4.55303 43.5521 4.61838 43.4867 4.60204 43.3069C4.58571 42.9311 4.55303 42.8984 4.17728 42.9147C3.58914 42.9474 3.01733 43.0455 2.31484 42.9964C2.91931 42.5552 3.42577 42.1466 3.98123 41.8034C4.406 41.542 4.52036 41.2315 4.34065 40.7412C3.26239 40.8229 2.15147 40.9046 1.05687 40.97C0.975188 40.97 0.877165 40.9863 0.860828 41.0517C0.844491 41.2151 0.828154 41.3949 0.877166 41.542C0.926177 41.7054 1.10589 41.64 1.22025 41.6237C1.80838 41.5583 2.41286 41.5256 3.06635 41.5093C2.98466 41.7054 2.85396 41.7544 2.75594 41.8198C2.23315 42.1957 1.7267 42.5715 1.20391 42.9311C0.90984 43.1272 0.958851 43.3723 1.00786 43.6174C1.05687 43.8953 1.30193 43.7809 1.4653 43.7645C2.44553 43.7155 3.40943 43.6338 4.35698 43.5684Z" fill="#151618"/>
<path d="M50.9833 6.20994C51.1303 6.25896 51.2937 6.40604 51.3917 6.14457C51.4571 5.9648 51.5224 5.80138 51.6041 5.62161C51.7838 5.21306 51.8982 4.75547 52.1759 4.2652C52.3229 5.01695 52.4863 5.63796 52.568 6.29165C52.617 6.78192 52.8294 7.0434 53.3685 7.07608C53.7606 6.06286 54.1527 5.03329 54.5448 4.00373C54.6101 3.82396 54.5448 3.75859 54.4141 3.70957C54.2834 3.67688 54.1854 3.57883 53.9893 3.61151C53.7443 4.24886 53.4829 4.9189 53.2215 5.58893C53.0908 5.5399 53.0908 5.45819 53.0745 5.39282C52.9601 4.78816 52.7967 4.18349 52.7477 3.56248C52.6987 3.05587 52.4536 2.87611 51.9799 2.82708C51.5878 3.8403 51.1957 4.86987 50.8036 5.89943C50.7056 6.09554 50.8199 6.16091 50.9833 6.20994Z" fill="#151618"/>
<path d="M2.80495 28.174C3.7035 28.5008 4.61838 28.795 5.51692 29.1218C5.76198 29.2035 5.84367 29.1055 5.92535 28.893C6.00704 28.6642 5.97437 28.5499 5.74565 28.4681C5.15751 28.272 4.58571 28.0759 3.99757 27.8635C3.99757 27.8308 3.99757 27.7981 3.99757 27.7654C4.50402 27.651 5.01047 27.5366 5.53326 27.4222C5.81099 27.3569 6.08873 27.3078 6.35012 27.2261C6.64419 27.1444 6.64419 26.8503 6.6932 26.6378C6.74221 26.4417 6.51349 26.4417 6.3828 26.409C5.89268 26.2292 5.38623 26.0658 4.89611 25.8861C4.48768 25.739 4.07925 25.6246 3.67082 25.4612C3.37676 25.3468 3.32774 25.4938 3.24606 25.7063C3.1317 25.9678 3.26239 26.0331 3.47478 26.0985C3.8342 26.2129 4.19361 26.3273 4.53669 26.458C4.76542 26.5398 5.02681 26.5724 5.27187 26.8012C4.60204 26.9483 4.03024 27.079 3.4421 27.2098C3.24606 27.2588 3.03367 27.2915 2.83763 27.3405C2.52722 27.4222 2.54356 27.7164 2.49455 27.9288C2.44554 28.1413 2.69059 28.1413 2.80495 28.174Z" fill="#151618"/>
<path d="M75.1623 52.573C74.1984 52.1971 73.2345 51.8376 72.287 51.4617C72.1236 51.3964 72.0256 51.4291 71.9439 51.6088C71.7969 51.952 71.7969 51.9684 72.1726 52.1318C72.5647 52.2952 72.9731 52.4259 73.3816 52.6057C73.5286 52.6711 73.7247 52.6547 73.8063 52.8672C73.3326 52.9652 72.8588 53.0469 72.385 53.145C72.0909 53.194 71.7969 53.2594 71.5028 53.3084C71.1597 53.3738 71.1434 53.668 71.078 53.9131C71.029 54.1419 71.2904 54.1255 71.4211 54.1909C72.3033 54.5341 73.2019 54.8609 74.0841 55.2205C74.3781 55.3349 74.3945 55.1551 74.4598 54.9917C74.5415 54.8119 74.5742 54.6975 74.3291 54.6158C73.7083 54.387 73.1038 54.1419 72.4994 53.9131C72.4994 53.8804 72.4994 53.8641 72.4994 53.8314C73.2345 53.6843 73.9534 53.5209 74.7049 53.4228C75.0643 53.3738 75.1623 53.1777 75.2767 52.8999C75.342 52.7038 75.3094 52.622 75.1623 52.573Z" fill="#151618"/>
<path d="M64.5268 14.904C64.8046 15.2145 64.7882 15.3126 65.164 14.9531C65.5887 14.5608 66.0462 14.2013 66.5853 13.7274C66.3566 14.4955 66.1605 15.1328 65.9645 15.7702C65.7684 16.3912 65.7684 16.3912 66.2912 16.8488C67.1571 16.0807 68.0393 15.3289 68.9215 14.5608C68.8072 14.3647 68.6765 14.2177 68.4968 14.0706C67.9413 14.5445 67.4022 15.0184 66.8467 15.4924C66.9774 14.7896 67.1734 14.1359 67.3695 13.4659C67.5655 12.8612 67.5655 12.8612 67.0264 12.4527C66.1605 13.2044 65.2783 13.9725 64.4125 14.7406C64.4615 14.8223 64.4941 14.8713 64.5268 14.904Z" fill="#151618"/>
<path d="M18.4886 9.98501C18.8807 10.2628 19.3382 10.3119 19.7793 10.1811C20.4328 9.98501 20.9229 9.56011 21.2333 8.9391C21.2986 8.80836 21.364 8.67762 21.266 8.5142C21.0699 8.22004 20.8902 7.90954 20.6942 7.61537C20.6288 7.50098 20.5471 7.46829 20.4164 7.55C20.106 7.74611 19.7793 7.95856 19.4689 8.13833C19.3218 8.22004 19.2892 8.33444 19.4035 8.44883C19.4852 8.54689 19.5015 8.69397 19.6649 8.71031C19.7956 8.6286 19.91 8.54689 20.0407 8.48152C20.1387 8.43249 20.2367 8.31809 20.3347 8.43249C20.4328 8.53054 20.5471 8.66128 20.4818 8.8247C20.1877 9.51108 19.4689 9.7889 18.9297 9.41303C18.554 9.16789 18.3089 8.80836 18.2272 8.36712C18.0639 7.59903 18.7174 6.99437 19.4689 7.25584C19.6322 7.30487 19.7466 7.30487 19.861 7.19047C19.9427 7.09242 20.0407 7.01071 20.1877 6.89631C19.7139 6.43873 19.2238 6.40604 18.701 6.63484C17.9168 6.97802 17.4267 7.6644 17.5084 8.36712C17.5738 9.05349 17.9168 9.59279 18.4886 9.98501Z" fill="#151618"/>
<path d="M72.483 28.1086C72.6137 28.5335 72.7281 28.9748 72.8751 29.3997C73.1202 30.0697 73.5613 30.3802 74.2801 30.3802C74.7702 30.3802 75.4401 30.1514 75.7995 29.8572C76.2242 29.514 76.4366 29.0891 76.3059 28.5335C76.1752 28.0596 76.0609 27.602 75.9302 27.1281C75.8975 26.981 75.8322 26.9156 75.6524 26.9647C74.6559 27.2588 73.643 27.5366 72.6301 27.8308C72.4504 27.8635 72.434 27.9452 72.483 28.1086ZM73.79 28.223C74.2474 28.0759 74.7212 27.9615 75.195 27.8145C75.4074 27.7491 75.5054 27.8144 75.5544 28.0269C75.5871 28.1903 75.6361 28.3537 75.6688 28.5172C75.7341 28.8767 75.6034 29.1382 75.293 29.3179C74.9336 29.5304 74.5252 29.6121 74.1494 29.6611C73.7083 29.6611 73.4959 29.514 73.3652 29.0401C73.1529 28.2557 73.0712 28.4518 73.79 28.223Z" fill="#151618"/>
<path d="M8.84971 20.7219C9.74825 20.7382 10.5815 19.8884 10.5815 18.9406C10.5815 18.0254 9.58488 17.1102 8.58831 17.0776C7.72244 17.0612 6.87291 17.8947 6.84024 18.8098C6.8239 19.7577 7.82047 20.7055 8.84971 20.7219ZM7.72244 18.1888C7.98384 17.8293 8.35959 17.7149 8.8007 17.862C9.12744 17.9764 9.40517 18.1562 9.63389 18.4013C9.79727 18.5811 9.91163 18.7935 9.91163 19.055C9.91163 19.6923 9.30715 20.1499 8.68634 19.9701C8.32692 19.8721 8.00018 19.6596 7.77146 19.3655C7.46105 19.006 7.44471 18.5647 7.72244 18.1888Z" fill="#151618"/>
<path d="M61.7985 11.848C61.7985 12.7142 62.6644 13.564 63.5466 13.5803C64.4778 13.5967 65.4744 12.5507 65.458 11.5865C65.458 10.7041 64.6085 9.87061 63.71 9.87061C62.7624 9.85426 61.7822 10.8675 61.7985 11.848ZM62.55 11.6192C62.6971 11.178 62.9911 10.8348 63.4159 10.6224C63.955 10.3445 64.6575 10.7204 64.7719 11.3087C64.8862 11.9461 64.1021 12.8776 63.4649 12.8776C62.8278 12.8939 62.3376 12.2239 62.55 11.6192Z" fill="#151618"/>
<path d="M28.0459 6.14457C28.7811 5.94846 29.2549 5.44185 29.3202 4.73913C29.3855 4.10178 29.1895 3.51346 28.7647 3.02319C28.3073 2.48389 27.6048 2.3695 26.8533 2.64732C26.1671 2.90879 25.7914 3.43174 25.775 4.2652C25.7914 4.65742 25.9384 5.13134 26.2325 5.55624C26.6572 6.14457 27.3107 6.35701 28.0459 6.14457ZM27.1964 3.20295C27.6048 3.07222 27.9642 3.17027 28.2256 3.5298C28.4707 3.85664 28.585 4.21618 28.6014 4.54302C28.6014 5.06597 28.34 5.40916 27.9315 5.5399C27.5394 5.67064 27.1474 5.5399 26.886 5.19671C26.6409 4.86987 26.5265 4.49399 26.5102 4.10178C26.4939 3.67688 26.7553 3.35003 27.1964 3.20295Z" fill="#151618"/>
<path d="M75.5544 47.9972C75.2113 47.8174 74.8356 47.703 74.4762 47.703C73.741 47.6867 73.2345 47.9808 72.9405 48.6018C72.6464 49.2229 72.5974 49.8766 73.0385 50.4649C73.4959 51.0859 74.6069 51.3964 75.3257 51.1186C76.0772 50.8407 76.3549 50.2361 76.4203 49.5007C76.4856 48.8306 76.1426 48.324 75.5544 47.9972ZM75.7668 49.7948C75.6361 50.2524 75.244 50.5139 74.7049 50.4976C74.4435 50.4649 74.1494 50.3995 73.888 50.2524C73.4306 50.0073 73.2509 49.5824 73.3816 49.1248C73.5123 48.6672 73.9207 48.3894 74.3945 48.4221C74.7049 48.4384 75.0153 48.5201 75.293 48.6999C75.7341 48.9614 75.8975 49.3536 75.7668 49.7948Z" fill="#151618"/>
<path d="M22.2952 8.38346C22.3769 8.56323 22.4913 8.57957 22.6546 8.49786C23.3735 8.12198 24.076 7.76245 24.7948 7.40292C24.7458 7.19047 24.6804 7.01071 24.5007 6.89631C23.9453 7.17413 23.3735 7.46829 22.8017 7.74611C22.6056 7.46829 22.4749 7.19047 22.3606 6.87997C22.8017 6.65118 23.2101 6.42239 23.6349 6.22628C23.8309 6.12822 23.9289 6.04651 23.7982 5.80138C23.6675 5.55624 23.5532 5.58893 23.3571 5.70332C23.1284 5.83406 22.8833 5.94846 22.6546 6.06286C22.0338 6.37336 22.0338 6.37336 21.7561 5.75235C21.7397 5.71967 21.7561 5.68698 21.7724 5.62161C22.2952 5.36014 22.818 5.08232 23.4061 4.78816C23.3408 4.65742 23.2918 4.55936 23.2591 4.46131C23.1938 4.31423 23.1121 4.28155 22.9487 4.36326C22.2952 4.70645 21.6581 5.03329 21.0046 5.36014C20.8575 5.44185 20.8249 5.50722 20.9065 5.67064C21.364 6.53678 21.8378 7.45195 22.2952 8.38346Z" fill="#161719"/>
<path d="M1.75937 31.8673C2.73961 32.1125 3.71983 32.3576 4.70007 32.6191C4.89611 32.6681 4.9778 32.5864 5.02681 32.423C5.20652 31.6876 5.38623 30.9685 5.56594 30.2331C5.59861 30.086 5.53326 30.037 5.4189 29.988C5.12483 29.8736 5.02681 29.9063 4.94512 30.2331C4.87978 30.4782 4.81443 30.7397 4.74908 31.0012C4.52036 31.9 4.52036 31.9 3.60548 31.5568C3.73617 31.0502 3.8342 30.5763 3.96489 30.1024C4.04658 29.8409 3.88321 29.8409 3.71984 29.7755C3.54013 29.7102 3.4421 29.7428 3.39309 29.9389C3.29507 30.3148 3.21338 30.707 3.11536 31.0829C3.01734 31.4424 3.001 31.4588 2.65792 31.3771C2.24949 31.279 2.24949 31.279 2.33117 30.9195C2.4292 30.4129 2.62524 29.9226 2.67426 29.416C2.15147 29.2526 2.13513 29.2362 2.06978 29.4977C1.89007 30.1841 1.7267 30.8868 1.54699 31.5732C1.51432 31.7366 1.57967 31.8183 1.75937 31.8673Z" fill="#161719"/>
<path d="M1.2856 36.0019C2.21682 36.1327 3.14803 36.2634 4.06292 36.3942C4.29164 36.4268 4.45501 36.4595 4.48768 36.1327C4.52036 35.7568 4.52036 35.7241 4.19361 35.6751C3.88321 35.6261 3.55646 35.577 3.24606 35.5444C3.05001 35.528 2.98466 35.4463 3.01734 35.2502C3.06635 34.956 3.09902 34.6619 3.1317 34.3514C3.14803 34.1226 3.26239 34.0735 3.47478 34.1226C3.88321 34.2043 4.2753 34.237 4.70007 34.286C4.73274 34.1716 4.74908 34.1062 4.76541 34.0409C4.8471 33.5996 4.8471 33.5833 4.37332 33.5179C3.54013 33.4035 2.70693 33.2728 1.87373 33.1584C1.25292 33.0767 1.25292 33.0767 1.23658 33.7957C1.62868 33.8448 1.97176 33.9101 2.33117 33.9428C2.52722 33.9591 2.59257 34.0572 2.5599 34.237C2.51088 34.5311 2.47821 34.8253 2.4292 35.1194C2.39652 35.3319 2.2985 35.3973 2.08612 35.3482C1.74304 35.2829 1.38362 35.2502 1.07321 35.2012C0.958852 35.3156 0.975188 35.4136 0.958851 35.4953C0.893503 35.9529 0.893504 35.9529 1.2856 36.0019Z" fill="#161719"/>
<path d="M5.59861 50.2034C5.27187 50.2851 4.91245 50.5466 4.65105 50.3831C4.38966 50.2197 4.45501 49.7621 4.32431 49.4516C4.19361 49.1575 4.34065 49.0594 4.60204 48.9941C4.96146 48.9123 5.32088 48.7979 5.71297 48.6999C5.69664 48.5855 5.69663 48.5365 5.6803 48.4874C5.5496 48.0135 5.5496 48.0135 5.09216 48.1443C4.29164 48.3567 3.50745 48.5692 2.70693 48.7816C2.08612 48.945 2.08612 48.945 2.31484 49.5987C2.69059 49.566 3.03367 49.4353 3.39309 49.3372C3.55646 49.2882 3.67082 49.3046 3.71984 49.517C3.78518 49.8929 3.96489 50.2524 3.98123 50.6283C3.91588 50.661 3.88321 50.6773 3.85053 50.6937C3.65449 50.759 3.45844 50.808 3.2624 50.8571C2.64158 51.0042 2.57623 50.9388 2.90298 51.6905C4.03024 51.38 5.15751 51.0859 6.28477 50.7754C6.1214 50.0726 6.1214 50.0727 5.59861 50.2034Z" fill="#161719"/>
<path d="M43.8603 4.49399C44.5464 4.59205 45.2326 4.70644 45.9024 4.85352C46.1802 4.91889 46.2292 4.78816 46.2782 4.59205C46.3272 4.3796 46.2455 4.28154 46.0331 4.2652C45.7554 4.23252 45.4777 4.18349 45.1999 4.13446C44.2851 3.98738 44.2851 3.98738 44.5628 3.05587C44.8078 3.00685 45.0366 3.12124 45.2653 3.15393C45.5267 3.17027 45.7881 3.21929 46.0331 3.28466C46.3109 3.35003 46.2945 3.15393 46.3272 3.00685C46.3762 2.82708 46.3272 2.72903 46.1312 2.69634C45.7227 2.63097 45.3143 2.53292 44.9222 2.48389C44.6281 2.45121 44.6118 2.30413 44.6771 2.05899C44.7425 1.84654 44.6935 1.60141 45.0529 1.68312C45.494 1.78117 45.9351 1.8302 46.3762 1.92825C46.5723 1.97728 46.6539 1.91191 46.703 1.73215C46.7193 1.61775 46.752 1.5197 46.6866 1.37262C45.9514 1.24188 45.1999 1.12748 44.4484 0.9804C44.236 0.947716 44.138 0.996743 44.1053 1.20919C43.942 2.18973 43.7623 3.17027 43.5826 4.13446C43.5335 4.36326 43.5989 4.46131 43.8603 4.49399Z" fill="#161719"/>
<path d="M6.84024 52.1808C6.51349 51.8703 6.1214 51.7886 5.69664 51.9684C5.27187 52.1481 5.04315 52.4586 5.05949 52.9325C5.05949 53.1777 5.09216 53.4228 5.14117 53.6516C5.19018 53.8641 5.22286 54.0928 5.17385 54.3216C5.14117 54.5504 4.94512 54.6322 4.76542 54.5178C4.48768 54.3543 4.24263 53.815 4.43867 53.5862C4.76542 53.2104 4.48768 52.9979 4.34065 52.7038C3.9649 52.8508 3.80152 53.1287 3.73617 53.4882C3.65449 53.9785 4.07925 54.8446 4.50402 55.0897C5.01047 55.3839 5.63129 55.1551 5.84367 54.6158C5.92536 54.387 5.94169 54.1419 5.89268 53.8967C5.84367 53.6353 5.79466 53.3738 5.76198 53.1287C5.72931 52.8999 5.77832 52.7201 6.00704 52.622C6.21943 52.5403 6.36646 52.6547 6.51349 52.7855C6.8239 53.0796 6.87291 53.5536 6.59518 53.8967C6.43181 54.0765 6.44815 54.2073 6.56251 54.3707C6.62785 54.4524 6.64419 54.5831 6.80756 54.6321C7.265 54.3543 7.51006 53.9458 7.41204 53.3901C7.36303 52.9162 7.16698 52.5077 6.84024 52.1808Z" fill="#161719"/>
<path d="M18.2273 11.3251C18.0802 11.1453 18.0312 10.9655 17.8188 10.9002C17.3124 11.2924 16.8223 11.6846 16.2995 12.0768C16.0871 11.799 15.9074 11.5702 15.695 11.3087C16.1688 10.9329 16.6262 10.5733 17.1 10.1975C16.9366 10.0504 16.8876 9.85427 16.6916 9.7889C16.2505 10.1321 15.8093 10.4753 15.3519 10.8185C15.1395 10.655 14.9925 10.4426 14.8455 10.1975C15.3519 9.7889 15.842 9.41302 16.3158 9.03715C15.9891 8.54688 15.9891 8.54688 15.5643 8.87373C15.0252 9.29863 14.4697 9.72353 13.8979 10.1811C14.6167 11.1126 15.3356 12.0278 16.0871 12.992C16.8549 12.4037 17.5411 11.8644 18.2273 11.3251Z" fill="#161718"/>
<path d="M5.25553 47.0003C5.12483 46.2322 4.9778 45.4478 4.8471 44.6797C4.81443 44.4509 4.7164 44.4019 4.52036 44.4346C4.42233 44.4509 4.34065 44.4509 4.24262 44.5326C4.25896 45.0065 4.38966 45.4805 4.47135 45.9544C4.55303 46.4283 4.55303 46.4283 4.07925 46.5264C4.03024 46.5427 3.96489 46.5427 3.91588 46.5591C3.63815 46.6571 3.55646 46.51 3.50745 46.2649C3.4421 45.8727 3.37675 45.4968 3.31141 45.1046C3.27873 44.8758 3.1317 44.8758 2.95199 44.8921C2.72327 44.9248 2.67425 45.0229 2.72327 45.2353C2.80495 45.6439 2.8703 46.0524 2.93565 46.4447C2.95199 46.51 3.001 46.5917 2.93565 46.6571C2.77228 46.8205 2.5599 46.7879 2.34751 46.8205C2.18414 46.8532 2.18414 46.6898 2.15147 46.5591C2.06978 46.1178 1.98809 45.6766 1.92274 45.2353C1.89007 45.0392 1.80839 44.9902 1.62868 45.0065C1.33461 45.0229 1.30193 45.17 1.33461 45.4151C1.44897 46.0851 1.57966 46.7388 1.67769 47.4089C1.71036 47.654 1.8574 47.654 2.03711 47.6213C2.80495 47.4906 3.58914 47.3598 4.35698 47.2127C4.66739 47.1474 4.9778 47.1637 5.25553 47.0003Z" fill="#151618"/>
<path d="M71.1924 24.8565C71.5028 25.5919 71.7969 26.3436 72.1073 27.079C72.6627 26.9156 72.6627 26.9156 72.483 26.4417C72.3523 26.1149 72.2216 25.788 72.0909 25.4448C71.9439 25.0526 71.9439 25.0526 72.3197 24.8892C72.336 24.8892 72.3523 24.8728 72.3687 24.8728C72.8261 24.6931 72.8261 24.6931 73.0058 25.1343C73.1692 25.5265 73.3326 25.9187 73.4959 26.311C74.0677 26.1475 74.0677 26.1475 73.8717 25.6573C73.7247 25.2814 73.5613 24.8892 73.4143 24.546C73.4959 24.3989 73.6103 24.3826 73.7247 24.3335C74.1167 24.1701 74.1331 24.1701 74.2801 24.546C74.4435 24.9219 74.6069 25.3141 74.7376 25.69C74.8193 25.9024 74.9336 25.9351 75.1297 25.837C75.2113 25.788 75.3094 25.7717 75.3747 25.6573C75.0643 24.8892 74.7376 24.0884 74.4108 23.2876C73.3652 23.7125 72.3523 24.1211 71.3394 24.5133C71.1597 24.5787 71.127 24.6767 71.1924 24.8565Z" fill="#151618"/>
<path d="M77.4169 40.1202C76.9921 39.9404 76.551 39.7607 76.1099 39.5972C75.5054 39.3521 74.9009 39.107 74.2965 38.8618C74.2148 39.0416 74.2638 39.1887 74.2311 39.3358C74.1984 39.5482 74.3128 39.6626 74.4925 39.6953C74.9989 39.777 75.097 40.1039 75.0316 40.5451C75.0153 40.6595 75.0153 40.7739 75.0316 40.8883C75.0806 41.2478 74.9499 41.4603 74.5905 41.5256C74.2965 41.5747 74.1821 41.7381 74.2148 42.0322C74.2311 42.1466 74.1821 42.261 74.2965 42.3918C75.391 41.9669 76.5183 41.542 77.6292 41.1171C77.7273 41.0844 77.7763 41.019 77.8089 40.921C77.907 40.4961 77.7926 40.2836 77.4169 40.1202ZM75.7015 41.0844C75.5708 40.7739 75.6851 40.5124 75.6198 40.1202C76.0935 40.3 76.453 40.447 76.8124 40.5778C76.8124 40.6105 76.8287 40.6432 76.8287 40.6758C76.453 40.8066 76.0935 40.9373 75.7015 41.0844Z" fill="#161719"/>
<path d="M67.3858 17.8947C67.9086 17.7639 67.9086 17.7639 68.2354 18.2052C68.3171 18.3032 68.3824 18.4176 68.4641 18.532C68.7908 18.9896 68.7908 18.9242 68.4968 19.3001C68.2844 19.5779 68.3171 19.7904 68.5458 20.0192C68.6111 20.0845 68.6438 20.1826 68.7745 20.2153C69.3953 19.2347 70.0161 18.2379 70.6533 17.241C70.784 17.0285 70.7186 16.8978 70.5879 16.7507C70.4572 16.6036 70.4082 16.3748 70.1141 16.4566C68.9869 16.7671 67.8433 17.0612 66.6997 17.3717C67.0101 17.9927 67.0101 17.9927 67.3858 17.8947ZM69.8854 17.192C69.5914 17.6332 69.3626 17.9764 69.1176 18.3523C68.8725 18.1235 68.7418 17.8783 68.5131 17.5842C68.9869 17.4534 69.379 17.339 69.8854 17.192Z" fill="#151618"/>
<path d="M54.8552 7.53366C55.2636 7.17413 55.2636 7.17413 55.7374 7.41927C55.8518 7.48464 55.9661 7.53366 56.0805 7.59903C56.5216 7.82782 56.5379 7.82782 56.4563 8.31809C56.4072 8.59591 56.4726 8.75933 56.734 8.84105C56.8483 8.87373 56.9464 9.00447 57.1424 8.92276C57.2404 7.7788 57.3385 6.60215 57.4528 5.44185C57.4855 5.14769 57.2568 5.13134 57.0934 5.01695C56.9137 4.90255 56.7667 4.88621 56.6033 5.04963C56.2929 5.3438 55.9661 5.62161 55.6394 5.91578C55.1003 6.40604 54.5611 6.87997 53.973 7.41927C54.5938 7.76245 54.5938 7.76246 54.8552 7.53366ZM56.636 5.88309C56.734 6.17725 56.7176 6.48776 56.5543 7.14145C56.2765 7.05974 56.0315 6.91266 55.7211 6.73289C56.0478 6.43873 56.3419 6.16091 56.636 5.88309Z" fill="#161619"/>
<path d="M73.5776 32.5047C73.6103 33.1257 73.692 33.763 74.3455 34.0735C74.4925 34.1389 74.6722 34.1716 74.8846 34.1389C75.6524 34.0735 76.4366 33.8611 77.2208 33.7304C77.3188 33.714 77.4332 33.665 77.4332 33.5833C77.4169 33.4035 77.4332 33.1911 77.3025 33.044C77.2045 32.9132 77.0574 33.044 76.9431 33.0603C76.2733 33.1747 75.6198 33.3218 74.9499 33.4035C74.5252 33.4689 74.3128 33.2728 74.2311 32.8806C74.1494 32.4557 74.2965 32.1778 74.7049 32.0634C74.8683 32.0144 75.0316 31.9817 75.195 31.9491C75.7015 31.851 76.2242 31.7366 76.7307 31.6549C76.9594 31.6222 77.0738 31.5405 76.9921 31.2954C76.9267 31.1156 76.9594 30.8705 76.6327 30.9358C75.8975 31.0993 75.1623 31.2136 74.4272 31.4098C73.8717 31.5568 73.5449 31.9654 73.5776 32.5047Z" fill="#161719"/>
<path d="M1.07321 39.728C1.30193 39.728 1.43263 39.6953 1.43263 39.4338C1.41629 39.0253 1.43263 38.6167 1.43263 38.2082C1.48164 38.1918 1.53065 38.1755 1.56333 38.1591C2.1678 38.6821 2.78862 39.1887 3.37675 39.728C3.65449 39.9895 3.94856 40.1365 4.37332 40.0221C4.406 39.1397 4.45501 38.2408 4.48768 37.3584C4.48768 37.2276 4.42233 37.1622 4.29164 37.1459C3.98123 37.0969 3.88321 37.1622 3.86687 37.4727C3.8342 37.9957 3.83419 38.535 3.81786 39.1723C3.08268 38.535 2.4292 37.9794 1.79205 37.4074C1.53065 37.1786 1.26926 37.0478 0.90984 37.1786C0.877166 37.914 0.844492 38.6657 0.811818 39.4175C0.795481 39.6136 0.828155 39.728 1.07321 39.728Z" fill="#161719"/>
<path d="M76.8777 37.3257C76.7144 37.4564 76.7144 37.8486 76.8777 37.9957C77.0574 38.1428 77.1881 37.963 77.3188 37.8813C77.5149 37.7506 77.6292 37.5708 77.7273 37.3584C78.1194 36.3942 77.5149 35.2992 76.4856 35.1358C76.0772 35.0704 75.6688 35.0868 75.2603 35.2175C74.5252 35.4626 74.1167 36.0346 74.1331 36.7864C74.1494 37.5708 74.5252 38.012 75.4237 38.2572C75.4564 38.0284 75.5544 37.8159 75.5217 37.6362C75.4891 37.4564 75.244 37.5054 75.097 37.4074C74.5905 37.0642 74.6395 36.2961 75.2113 36.0183C75.5871 35.8385 75.9955 35.7895 76.4203 35.8549C76.7797 35.9039 77.0574 36.0673 77.1718 36.4432C77.2535 36.7864 77.1881 37.0805 76.8777 37.3257Z" fill="#161719"/>
<path d="M6.62785 24.1211C7.31402 24.2845 7.9675 23.9413 8.31058 23.2876C8.67 22.6339 8.57198 22.0783 7.9675 21.4736C7.80413 21.6371 7.57541 21.7351 7.54274 21.9476C7.5264 22.062 7.68977 22.1927 7.75512 22.3234C7.90216 22.6013 7.86948 22.8627 7.68977 23.1079C7.51006 23.353 7.265 23.4837 6.9546 23.4347C6.46448 23.3693 6.02338 23.1569 5.6803 22.781C5.43524 22.5195 5.4189 22.1437 5.58227 21.8332C5.72931 21.5553 5.95803 21.4246 6.26844 21.4083C6.44814 21.3919 6.67687 20.9997 6.61152 20.8199C6.52983 20.6075 6.31745 20.6729 6.17041 20.6892C5.32088 20.7709 4.65106 21.8168 4.89611 22.6666C5.14117 23.5491 5.82733 23.9413 6.62785 24.1211Z" fill="#161719"/>
<path d="M30.5291 5.31111C30.6925 5.27843 30.7742 5.26208 30.8722 5.24574C31.1663 5.21306 31.2316 5.08232 31.15 4.78816C31.0519 4.42863 30.9376 4.08544 30.9212 3.67688C31.3133 3.57883 31.6891 3.49712 32.0812 3.4154C32.2936 3.36638 32.3589 3.26832 32.2772 3.05587C32.2119 2.89245 32.1955 2.74537 31.9341 2.81074C31.5584 2.92513 31.1826 2.9905 30.8069 3.07222C30.6925 2.95782 30.6762 2.82708 30.6435 2.69634C30.5455 2.28778 30.5455 2.27144 30.9539 2.17339C31.3133 2.07534 31.6728 1.99362 32.0485 1.91191C32.2282 1.86289 32.2282 1.74849 32.1792 1.61775C32.1302 1.48701 32.1629 1.27456 31.9341 1.32359C31.2643 1.47067 30.5782 1.63409 29.9083 1.79752C29.7776 1.8302 29.7286 1.89557 29.7613 2.04265C30.0227 3.13759 30.2678 4.19983 30.5291 5.31111Z" fill="#161719"/>
<path d="M77.3842 42.7676C77.1065 42.735 77.0084 42.833 77.0084 43.0945C77.0084 43.2089 76.9594 43.3233 76.9594 43.4213C76.9594 43.7318 76.8124 43.7809 76.5346 43.7482C75.7995 43.6338 75.048 43.5521 74.3128 43.454C74.2148 43.4377 74.0677 43.3723 74.0024 43.4867C73.9044 43.6501 73.8717 43.8462 73.9207 44.026C73.9534 44.1731 74.1331 44.1567 74.2638 44.1731C74.9336 44.2548 75.6034 44.3365 76.2733 44.4182C76.8614 44.4836 76.8614 44.4836 76.7797 45.1046C76.7797 45.1373 76.7634 45.17 76.747 45.219C76.698 45.3988 76.698 45.5458 76.9431 45.5785C77.2535 45.6112 77.3188 45.5949 77.3515 45.2844C77.4332 44.5816 77.5149 43.8789 77.6129 43.1272C77.6129 42.9964 77.6946 42.8003 77.3842 42.7676Z" fill="#161719"/>
<path d="M40.5275 1.22554C40.6582 1.22554 40.7889 1.25822 40.9196 1.25822C41.2137 1.24188 41.2627 1.38896 41.23 1.63409C41.181 2.23876 41.1483 2.82708 41.1156 3.43175C41.0993 3.59517 41.1156 3.77493 41.083 3.93836C41.0503 4.19983 41.1647 4.2652 41.3934 4.2652C41.6058 4.2652 41.7855 4.29789 41.8018 3.97104C41.8181 3.35003 41.8835 2.72903 41.9325 2.12436C41.9815 1.33993 41.9815 1.33993 42.733 1.38896C42.9291 1.4053 43.0598 1.38896 43.0761 1.14382C43.0924 0.931375 43.0761 0.784294 42.7984 0.767951C42.0469 0.735267 41.2953 0.669899 40.5438 0.620872C40.3478 0.60453 40.2334 0.653556 40.2171 0.882348C40.2008 1.16017 40.2988 1.22554 40.5275 1.22554Z" fill="#161719"/>
<path d="M58.6128 9.98501C59.1356 9.15155 59.6583 8.33443 60.1811 7.50098C60.4425 7.6644 60.6549 7.79514 60.8836 7.94222C61.0143 8.02393 61.1287 8.02393 61.2104 7.86051C61.2594 7.76245 61.3084 7.6644 61.3901 7.55C60.6386 7.07607 59.9197 6.63483 59.2009 6.16091C59.0702 6.0792 58.9558 6.0792 58.8905 6.24262C58.8415 6.34067 58.7761 6.43873 58.7271 6.55312C59.0212 6.74923 59.2989 6.929 59.593 7.1251C59.0702 7.95856 58.5638 8.77567 58.041 9.60913C58.2043 9.7889 58.384 9.90329 58.6128 9.98501Z" fill="#161719"/>
<path d="M70.1631 22.7974C70.2775 22.9935 70.3919 22.9771 70.5716 22.8791C70.7676 22.781 70.8003 22.6666 70.6859 22.4869C70.4409 22.0783 70.1958 21.6534 69.9344 21.1795C70.6696 20.7546 71.3721 20.346 72.0583 19.9375C72.4667 19.6923 72.4667 19.6923 72.2216 19.2838C72.189 19.2184 72.1726 19.1367 72.0256 19.1367C71.0617 19.6923 70.0651 20.2643 69.0522 20.8526C69.4443 21.5227 69.8201 22.16 70.1631 22.7974Z" fill="#161719"/>
<path d="M13.2934 15.9009C13.1627 15.7212 13.032 15.6231 12.8687 15.5087C12.6073 15.8029 12.3459 16.097 12.1008 16.3912C11.7087 16.8488 11.7087 16.8488 11.2676 16.4729C10.6795 15.9663 10.0913 15.4597 9.48686 14.9367C9.32349 15.1165 9.19279 15.2799 9.01308 15.4597C9.92796 16.2441 10.7938 17.0122 11.6924 17.7803C12.2315 17.1266 12.7706 16.5056 13.2934 15.9009Z" fill="#161719"/>
<path d="M15.5316 13.5476C15.3846 13.4005 15.3029 13.2371 15.0578 13.1391C14.6494 13.5313 14.241 13.9398 13.8162 14.3484C13.1464 13.711 12.4602 13.041 11.7577 12.371C11.578 12.5344 11.4146 12.6815 11.284 12.8939C12.1335 13.711 12.9667 14.5118 13.8162 15.3289C14.4044 14.7243 14.9762 14.1359 15.5316 13.5476Z" fill="#161719"/>
<path d="M76.7797 46.5754C75.9138 46.3956 75.0643 46.1995 74.2148 45.9871C73.5613 45.8237 73.5613 45.791 73.5123 46.5591C74.5579 46.8042 75.6198 47.033 76.6654 47.2945C76.9431 47.3598 76.9758 47.2128 77.0248 47.0167C77.0738 46.7879 77.0901 46.6408 76.7797 46.5754Z" fill="#17181A"/>
<path d="M34.5808 2.87611C34.6461 3.33369 34.7278 3.80762 34.7605 4.2652C34.7932 4.57571 34.9892 4.494 35.1689 4.47765C35.3486 4.47765 35.5283 4.46131 35.4957 4.2652C35.4466 3.88933 35.414 3.57883 35.3649 3.25198C35.2833 2.5656 35.2016 1.87923 35.1199 1.19285C35.0872 0.931374 34.9402 0.89869 34.6951 0.931375C34.4501 0.964059 34.3357 1.02943 34.3847 1.32359C34.4827 1.8302 34.5154 2.35315 34.5808 2.87611Z" fill="#18191B"/>
<path d="M60.5732 11.4558C61.3084 10.508 62.0272 9.59279 62.7461 8.67762C62.5664 8.48151 62.4193 8.35077 62.1906 8.23638C61.4718 9.15155 60.7529 10.0667 60.0178 11.0146C60.1975 11.178 60.3772 11.3087 60.5732 11.4558Z" fill="#17181A"/>
<path d="M60.7693 69.3239C60.5405 68.8173 60.5405 68.8173 60.0178 69.0787C59.9361 69.1114 59.8544 69.1605 59.74 69.1441C59.5603 68.7519 59.3643 68.3597 59.2499 67.9348C59.397 67.8204 59.6257 68.0328 59.7074 67.7877C59.7564 67.6243 59.8054 67.4609 59.838 67.2974C59.8544 67.183 59.7727 67.134 59.6747 67.1177C59.2663 67.0523 58.8578 67.0033 58.4494 66.9542C58.3024 66.9379 58.188 66.9869 58.1553 67.1504C58.139 67.3138 58.0083 67.4609 58.0736 67.6406C58.1553 67.657 58.2207 67.6733 58.286 67.6896C58.3514 67.706 58.4331 67.6896 58.4657 67.8531C58.041 68.0328 57.6489 68.3107 57.2078 68.4577C56.9954 68.2126 56.9627 67.8858 56.7176 67.6896C56.4726 67.8204 56.2439 67.9348 55.9988 68.0655C56.1458 68.3597 56.2602 68.6048 56.4072 68.8826C55.9498 69.1278 55.5087 69.3566 55.0513 69.6017C55.1656 69.8305 55.231 70.0429 55.4107 70.2227C55.8518 70.0103 56.2929 69.7815 56.7667 69.5527C56.9464 69.8959 57.0934 70.19 57.2568 70.5005C56.6523 70.811 56.0968 71.1052 55.5087 71.4157C55.6394 71.6445 55.7047 71.8569 55.8681 72.053C56.3256 71.8242 56.7993 71.5955 57.2568 71.334C57.5182 71.1869 57.6489 71.2359 57.7632 71.4974C57.9919 71.9877 58.2533 72.4779 58.4984 72.9519C58.6781 73.2951 58.6781 73.2787 59.0375 73.0989C59.0702 73.0826 59.1029 73.0663 59.1355 73.0499C59.3806 72.9682 59.4296 72.8375 59.2989 72.5923C58.9722 72.004 58.6781 71.3993 58.3677 70.762C58.8905 70.4842 59.3969 70.239 59.8871 69.9776C59.9524 69.9449 60.0178 69.8959 60.0994 69.9449C60.3935 70.1083 60.4425 70.8437 60.1485 71.0235C59.9197 71.1706 59.6583 71.2849 59.3969 71.3993C60.0014 72.2001 59.7074 72.1511 60.6549 71.6935C60.6712 71.6935 60.6876 71.6772 60.7039 71.6608C61.2757 71.3176 61.4228 70.9091 61.194 70.2881C61.0633 69.9776 60.9163 69.6507 60.7693 69.3239ZM58.6618 69.7815C57.8613 70.1573 58.09 70.2064 57.6652 69.4546C57.5345 69.2258 57.5345 69.0951 57.8122 68.9807C58.0573 68.8826 58.286 68.7519 58.5311 68.6212C58.7271 68.8499 58.7435 69.0787 58.8578 69.2748C59.0049 69.5363 58.9068 69.6671 58.6618 69.7815Z" fill="#111214"/>
<path d="M25.6443 70.0429C25.1379 71.6118 24.6314 73.1807 24.125 74.7495C24.1086 74.8149 24.0923 74.8966 24.0596 74.962C24.0433 75.0437 24.076 75.1254 24.1576 75.1417C24.37 75.2071 24.5988 75.3869 24.7948 75.2888C24.9745 75.1908 25.1052 75.2235 25.2686 75.2725C26.1998 75.5666 27.131 75.8608 28.0459 76.155C28.1603 76.1876 28.34 76.1713 28.3726 76.3347C28.438 76.5799 28.6504 76.5472 28.8137 76.6289C29.0915 76.7596 29.2058 76.6452 29.2875 76.3838C29.5162 75.632 29.7613 74.8803 29.99 74.1449C30.2678 73.2624 30.5618 72.3636 30.8559 71.4484C29.1242 70.8927 27.4414 70.3535 25.7424 69.8142C25.7097 69.8959 25.677 69.9612 25.6443 70.0429ZM26.2325 70.9745C26.2815 70.811 26.3632 70.762 26.5102 70.811C27.6048 71.1706 28.7157 71.5138 29.843 71.8733C29.4672 73.0499 29.0915 74.1939 28.7321 75.3378C28.6667 75.5666 28.5523 75.5666 28.3563 75.5176C27.2944 75.1744 26.2161 74.8312 25.1215 74.4717C25.3666 73.7036 25.5953 72.9519 25.8404 72.2165C25.9711 71.7916 26.1018 71.383 26.2325 70.9745Z" fill="#141517"/>
<path d="M21.5764 67.706C21.609 67.6406 21.6254 67.5753 21.6417 67.4935C21.5764 67.4445 21.5437 67.4118 21.4947 67.3955C20.9882 67.1013 21.0536 67.0523 20.7432 67.5753C20.3511 68.278 19.9427 68.9807 19.5506 69.6671C19.3872 69.9449 19.2238 70.2227 18.9298 70.4352C18.8807 70.239 19.0931 70.1247 18.9951 69.9776C18.8971 69.8468 18.652 69.9776 18.5703 69.7488C18.7664 69.3892 18.9788 69.0461 19.1748 68.6702C19.2728 68.4904 19.3709 68.4087 19.5669 68.5558C19.7629 68.7192 19.91 68.6538 19.9917 68.4414C20.0407 68.327 20.155 68.2289 20.155 68.0819C20.0734 67.9021 19.812 67.9184 19.7466 67.7223C19.9263 67.3791 20.1224 67.0523 20.3184 66.6928C20.106 66.513 19.8936 66.3986 19.6486 66.3169C19.4852 66.6111 19.3055 66.8889 19.1585 67.1667C19.0768 67.3301 18.9788 67.3791 18.7991 67.2648C18.7174 67.1994 18.5867 67.1013 18.505 67.2157C18.3906 67.3628 18.2763 67.5262 18.2273 67.706C18.1946 67.8531 18.3906 67.8858 18.4886 67.9675C18.5377 68.0002 18.5703 68.0328 18.6357 68.0819C18.3906 68.5068 18.1619 68.899 17.9495 69.3239C17.8188 69.569 17.6881 69.6834 17.4267 69.5363C17.198 69.4219 17.0836 69.5036 17.0346 69.7324C17.0183 69.8305 16.9856 69.9122 16.953 69.9939C16.8549 70.2064 16.9366 70.3044 17.149 70.3534C17.6228 70.4678 18.0966 70.5822 18.6357 70.713C18.3579 71.0562 17.9659 71.0888 17.7045 71.3176C17.7535 71.3994 17.7698 71.4811 17.8025 71.5464C17.8352 71.6118 17.8678 71.6772 17.9005 71.7425C18.0639 72.0694 18.0639 72.0857 18.3906 71.9223C19.1258 71.5791 19.6813 71.0235 20.0897 70.3371C20.5798 69.471 21.0863 68.5885 21.5764 67.706Z" fill="#151618"/>
<path d="M14.5677 66.0227C14.9435 65.4998 14.9435 65.4998 14.4044 65.1076C14.388 65.0912 14.3717 65.0912 14.3553 65.0749C14.1103 65.1893 14.0613 65.5161 13.7999 65.6142C13.3914 65.3037 12.9994 64.9932 12.5583 64.6663C12.4112 64.8461 12.2969 64.9932 12.1662 65.1729C12.4276 65.4834 12.8033 65.6305 13.0647 65.9737C12.5256 66.1371 12.0191 66.0718 11.5127 66.0554C11.2349 66.0554 11.1859 66.1535 11.1533 66.5947C11.1369 66.8725 11.3003 66.8399 11.4637 66.8562C11.9701 66.8725 12.4766 66.7418 13.0484 66.6764C12.787 67.0196 12.5746 67.2974 12.3622 67.5753C12.1008 67.9184 12.1171 67.9021 12.4439 68.1799C12.6399 68.3433 12.7706 68.376 12.934 68.1309C13.081 67.9184 13.2444 67.706 13.4078 67.5099C13.4731 67.4282 13.5058 67.2484 13.6855 67.3138C13.7182 67.6079 13.7019 67.8858 13.7672 68.1636C13.9959 69.0624 13.8816 69.0787 14.7801 68.6212C14.5351 68.0982 14.29 67.5753 14.3063 66.9052C14.6984 67.183 15.0252 67.4445 15.3682 67.6897C15.548 67.5262 15.6787 67.3791 15.7603 67.1667C15.3356 66.8235 14.9108 66.4967 14.5024 66.1698C14.5351 66.0881 14.5514 66.0554 14.5677 66.0227Z" fill="#151618"/>
<path d="M34.3357 76.237L34.3524 76.2203L34.3357 76.237Z" fill="#151618"/>
<path d="M34.254 74.7005C34.0907 74.39 34.1397 74.1612 34.2867 73.867C34.4827 73.4421 34.7441 73.0499 34.8095 72.576C34.8422 72.3472 34.7931 72.2165 34.5481 72.2001C34.107 72.1511 33.6495 72.1021 33.2084 72.0204C32.9634 71.9877 32.8817 72.053 32.849 72.2982C32.7183 73.3768 32.555 74.4554 32.4079 75.534C32.3262 76.1059 32.2609 76.6942 32.1792 77.2662C32.1302 77.544 32.2936 77.5767 32.5059 77.5767C32.6857 77.5767 32.8654 77.6584 32.898 77.3479C32.9634 76.8904 32.947 76.4164 33.1758 75.8935C33.1758 76.1059 33.1921 76.2367 33.1758 76.3674C33.1431 76.6452 33.3065 76.6616 33.5188 76.6616C33.8619 76.6452 34.0743 76.4491 34.303 76.2367C34.4011 75.7137 34.5318 75.1908 34.254 74.7005ZM33.4535 75.7954C33.1921 75.8118 33.1104 75.7464 33.1594 75.5013C33.2248 75.1417 33.1921 74.7659 33.3718 74.4063C33.6495 74.7168 33.7149 75.0764 33.7312 75.4522C33.7312 75.6157 33.6822 75.7791 33.4535 75.7954ZM33.3555 74.2102C33.4045 73.7853 33.4372 73.4258 33.4862 73.0826C33.5352 72.7721 33.5515 72.7721 33.9926 72.8538C33.7966 73.3114 33.6659 73.7526 33.3555 74.2102Z" fill="#151618"/>
<path d="M52.2086 72.8375C52.3393 72.7884 52.4863 72.6577 52.6334 72.7885C52.8621 73.0009 52.9928 72.8702 53.1071 72.6741C53.1725 72.5433 53.3032 72.4616 53.3359 72.2655C53.0091 72.0694 52.666 71.8733 52.323 71.6935C52.1759 71.6118 52.0452 71.4647 51.8492 71.5137L51.8328 71.5301C51.8165 71.5301 51.8165 71.5301 51.8002 71.5464C51.7512 71.6281 51.7021 71.7262 51.6368 71.7916C51.3754 72.0204 51.5714 72.1348 51.7675 72.2655C51.3427 72.5106 50.918 72.6414 50.4768 72.8211C50.6892 71.8243 50.967 71.5628 51.7838 71.5301C51.8002 71.5301 51.8002 71.5137 51.8165 71.5137C51.8328 71.5137 51.8328 71.5137 51.8492 71.5137C52.0452 71.2359 52.4373 71.3176 52.666 71.1052C52.715 70.9908 52.6497 70.9254 52.617 70.8274C52.4863 70.4678 52.4863 70.4678 52.1106 70.5986C51.8492 70.6803 51.5714 70.7783 51.31 70.8764C51.114 70.9581 50.967 70.9581 50.8036 70.7947C50.4768 70.4842 50.4605 70.4842 50.0684 70.7293C49.9704 70.7783 49.856 70.811 49.807 70.9254C49.7907 71.0889 50.0357 71.1379 49.9704 71.3503C49.611 71.4811 49.2516 71.6118 48.8758 71.7425C48.6307 71.8243 48.6961 71.9877 48.7614 72.1511C48.8268 72.2982 48.8268 72.4943 49.0882 72.4126C49.3006 72.3472 49.4966 72.1838 49.758 72.2492C49.66 72.625 49.5293 72.9519 49.3006 73.246C49.2026 73.3604 49.2025 73.4585 49.2842 73.5892C49.5293 73.9324 49.5783 73.9488 49.9704 73.7853C50.7546 73.4258 51.4898 73.1316 52.2086 72.8375Z" fill="#151618"/>
<path d="M51.8172 71.5137C51.8005 71.5137 51.8005 71.5304 51.7838 71.5304C51.8005 71.5138 51.8005 71.5137 51.8172 71.5137Z" fill="#151618"/>
<path d="M51.8168 71.514C51.8002 71.5307 51.8002 71.5307 51.8002 71.5473C51.8168 71.5307 51.8335 71.5307 51.8168 71.514C51.8335 71.514 51.8502 71.514 51.8502 71.514C51.8502 71.4973 51.8335 71.4973 51.8168 71.514Z" fill="#151618"/>
<path d="M43.893 76.4001C44.138 75.9752 44.4321 75.5993 44.5465 75.1417C44.3177 75.011 44.1053 74.8639 43.8603 74.7985C43.6969 75.109 43.5499 75.3869 43.3865 75.6483C43.1578 75.9915 43.1415 76.0079 42.8474 75.7301C42.6023 75.5013 42.3899 75.2398 42.1449 74.9947C41.9325 75.1581 41.7365 75.3052 41.5894 75.5176C41.8345 75.9098 42.1776 76.1876 42.5043 76.5635C41.8508 77.0538 41.1156 77.2499 40.3805 77.5114C40.5112 77.6911 40.6419 77.8382 40.7236 78.0016C40.8543 78.2631 41.034 78.2468 41.279 78.1651C41.8998 77.9526 42.488 77.6748 43.0108 77.2662C43.1905 77.1191 43.3375 77.1028 43.5662 77.2172C43.9747 77.4297 44.4321 77.5767 44.9059 77.6258C46.0005 77.7728 45.7554 77.8219 46.1475 76.9067C46.1638 76.8904 46.1148 76.8413 46.0985 76.8086C45.3306 76.7923 44.5955 76.7596 43.893 76.4001Z" fill="#151618"/>
<path d="M63.3015 66.2352C63.1545 65.8266 62.9258 65.4671 62.8278 65.0585C62.7624 64.9441 62.7297 64.8134 62.599 64.7317C62.4357 64.5192 62.2886 64.4539 62.0599 64.6827C61.7985 64.9441 61.5044 65.1893 61.194 65.4017C60.949 65.5815 60.949 65.6959 61.1287 65.9247C62.1253 67.1177 63.1055 68.327 64.0857 69.52C64.1837 69.6507 64.2654 69.7978 64.4451 69.8795C64.4941 69.8468 64.5595 69.7978 64.6085 69.7651C64.9353 69.5036 64.9516 69.52 64.6575 69.1605C64.4778 68.948 64.3144 68.7356 64.1021 68.4741C64.5268 68.5885 64.5758 68.5721 64.7555 68.327C64.9353 68.0655 64.9516 67.804 64.7882 67.5426C64.6739 67.3628 64.5268 67.183 64.3961 67.0196C64.1184 66.8398 63.8733 66.6111 63.5466 66.5293C63.4486 66.4476 63.3505 66.3659 63.3015 66.2352ZM62.0599 65.941C61.8639 65.6959 61.8802 65.6959 62.2233 65.4834C62.403 65.8593 62.6317 66.2188 62.7297 66.7091C62.4357 66.464 62.2723 66.1862 62.0599 65.941ZM63.8897 68.1636C63.5466 67.755 63.2198 67.3628 62.8604 66.9052C63.3015 66.9542 63.6119 67.134 63.8897 67.3955C64.1674 67.6733 64.1674 67.7387 63.8897 68.1636Z" fill="#151618"/>
<path d="M37.9462 74.2102C36.966 74.0958 35.9694 73.9651 34.9892 73.818C34.6951 73.769 34.6951 73.9324 34.6788 74.1285C34.6625 74.341 34.5971 74.5371 34.9239 74.5698C35.1852 74.5861 35.4466 74.6351 35.708 74.6841C35.8877 74.7168 36.0184 74.7495 35.9694 75.011C35.8714 75.583 35.8224 76.155 35.7244 76.7269C35.659 77.0865 35.5937 77.1355 35.2343 77.0865C35.1036 77.0701 34.9402 77.0865 34.8422 76.9394C35.0709 76.4818 35.2996 76.0242 35.5447 75.583C35.659 75.3705 35.6263 75.2561 35.3976 75.1581C35.2016 75.0764 35.0382 74.9783 34.9075 75.2725C34.7605 75.5993 34.6461 75.9588 34.3684 76.204C34.3684 76.2367 34.3684 76.2857 34.352 76.3184C34.107 76.825 34.0907 76.8577 34.5971 77.0701C34.8258 77.1518 34.8095 77.2662 34.8258 77.4297C34.8748 77.8382 34.8748 77.8382 35.2833 77.8872C35.4466 77.9036 35.6263 77.9036 35.7897 77.9036C36.1165 77.9199 36.3125 77.7402 36.4105 77.446C36.4595 77.2989 36.4759 77.1518 36.4922 77.0048C36.5739 76.4001 36.6556 75.7791 36.7373 75.1744C36.77 74.9129 36.868 74.7985 37.1457 74.8639C37.3908 74.9129 37.6358 74.9293 37.8645 74.9783C38.1259 75.0273 38.1913 74.8803 38.1913 74.6678C38.2076 74.4717 38.273 74.2592 37.9462 74.2102Z" fill="#161719"/>
<path d="M34.3524 76.2203L34.3357 76.237L34.3524 76.2203Z" fill="#161719"/>
<path d="M34.3524 76.2203L34.3357 76.237L34.3524 76.2203Z" fill="#161719"/>
<path d="M67.3695 65.4671C67.4839 65.6469 67.5819 65.8103 67.6962 65.9901C67.7779 66.1208 67.7616 66.2352 67.6309 66.3332C67.5165 66.4149 67.4022 66.3659 67.3368 66.2679C67.0918 65.99 66.863 65.6959 66.618 65.4017C66.863 65.1893 67.0754 64.9932 67.3205 64.7971C67.1571 64.6336 67.0918 64.4048 66.863 64.3231C66.1279 64.9278 65.409 65.5161 64.6739 66.1044C64.2001 66.4967 64.2001 66.4967 64.4451 66.9869C64.7882 67.0523 64.9026 66.6437 65.213 66.6274C65.5561 67.1013 65.5724 67.5916 65.36 68.1145C65.311 68.2126 65.262 68.327 65.2293 68.425C65.213 68.4741 65.213 68.5558 65.2293 68.5721C65.3927 68.7192 65.6214 68.6865 65.8175 68.7519C65.9808 68.8009 66.0135 68.6212 66.0625 68.5068C66.4056 67.804 66.3566 67.134 65.9645 66.464C65.8828 66.3169 65.6051 66.1371 65.9155 65.9574C66.2096 65.7776 66.2422 66.1044 66.3566 66.2188C66.5853 66.464 66.7814 66.7418 67.0101 66.9869C67.1898 67.183 67.4022 67.2647 67.6636 67.1667C68.3661 66.9052 68.5948 66.3496 68.2354 65.6959C67.925 65.1403 68.0393 65.0912 67.3695 65.4671Z" fill="#151618"/>
<path d="M45.1019 73.4094C45.7227 73.3441 45.7227 73.3604 45.6247 72.7231C45.6247 72.6904 45.5757 72.674 45.543 72.625C45.0039 72.6904 44.4484 72.7394 43.893 72.8211C43.5335 72.8702 43.2395 72.8538 43.0761 72.4616C43.0271 72.3472 42.9781 72.1674 42.8147 72.2165C42.586 72.2818 42.3409 72.3799 42.1612 72.527C41.9978 72.6414 42.3246 72.8048 42.2102 72.9846C42.1449 73.0009 42.0795 73.0172 41.9979 73.0172C41.4097 73.0826 40.8052 73.1643 40.2171 73.2133C39.874 73.246 39.9884 73.4585 39.9884 73.6546C39.9884 73.867 40.0537 74.0305 40.3151 73.9651C40.7562 73.867 41.2137 73.9161 41.6384 73.7853C41.7038 73.7853 41.7528 73.7853 41.8181 73.7853C42.8964 73.6382 44.0073 73.5238 45.1019 73.4094Z" fill="#161719"/>
<path d="M20.5145 73.3604C20.6125 73.4258 20.6778 73.4748 20.7595 73.5238C21.2333 73.8017 21.1516 73.7853 21.413 73.3441C21.8868 72.527 22.3442 71.7262 22.8017 70.9091C23.1938 70.2227 23.5858 69.52 23.9943 68.8173C23.7656 68.6865 23.5695 68.5721 23.3244 68.425C22.3769 70.092 21.4457 71.7099 20.5145 73.3604Z" fill="#161618"/>
<path d="M22.0665 67.9838C21.2496 69.4056 20.4654 70.7947 19.6649 72.1674C19.5179 72.4126 19.6322 72.5106 19.8283 72.5923C19.9917 72.674 20.155 72.8865 20.3347 72.576C21.1189 71.1706 21.9195 69.7815 22.72 68.3924C22.5239 68.1963 22.3115 68.1145 22.0665 67.9838Z" fill="#161719"/>
<path d="M16.6099 65.9247C16.8386 65.6305 17.0836 65.32 17.345 64.9768C16.3158 64.176 15.2866 63.3916 14.241 62.5745C13.9632 62.934 13.7182 63.2445 13.4731 63.5714C13.6528 63.7185 13.7672 63.9146 13.9796 63.9309C14.192 63.9473 14.29 63.6858 14.486 63.6041C15.0905 64.078 15.7113 64.5519 16.2995 65.0259C16.1851 65.2873 15.94 65.4181 16.0217 65.6632C16.2668 65.6305 16.3485 65.9737 16.6099 65.9247Z" fill="#17181A"/>
<path d="M62.8441 65.0585C63.0728 65.1239 63.1055 65.4181 63.3342 65.4998C63.6773 65.2546 63.6773 65.2546 63.6446 64.8624C63.6283 64.7153 63.7263 64.6663 63.808 64.601C64.1674 64.3068 64.5268 64.0126 64.9026 63.7185C65.0823 63.5714 65.2293 63.3916 65.4417 63.6694C65.5071 63.7512 65.5724 63.7021 65.6378 63.6531C65.7521 63.5387 65.9155 63.4733 65.9972 63.2936C65.7848 63.0321 65.5561 62.7543 65.3273 62.4765C65.0169 62.7216 64.7555 62.934 64.4941 63.1465C64.3471 63.2772 64.2164 63.3426 64.0694 63.1792C63.8407 62.934 63.6609 63.0158 63.4812 63.2445C63.3996 63.3426 63.2852 63.408 63.2525 63.555C63.3179 63.6858 63.5139 63.7021 63.5466 63.8982C63.2689 64.1924 62.8768 64.4048 62.6154 64.7317C62.8768 64.7154 62.8768 64.8624 62.8441 65.0585Z" fill="#161719"/>
<path d="M62.8441 65.0585C62.8768 64.8788 62.8768 64.7154 62.6154 64.7317C62.7461 64.7971 62.7787 64.9441 62.8441 65.0585Z" fill="#161719"/>
<path d="M54.022 74.1122C53.8913 73.6219 53.8913 73.6219 53.3032 73.6546C53.4012 73.9978 53.4829 74.3083 53.5646 74.6188C53.5972 74.7168 53.5809 74.8149 53.4829 74.8639C53.3359 74.9293 53.2868 74.8312 53.2378 74.7168C53.0908 74.2919 52.9438 73.867 52.7967 73.4421C52.6334 72.9845 52.6334 72.9845 52.1759 73.1643C52.0942 73.197 51.9799 73.197 51.9635 73.3441C52.1432 73.867 52.3393 74.4227 52.519 74.962C52.5353 75.0273 52.568 75.109 52.6007 75.1744C52.6987 75.4359 52.8457 75.6483 53.1561 75.6647C53.8096 75.7301 54.2671 75.2071 54.1364 74.5698C54.0874 74.4063 54.0547 74.2592 54.022 74.1122Z" fill="#171819"/>
<path d="M37.8809 73.5075C38.1749 73.5402 38.1423 73.3277 38.1749 73.148C38.1913 72.9682 38.273 72.7721 37.9789 72.7394C37.1457 72.6414 36.3125 72.5106 35.4793 72.4126C35.1362 72.3962 35.1362 72.4126 35.1036 72.9028C35.0872 73.0663 35.1362 73.148 35.2833 73.1643C36.1491 73.2624 37.015 73.3768 37.8809 73.5075Z" fill="#191A1B"/>
<path d="M50.2645 73.8343C50.0521 73.9324 49.8397 73.9487 49.9867 74.2756C50.1828 74.7822 50.2971 75.3052 50.1338 75.8608C50.0848 76.0242 49.9051 76.155 49.9867 76.3184C50.0684 76.4981 50.2971 76.4981 50.4605 76.5799C50.5095 76.6125 50.5585 76.6125 50.6402 76.6452C51.212 75.7627 51.0323 74.9129 50.7219 74.0468C50.6076 73.7526 50.5095 73.72 50.2645 73.8343Z" fill="#17181A"/>
<path d="M51.212 73.5075C51.016 73.5565 50.8689 73.6056 50.967 73.8834C51.1957 74.4554 51.3754 75.0437 51.5878 75.632C51.7675 76.1386 51.7675 76.1386 52.2739 75.9425C52.323 75.9262 52.372 75.8935 52.4536 75.8445C52.1922 75.1091 51.9309 74.3736 51.6858 73.6382C51.5878 73.2787 51.3917 73.4421 51.212 73.5075Z" fill="#18191B"/>
<path d="M41.377 74.2102C41.0013 74.6024 40.6255 74.9783 40.2334 75.3542C40.4458 75.5666 40.6419 75.7464 40.8379 75.9262C40.9686 75.8118 41.0666 75.7301 41.1646 75.632C41.4751 75.3215 41.8018 75.011 42.1122 74.6678C42.4716 74.2756 42.5206 74.341 42.0305 73.9814C41.9325 73.9161 41.8508 73.8507 41.8181 73.7363C41.7691 73.7853 41.7038 73.7853 41.6384 73.7363C41.7038 73.9978 41.4914 74.0795 41.377 74.2102Z" fill="#18191A"/>
<path d="M41.8018 73.7526C41.7365 73.7526 41.6874 73.7526 41.6221 73.7526C41.6874 73.8026 41.7528 73.8026 41.8018 73.7526Z" fill="#18191A"/>
<path d="M48.9738 74.5534C48.7288 74.5534 48.7124 74.6678 48.7288 74.8639C48.7614 75.3215 48.7778 75.7954 48.8105 76.2694C48.8595 76.9721 48.8595 76.9721 49.66 76.8904C49.709 76.302 49.562 75.7137 49.562 75.1254C49.5456 74.5698 49.513 74.5534 48.9738 74.5534Z" fill="#19191B"/>
<path d="M65.5724 63.8819C64.9353 64.4048 64.2981 64.9278 63.6446 65.4507C63.7753 65.6632 63.906 65.8103 64.053 65.9574C64.8209 65.3364 65.5561 64.7317 66.2912 64.127C66.2586 64.0617 66.2259 64.0126 66.1932 63.9636C65.9318 63.6041 65.9155 63.6041 65.5724 63.8819Z" fill="#18191B"/>
<path d="M11.6597 64.3722C11.0062 64.8297 10.3691 65.271 9.71558 65.7286C9.86262 65.9574 9.99331 66.1535 10.1567 66.3986C10.8265 65.9247 11.4473 65.4834 12.0681 65.0422C11.9211 64.7971 11.7904 64.601 11.6597 64.3722Z" fill="#17181A"/>
<path d="M43.5009 74.1775C43.9093 74.439 44.3014 74.7005 44.7098 74.9783C45.3306 75.4032 45.3306 75.4032 45.7717 74.7659C45.7881 74.7495 45.7881 74.7005 45.7881 74.6351C45.3796 74.39 44.9712 74.1449 44.5465 73.8997C43.942 73.5565 43.942 73.5565 43.5009 74.1775Z" fill="#17181A"/>
<path d="M37.5868 75.583C37.5541 75.4522 37.4724 75.3869 37.3418 75.4196C37.015 75.4359 36.8353 75.5503 36.868 75.7301C36.966 76.2367 37.0804 76.7596 37.1947 77.2662C37.2437 77.4787 37.3744 77.4787 37.5215 77.4297C37.6848 77.3643 37.9952 77.4623 37.9299 77.1028C37.8155 76.6125 37.7012 76.0896 37.5868 75.583Z" fill="#1A1B1D"/>
<path d="M15.4173 64.9932C15.3192 65.0259 15.1885 65.0095 15.0742 65.1239C15.2049 65.5978 15.3356 66.1044 15.4663 66.6111C15.7113 66.6111 15.9237 66.5457 16.1361 66.4967C16.2014 66.2025 15.94 65.9574 16.0217 65.6795C15.891 65.5652 15.8584 65.3854 15.8257 65.2383C15.7603 64.9932 15.6296 64.9441 15.4173 64.9932Z" fill="#17181A"/>
<path d="M13.0647 64.3231C13.081 64.8134 13.0974 64.8297 13.5548 64.8461C13.9469 64.8624 14.339 64.8461 14.7311 64.8461C14.7311 64.7317 14.7311 64.65 14.7311 64.5846C14.6657 64.1434 14.6657 64.1434 14.2246 64.1434C13.8489 64.1434 13.4895 64.1434 13.1627 64.078C13.0647 64.176 13.0647 64.2578 13.0647 64.3231Z" fill="#292A2C"/>
<path d="M12.787 64.0943C12.7543 63.7512 12.6399 63.4243 12.5419 63.0811C12.5092 62.9831 12.4929 62.8687 12.3295 62.8523C11.8721 62.8196 11.7251 62.9667 11.8231 63.3916C11.8394 63.4407 11.8558 63.506 11.8721 63.5551C12.0355 64.3068 12.0355 64.3068 12.787 64.0943Z" fill="#1F2022"/>
<path d="M13.8979 62.885C13.7835 62.5255 13.6855 62.215 13.5875 61.8881C13.5385 61.7574 13.4895 61.6593 13.3098 61.6593C12.8687 61.6593 12.8033 61.7411 12.9177 62.1823C12.9503 62.313 12.9994 62.4274 13.0157 62.5582C13.0974 63.0484 13.032 63.1138 13.6692 62.9504C13.7345 62.9504 13.7835 62.9177 13.8979 62.885Z" fill="#1A1B1D"/>
<path d="M48.4674 73.2624C48.3857 73.2297 48.2877 73.197 48.206 73.1807C47.8466 73.0989 47.8956 73.4421 47.7975 73.6056C47.6832 73.8017 47.8302 73.8507 47.9936 73.9161C48.2713 74.0141 48.5491 74.1285 48.8105 74.2429C49.3169 73.3277 49.1699 73.5075 48.4674 73.2624Z" fill="#1A1B1D"/>
<path d="M48.6634 71.9877C48.4674 71.906 48.2877 71.8406 48.0916 71.7752C47.5362 71.5791 47.5362 71.5791 47.3074 72.1348C47.2911 72.1674 47.3074 72.2001 47.3238 72.2655C47.6505 72.4126 47.9936 72.5597 48.3857 72.7231C48.5164 72.4779 48.6307 72.2655 48.6634 71.9877Z" fill="#1E1F21"/>
<path d="M25.5953 74.2756C26.5755 74.5861 27.5394 74.8966 28.6667 75.2561C28.4707 74.9456 28.9771 74.7005 28.5197 74.4717C28.7484 74.2593 28.683 74.0305 28.4707 73.7853C28.5523 73.7526 28.5687 73.7526 28.585 73.7526C28.9771 73.8507 28.9281 73.4912 28.9935 73.2951C29.0588 73.0826 28.8301 73.099 28.6994 73.0499C28.487 72.9682 28.2746 72.9028 28.0622 72.8375C27.9152 72.7884 27.9152 72.6904 27.9642 72.576C28.0132 72.4616 28.0622 72.3799 28.2093 72.4289C28.4216 72.5106 28.634 72.5597 28.8464 72.625C29.2548 72.7558 29.2548 72.7558 29.3692 72.3472C29.4019 72.2655 29.4672 72.1838 29.3529 72.0694C28.536 71.8079 27.7028 71.5301 26.8696 71.2686C26.3632 71.1052 26.3468 71.1052 26.1998 71.6445C26.1835 71.6772 26.1998 71.7099 26.1998 71.7916C26.4612 71.8733 26.7553 71.9713 27.033 72.0694C27.1964 72.1184 27.229 72.2165 27.18 72.3635C27.131 72.4943 27.033 72.5106 26.9023 72.4779C26.6409 72.4126 26.3958 72.2655 26.1181 72.2655C25.8894 72.8702 25.8894 72.8702 26.4449 73.0499C26.5102 73.0663 26.5919 73.0989 26.6572 73.1153C26.9513 73.197 26.8369 73.3768 26.7879 73.5565C26.7226 73.7363 26.7062 73.9324 26.4285 73.8344C26.1508 73.7363 25.8567 73.6546 25.5953 73.5729C25.4646 73.7036 25.4319 73.8507 25.3829 73.9978C25.3829 74.1612 25.4646 74.2266 25.5953 74.2756ZM27.6701 73.5729C27.7192 73.4585 27.7355 73.4585 28.1603 73.5729C27.7028 73.7363 27.8989 73.9978 28.0132 74.2429C27.8172 74.341 27.6865 74.2102 27.4904 74.1449C27.5558 73.9487 27.6048 73.769 27.6701 73.5729Z" fill="#151517"/>
<path d="M37.9952 83.4273C37.4561 83.3783 37.0313 83.6724 36.868 84.2444C36.7209 84.751 36.6719 85.274 36.819 85.7969C36.9497 86.2708 37.2274 86.5323 37.6685 86.5814C38.1423 86.6304 38.518 86.4343 38.7304 86.0094C38.9101 85.6498 38.9428 85.2576 38.9591 84.7837C38.9428 84.6856 38.9265 84.5222 38.9101 84.3588C38.7794 83.7541 38.5017 83.4763 37.9952 83.4273ZM38.1749 85.7806C38.1096 85.944 38.0116 86.0911 37.8155 86.0911C37.6195 86.0911 37.5051 85.9603 37.4561 85.7969C37.3254 85.2413 37.3418 84.6856 37.5541 84.1463C37.6031 84.0156 37.7175 83.9339 37.8482 83.9175C38.0116 83.9175 38.1096 84.0156 38.1749 84.1627C38.2893 84.4078 38.2566 84.6693 38.273 85.0125C38.3056 85.2249 38.2566 85.5028 38.1749 85.7806Z" fill="#17181A"/>
<path d="M41.5731 84.228C41.4097 83.7378 41.1483 83.5253 40.6909 83.509C40.1681 83.4926 39.825 83.7051 39.6453 84.1954C39.4329 84.8 39.4656 85.421 39.6616 86.0094C39.8087 86.4179 40.1191 86.6467 40.5602 86.663C41.0013 86.6794 41.3607 86.4669 41.5404 86.042C41.6711 85.7642 41.7038 85.4701 41.7038 85.1596C41.6874 84.9471 41.6874 84.751 41.6548 84.5385C41.6548 84.4405 41.6057 84.3261 41.5731 84.228ZM40.9523 85.944C40.8379 86.2381 40.4948 86.2381 40.3478 85.9603C40.1681 85.6498 40.2008 85.3066 40.1844 84.9798C40.2008 84.7183 40.1844 84.4568 40.3151 84.2117C40.4785 83.9175 40.7889 83.9012 40.9196 84.1954C41.132 84.7673 41.1646 85.3557 40.9523 85.944Z" fill="#161719"/>
<path d="M43.7949 84.7673C43.7296 84.7347 43.6479 84.7347 43.6152 84.6529C43.5989 84.5712 43.6969 84.5385 43.7296 84.4895C44.1217 83.9339 43.844 83.3292 43.1741 83.2802C42.9291 83.2638 42.684 83.2965 42.4553 83.3946C42.1122 83.5417 42.1122 83.5417 42.1939 84.0319C42.3409 83.9502 42.4389 83.9012 42.537 83.8685C42.635 83.8358 42.7494 83.8031 42.8637 83.7868C43.0434 83.7705 43.1905 83.8522 43.2558 84.0319C43.3048 84.228 43.2721 84.4078 43.0761 84.5059C42.9617 84.5712 42.831 84.6039 42.7003 84.6203C42.5043 84.6529 42.537 84.7837 42.5533 84.9144C42.5696 85.0452 42.6187 85.1269 42.7657 85.0942C42.8801 85.0778 42.9944 85.0615 43.0924 85.0615C43.3375 85.0615 43.5499 85.1269 43.5989 85.4047C43.6479 85.6498 43.5009 85.8132 43.1905 85.9113C42.9454 86.0094 42.684 85.895 42.439 85.9113C42.4553 86.1564 42.3899 86.4016 42.7003 86.4179C43.1415 86.4506 43.5662 86.3852 43.9256 86.1074C44.4484 85.7479 44.3831 85.0778 43.7949 84.7673Z" fill="#18191B"/>
<path d="M36.3288 83.6234C36.1491 83.2475 35.6427 83.0187 35.0709 83.0841C34.6788 83.1331 34.6298 83.1985 34.6298 83.6724C34.7441 83.6397 34.8422 83.6071 34.9565 83.5907C35.3159 83.5253 35.61 83.6234 35.6917 83.8195C35.7897 84.032 35.6917 84.3261 35.4303 84.5549C35.2996 84.6693 35.1689 84.751 35.0219 84.8491C34.7768 85.0125 34.5154 85.1759 34.2704 85.3393C34.156 85.4047 34.058 85.4864 34.0253 85.6335C33.9763 85.8296 33.96 85.9767 34.254 86.0257C34.6788 86.0747 35.1036 86.1728 35.5283 86.2545C35.9368 86.3199 35.9368 86.3199 36.0021 85.8296C35.8224 85.7806 35.6427 85.7479 35.463 85.6989C35.2833 85.6498 35.0872 85.6989 34.8748 85.5354C35.2179 85.3066 35.512 85.1269 35.8061 84.9144C36.3288 84.5222 36.5086 84.0483 36.3288 83.6234Z" fill="#18191B"/>
</svg>
