<svg width="100" height="100" viewBox="0 0 100 100" fill="none" xmlns="http://www.w3.org/2000/svg">
<path d="M49.5834 0.00149953C22.9864 0.213949 0.0327098 21.8348 3.54197e-05 49.9762C-0.0326389 77.7418 22.5453 100 49.9918 100C77.863 100 100.049 77.2352 99.9999 50.0089C100.016 22.178 77.0952 -0.21095 49.5834 0.00149953ZM50.0081 99.0521C23.0191 99.0521 1.20899 77.1208 0.963929 50.4665C0.702534 23.2893 22.8721 0.753246 50.3676 0.949353C77.0298 1.14546 98.8563 22.8153 99.0524 49.6167C99.2484 77.0064 76.9645 99.0685 50.0081 99.0521Z" fill="#141517"/>
<path d="M93.1546 50.2214C93.171 26.6394 73.8931 7.35553 50.3512 7.33919C27.0544 7.32285 7.56415 26.2636 7.4988 50.1233C7.4988 73.7379 26.7277 92.9728 50.3349 92.9728C74.0401 92.9728 93.122 73.5745 93.1546 50.2214ZM50.7923 92.5969C27.2505 92.8421 7.89089 73.7543 7.89089 50.156C7.89089 26.6558 27.1034 7.51895 50.6943 7.71506C73.9748 7.91117 92.7789 26.9663 92.7789 50.1887C92.7462 73.4111 73.9258 92.3355 50.7923 92.5969Z" fill="#151618"/>
<path d="M80.7 49.8336C80.6836 32.5858 66.6316 19.0163 49.8835 19C32.9721 19 19.1815 32.6839 19.0017 49.5394C18.822 66.5584 32.5799 80.6836 49.8182 80.7C66.8113 80.7163 80.7163 66.9507 80.7 49.8336ZM49.8672 80.1278C33.0538 80.1278 19.5573 66.4439 19.5736 49.8009C19.59 33.1253 33.1518 19.5395 49.8835 19.5559C66.5663 19.5722 80.1281 33.1416 80.1444 49.85C80.1118 66.493 66.6153 80.1278 49.8672 80.1278Z" fill="#141517"/>
<path d="M46.8877 4.90419C46.9531 5.18201 46.7897 5.42714 46.7897 5.68862C46.7897 6.08083 46.9531 6.32597 47.2962 6.375C47.6556 6.42402 47.9333 6.22791 48.015 5.81936C48.064 5.55788 48.064 5.31275 47.917 4.9859C49.0116 5.2964 49.1586 4.80613 49.1913 4.2505C49.2076 3.76023 48.8645 3.48241 48.3908 3.61315C48.162 3.67852 47.9497 3.76023 47.7209 3.85828C47.77 3.53144 47.819 3.26996 47.8353 2.99214C47.8516 2.64895 47.6393 2.38747 47.3452 2.33845C47.0511 2.28942 46.7897 2.46919 46.6754 2.79603C46.5773 3.12288 46.561 3.44972 46.708 3.79291C45.9402 3.66217 45.7278 3.69486 45.5481 4.0217C45.352 4.36489 45.352 4.82248 45.5644 5.03493C46.0382 5.49251 46.463 5.06761 46.8877 4.90419Z" fill="#622F31"/>
<path d="M41.1044 5.90107C41.3168 5.80302 41.5128 5.65593 41.7252 5.5252C41.7905 5.81936 41.6435 6.06449 41.6598 6.32597C41.6925 6.6855 41.9212 6.96332 42.2316 6.97966C42.5747 6.996 42.8525 6.75087 42.8851 6.35865C42.9178 6.09718 42.9015 5.81936 42.7871 5.55788C42.9832 5.55788 43.1139 5.55788 43.2445 5.55788C43.555 5.55788 43.7673 5.4108 43.8327 5.13298C43.9144 4.82248 43.9961 4.46295 43.702 4.18513C43.4569 3.95634 43.1955 3.98902 42.9178 4.11976C42.7218 4.21781 42.5257 4.34855 42.297 4.47929C42.3297 4.31587 42.346 4.18513 42.3623 4.05439C42.3787 3.90731 42.395 3.76023 42.395 3.61315C42.395 3.23727 42.1826 2.9758 41.8559 2.94311C41.5291 2.91043 41.2841 3.12288 41.2024 3.49875C41.1371 3.79291 41.1207 4.08707 41.3004 4.36489C41.1697 4.46295 41.1044 4.43026 41.0227 4.43026C40.4019 4.41392 40.1732 4.64271 40.1405 5.24738C40.1405 5.81936 40.5979 6.12986 41.1044 5.90107Z" fill="#622F31"/>
<path d="M72.1287 10.673C71.9163 10.9345 71.7366 11.1633 71.6222 11.4411C71.4752 11.7843 71.6059 12.0948 71.9163 12.2419C72.2267 12.389 72.5371 12.2746 72.7168 11.9477C72.8312 11.7353 72.8965 11.4901 73.0109 11.2287C73.305 11.5228 73.501 11.9804 74.0238 11.8006C74.4159 11.6536 74.5303 11.2777 74.5466 10.9345C74.5793 10.2645 73.9421 10.3462 73.5337 10.1664C73.7297 9.93761 73.9258 9.74151 74.0075 9.44734C74.1382 9.02244 74.0728 8.74463 73.7297 8.59755C73.4193 8.45046 73.1579 8.59754 72.9129 8.97342C72.7822 9.18587 72.7822 9.46369 72.6025 9.65979C72.0797 9.08781 71.8673 8.97342 71.5569 9.1205C71.2792 9.23489 70.9851 9.74151 71.0341 10.052C71.1321 10.6403 71.6386 10.6076 72.1287 10.673Z" fill="#622F31"/>
<path d="M57.3435 5.44348C57.2455 5.7213 57.1312 5.96644 57.0821 6.21157C56.9841 6.60379 57.1802 6.91429 57.5232 6.996C57.8337 7.07771 58.1277 6.8816 58.2421 6.52207C58.3238 6.27694 58.3401 6.01546 58.3401 5.7213C58.7322 5.91741 59.0753 6.22791 59.4837 5.85204C59.6961 5.65593 59.8431 5.1003 59.7124 4.85516C59.4347 4.26684 58.9119 4.54466 58.4218 4.54466C58.5852 4.28318 58.6668 4.0217 58.7159 3.74388C58.7975 3.36801 58.6505 3.07385 58.3401 2.9758C58.0297 2.87774 57.7356 3.04117 57.5886 3.38435C57.4742 3.66217 57.4252 3.97268 57.4579 4.29952C57.0495 4.08707 56.7064 3.76023 56.2816 4.11976C56.0856 4.29952 55.9222 4.88785 56.0366 5.11664C56.3306 5.77033 56.8534 5.47617 57.3435 5.44348Z" fill="#622E31"/>
<path d="M66.8355 8.28704C67.0152 8.33607 67.2275 8.2707 67.4236 8.3851C67.3256 8.51583 67.2602 8.63023 67.1949 8.74463C67.1295 8.85902 67.0642 8.97342 67.0315 9.10416C66.9008 9.48003 67.0478 9.80688 67.3746 9.93761C67.685 10.052 68.0117 9.90493 68.1424 9.56174C68.2404 9.33295 68.2895 9.07147 68.3711 8.82634C68.6816 9.08782 68.8939 9.52906 69.4167 9.31661C69.6618 9.21855 69.9558 8.66292 69.9068 8.36875C69.7925 7.74775 69.237 7.8458 68.7306 7.78043C69.0246 7.48627 69.1717 7.20845 69.2534 6.91429C69.335 6.5711 69.2043 6.29328 68.9103 6.17889C68.6162 6.06449 68.3058 6.19523 68.1588 6.48939C68.0117 6.75087 67.9464 7.04503 67.8647 7.48627C67.7503 7.3065 67.7177 7.22479 67.6523 7.15942C67.0805 6.60379 66.6067 6.71818 66.3453 7.45359C66.182 7.86214 66.378 8.17265 66.8355 8.28704Z" fill="#622F31"/>
<path d="M62.4571 6.60379C62.3264 6.89795 62.212 7.12674 62.1303 7.37187C62.016 7.73141 62.1793 8.04191 62.4898 8.1563C62.7838 8.2707 63.1759 8.09094 63.2903 7.73141C63.3556 7.48627 63.4046 7.25748 63.421 6.96332C63.6334 7.09406 63.764 7.20845 63.9111 7.27382C64.1561 7.38822 64.3849 7.35553 64.5972 7.17577C64.7606 7.04503 64.7933 6.86526 64.8423 6.6855C64.9893 6.12986 64.7606 5.81936 64.1888 5.80301C64.0091 5.80301 63.8294 5.81936 63.617 5.81936C63.715 5.65593 63.7804 5.55788 63.8294 5.44348C63.8784 5.31275 63.9274 5.16566 63.9601 5.01858C64.0418 4.64271 63.9111 4.33221 63.6007 4.23415C63.2903 4.1361 63.0125 4.28318 62.8328 4.64271C62.7021 4.90419 62.7021 5.19835 62.6695 5.5252C62.261 5.2964 61.9179 4.92053 61.4605 5.31275C61.2481 5.50885 61.0848 6.06449 61.1991 6.29328C61.4605 6.86526 61.967 6.63647 62.4571 6.60379Z" fill="#622F31"/>
<path d="M52.2463 4.78979C52.1647 5.1003 52.083 5.34543 52.034 5.59056C51.9686 5.93375 52.1647 6.2606 52.4751 6.32597C52.8345 6.40768 53.1449 6.21157 53.2266 5.8357C53.2756 5.57422 53.3083 5.31275 53.2266 5.00224C53.9291 5.26372 54.1251 5.26372 54.3702 4.96956C54.5662 4.74076 54.6316 4.18513 54.5009 3.95633C54.1251 3.4007 53.6513 3.74389 53.1449 3.84194C53.2592 3.49875 53.3573 3.20459 53.3573 2.89409C53.3573 2.56724 53.1776 2.33845 52.8998 2.27308C52.5894 2.20771 52.328 2.37113 52.2137 2.69798C52.0993 2.99214 52.0993 3.31899 52.1156 3.62949C51.3805 3.43338 51.1681 3.44972 50.972 3.74388C50.7596 4.05439 50.7106 4.52832 50.9067 4.74077C51.2824 5.26372 51.7562 4.95322 52.2463 4.78979Z" fill="#622F31"/>
<path d="M35.321 7.15942C35.5497 7.3065 35.7948 7.27382 36.0072 7.14308C36.2032 7.01234 36.3993 6.86526 36.6607 6.65281C36.628 6.86526 36.6117 6.97966 36.5953 7.1104C36.579 7.24114 36.5626 7.37187 36.579 7.50261C36.6117 7.89483 36.8731 8.13996 37.2325 8.12362C37.5756 8.10728 37.7716 7.87849 37.8043 7.48627C37.8206 7.20845 37.7879 6.94697 37.6409 6.6855C38.5231 6.63647 38.7355 6.44036 38.6865 5.75399C38.6701 5.24738 38.2944 5.00224 37.8043 5.21469C37.5756 5.31274 37.3795 5.49251 37.1344 5.67228C37.1344 5.47617 37.1344 5.36177 37.1344 5.23103C37.1344 5.08395 37.1344 4.93687 37.1344 4.78979C37.1018 4.43026 36.9057 4.20147 36.5953 4.18513C36.2849 4.16878 36.0562 4.34855 35.9745 4.69174C35.8765 5.06761 35.9745 5.4108 36.2032 5.73764C35.3374 5.67228 35.1413 5.81936 35.0596 6.48939C34.9943 6.78355 35.0923 7.01234 35.321 7.15942Z" fill="#622F31"/>
<path d="M80.5913 16.785C80.428 16.9158 80.3136 16.9811 80.2156 17.0629C80.1176 17.1773 80.0195 17.2916 79.9542 17.4224C79.7418 17.7656 79.7908 18.1088 80.1012 18.3049C80.379 18.501 80.7547 18.3866 80.9671 18.0761C81.0978 17.88 81.1468 17.6348 81.3429 17.4714C81.4245 17.6512 81.4899 17.8473 81.5879 17.9944C81.7349 18.2232 81.931 18.4193 82.2414 18.3376C82.6172 18.2558 82.7642 17.929 82.8786 17.6185C82.9766 17.3407 82.8622 17.0955 82.6172 16.9321C82.4538 16.8341 82.2904 16.736 82.078 16.638C82.4211 16.4745 82.6335 16.2457 82.7805 15.9352C82.9439 15.5757 82.8786 15.2815 82.5845 15.1018C82.3231 14.9384 82.029 14.9874 81.8003 15.2815C81.6206 15.5103 81.4899 15.7555 81.3265 16.0006C81.0978 15.592 81.0161 15.0364 80.3626 15.1181C80.1176 15.1508 79.7418 15.6084 79.7091 15.9026C79.6765 16.4909 80.1339 16.6053 80.5913 16.785Z" fill="#622F31"/>
<path d="M76.4417 13.4839C76.2457 13.6963 76.0496 13.8924 75.9189 14.1376C75.7392 14.5135 75.8046 14.8076 76.115 15.0037C76.4254 15.1835 76.7521 15.0854 76.9645 14.7259C77.0789 14.5135 77.1769 14.2847 77.2749 14.0559C77.5363 14.4154 77.667 14.922 78.2715 14.7913C78.5329 14.7259 78.8433 14.301 78.8596 13.9578C78.8759 13.3532 78.3368 13.3205 77.9121 13.1407C78.1898 12.9283 78.4022 12.7158 78.5165 12.4053C78.6472 12.0294 78.5819 11.7516 78.2878 11.5882C78.0101 11.4248 77.6833 11.5228 77.4709 11.8497C77.3239 12.0785 77.2096 12.3399 77.0789 12.6014C76.8175 12.2092 76.6541 11.7353 76.0659 11.866C75.8209 11.915 75.4615 12.4053 75.4778 12.6995C75.4778 13.2878 76.0006 13.3368 76.4417 13.4839Z" fill="#622F31"/>
<path d="M83.532 19.5142C83.4013 19.7757 83.4504 20.0208 83.6954 20.2169C83.8588 20.3477 84.0222 20.4621 84.1855 20.5765C83.7444 20.8216 83.7444 20.8216 83.532 21.1157C83.2543 21.4753 83.287 21.8021 83.6137 22.0473C83.8914 22.2434 84.2345 22.178 84.4959 21.8675C84.6266 21.7041 84.7246 21.5243 84.888 21.2955C84.9697 21.5406 85.0187 21.6877 85.0677 21.8511C85.1821 22.129 85.3781 22.3414 85.6885 22.3251C86.0806 22.3087 86.244 21.9655 86.391 21.6714C86.5381 21.4099 86.4074 21.1648 86.2113 20.9687C86.0806 20.8379 85.8846 20.7889 85.7866 20.6091C86.293 20.3313 86.342 20.2986 86.5217 19.9554C86.7014 19.6123 86.6524 19.3181 86.3747 19.122C86.1133 18.9422 85.8192 18.9749 85.5742 19.2527C85.3945 19.4652 85.2311 19.694 85.0351 19.9391C84.9534 19.694 84.9044 19.4979 84.8227 19.3181C84.7083 19.0566 84.5123 18.8769 84.2182 18.8932C83.8588 18.8932 83.6791 19.22 83.532 19.5142Z" fill="#622F31"/>
<path d="M26.3846 11.6372C26.548 11.5228 26.695 11.3757 26.8093 11.196C26.8747 11.0979 26.8747 10.9345 27.0707 10.9672C27.1034 11.245 27.0871 11.5392 27.2014 11.8006C27.3485 12.1275 27.5935 12.2746 27.9203 12.2092C28.2143 12.1438 28.4104 11.866 28.3941 11.5392C28.3777 11.2123 28.296 10.9182 28.0183 10.6894C28.2143 10.624 28.3777 10.6076 28.5248 10.5259C28.8188 10.3952 28.9168 10.1501 28.8842 9.83956C28.8678 9.52906 28.8025 9.2349 28.4757 9.10416C28.198 8.98976 27.953 9.10416 27.7732 9.31661C27.5935 9.49637 27.4302 9.69248 27.2505 9.90493C27.2014 9.56174 27.1688 9.26758 27.0871 8.97342C27.0054 8.66292 26.744 8.48315 26.4663 8.49949C26.1722 8.53218 25.9598 8.77731 25.9108 9.10416C25.8618 9.51272 26.0415 9.82322 26.3356 10.1174C26.1885 10.1501 26.0742 10.1664 25.9762 10.1991C25.4534 10.3789 25.241 10.9508 25.5187 11.4248C25.7148 11.768 26.0905 11.866 26.3846 11.6372Z" fill="#622F31"/>
<path d="M30.4362 9.28392C30.7629 9.431 31.008 9.26758 31.2367 9.05513C31.4001 8.92439 31.4818 8.6956 31.7268 8.59755C31.7268 8.79365 31.7105 8.94074 31.7268 9.08782C31.7432 9.2349 31.7595 9.38198 31.8085 9.52906C31.9229 9.82322 32.1843 9.98664 32.462 9.93761C32.7397 9.88859 32.9195 9.6598 32.9521 9.34929C32.9848 9.0061 32.9195 8.6956 32.6907 8.41778C33.4749 8.2707 33.6873 8.02557 33.5893 7.38822C33.5076 6.88161 33.0665 6.66916 32.6254 6.93063C32.3803 7.07771 32.217 7.32285 31.9392 7.58432C31.9229 7.24114 31.9229 6.97966 31.8902 6.73452C31.8249 6.32597 31.5471 6.09718 31.2204 6.12986C30.8936 6.16254 30.7303 6.40768 30.6813 6.79989C30.6322 7.17577 30.861 7.45359 31.008 7.76409C30.8446 7.78043 30.7303 7.78043 30.6322 7.79677C30.2728 7.87849 30.1258 8.04191 30.0768 8.40144C30.0441 8.87537 30.1421 9.15318 30.4362 9.28392Z" fill="#622F31"/>
<path d="M86.6851 26.1982C86.9628 26.427 87.3059 26.4106 87.5837 26.1001C87.7307 25.9367 87.8614 25.757 87.9921 25.5772C88.1064 25.6589 88.0574 25.757 88.0738 25.8387C88.0901 25.9367 88.1228 26.0184 88.1391 26.1165C88.2535 26.4924 88.4495 26.6885 88.7273 26.7048C89.1357 26.7212 89.3154 26.4106 89.4788 26.1165C89.6258 25.855 89.5441 25.6262 89.3154 25.3484C89.201 25.234 89.005 25.185 88.9887 24.9889C89.4788 24.8254 89.5768 24.7601 89.7892 24.4332C90.0016 24.1227 89.9852 23.8449 89.7565 23.6161C89.5114 23.3873 89.1847 23.3873 88.907 23.6488C88.7109 23.8449 88.5312 24.0574 88.2862 24.3352C88.2698 23.992 88.2371 23.7305 88.1228 23.4854C87.9431 23.1422 87.5837 23.0278 87.2733 23.2239C86.6688 23.5834 86.6198 24.1391 87.1589 24.5967C87.2406 24.662 87.3549 24.6784 87.3876 24.8091C86.9302 25.0379 86.8485 25.1033 86.6688 25.3321C86.391 25.6426 86.4074 25.9694 86.6851 26.1982Z" fill="#622F32"/>
<path d="M22.0879 14.5788C22.3493 14.3827 22.4146 14.0559 22.6597 13.8107C22.7251 14.1049 22.7741 14.3664 22.8558 14.6115C22.9864 14.9547 23.2969 15.1181 23.6236 15.0201C23.9177 14.9547 24.0647 14.6769 24.0647 14.3173C24.0484 13.9742 23.885 13.6963 23.5746 13.4512C23.8196 13.4022 23.983 13.3368 24.1137 13.2388C24.3914 13.059 24.4078 12.7975 24.3588 12.487C24.3098 12.1929 24.1954 11.9477 23.885 11.866C23.5909 11.7843 23.3785 11.9477 23.1988 12.1602C23.0355 12.3563 22.9048 12.5851 22.7251 12.8465C22.676 12.6014 22.627 12.4053 22.5944 12.2092C22.5617 12.0294 22.4963 11.8497 22.382 11.7026C22.0879 11.3594 21.4998 11.4411 21.3854 11.8823C21.3037 12.2255 21.2874 12.6014 21.5978 12.8792C21.6958 12.9609 21.8428 13.01 21.8265 13.1734C21.7121 13.2061 21.6141 13.2224 21.4998 13.2714C21.0096 13.4839 20.8626 14.1376 21.2057 14.5461C21.4344 14.824 21.7775 14.824 22.0879 14.5788Z" fill="#622F31"/>
<path d="M89.6421 28.0612C89.4788 28.339 89.4951 28.5515 89.6912 28.8456C89.7892 28.9927 90.0179 29.0418 90.0179 29.2705C89.5441 29.4013 89.4788 29.434 89.2501 29.7118C88.9887 30.006 88.9723 30.3165 89.201 30.5616C89.4461 30.8231 89.7892 30.8394 90.0996 30.5616C90.2793 30.4145 90.4263 30.2347 90.6224 30.0386C90.6387 30.2674 90.6387 30.4635 90.6714 30.6433C90.7204 30.9375 90.8511 31.1826 91.1778 31.2316C91.5863 31.297 91.7823 31.0192 91.9947 30.7414C92.1744 30.4962 92.1254 30.2511 91.9457 30.006C91.8313 29.8589 91.6516 29.7772 91.5863 29.5647C91.9457 29.5484 92.2398 29.4013 92.4521 29.1235C92.6972 28.813 92.7135 28.5025 92.5012 28.2573C92.2561 27.9958 91.9294 27.9958 91.6026 28.2737C91.4229 28.4371 91.2759 28.6332 91.1125 28.813C91.0798 28.7966 91.0471 28.7803 90.9981 28.7476C90.9818 28.5678 90.9818 28.3881 90.9491 28.2083C90.9001 27.9141 90.7858 27.669 90.459 27.5873C90.1813 27.5383 89.8709 27.718 89.6421 28.0612Z" fill="#612F31"/>
<path d="M92.5175 32.3919C91.8803 32.49 91.5863 33.1764 91.9947 33.6993C92.06 33.781 92.1581 33.8627 92.1907 34.0425C91.864 34.0425 91.6026 34.1406 91.3739 34.3693C91.0635 34.6798 90.9981 34.9577 91.2268 35.2518C91.4556 35.5623 91.7987 35.5623 92.1581 35.3009C92.3214 35.1701 92.4358 34.9577 92.6645 34.9086C92.6645 35.1701 92.6482 35.3826 92.6645 35.6114C92.7135 36.0526 93.1546 36.3141 93.5141 36.1343C94.0859 35.8728 94.2166 35.3662 93.8571 34.8596C93.7918 34.7779 93.6774 34.7125 93.7264 34.5491C94.1839 34.6145 94.5106 34.3693 94.7557 34.0262C95.0171 33.6503 94.7557 33.1437 94.2982 33.111C94.1022 33.0946 93.9388 33.209 93.7918 33.3234C93.5957 33.4705 93.4487 33.683 93.171 33.7974C93.22 33.4705 93.269 33.1927 93.1873 32.9149C93.0893 32.5553 92.8116 32.3592 92.5175 32.3919Z" fill="#622F32"/>
<path d="M94.5433 37.5398C94.1839 37.3763 93.9388 37.6051 93.6938 37.8176C93.4487 38.03 93.4324 38.2588 93.5631 38.5857C93.6284 38.7327 93.7591 38.8471 93.7755 39.0106C93.171 39.0923 93.122 39.0923 92.8279 39.3537C92.5338 39.6152 92.4848 39.8604 92.6645 40.1382C92.8606 40.4323 93.171 40.5304 93.4977 40.3343C93.7264 40.2035 93.9225 40.0401 94.2166 39.844C94.1349 40.1872 94.0205 40.4323 94.0532 40.6938C94.0859 41.1351 94.478 41.4292 94.87 41.2821C95.4255 41.0697 95.6052 40.6121 95.3275 40.0728C95.2785 39.9911 95.1641 39.9094 95.2621 39.746C95.7032 39.8767 96.0463 39.6643 96.3241 39.3374C96.4874 39.1576 96.5201 38.9288 96.3894 38.7164C96.2587 38.4713 96.0463 38.3732 95.7849 38.4059C95.6052 38.4222 95.4745 38.5203 95.3275 38.6183C95.1641 38.7327 95.0007 38.8308 94.7884 38.9779C94.8374 38.6837 94.9027 38.4876 94.9191 38.2915C94.9354 37.9156 94.8047 37.6541 94.5433 37.5398Z" fill="#622F32"/>
<path d="M17.1051 17.88C17.1541 18.1414 17.3501 18.3049 17.6115 18.3539C17.9383 18.4029 18.1343 18.2068 18.2977 17.9617C18.4447 17.7329 18.4774 17.4714 18.5917 17.2099C18.7878 17.4878 18.7878 17.8309 18.9838 18.0761C19.1962 18.3376 19.4249 18.4356 19.7027 18.3376C19.9967 18.2232 20.1438 17.9617 20.0948 17.6185C20.0458 17.2263 19.8334 16.9648 19.4903 16.785C19.67 16.687 19.817 16.6216 19.9477 16.5236C20.2255 16.3111 20.1928 16.0169 20.1274 15.7064C20.0621 15.4286 19.9151 15.2162 19.621 15.1671C19.2942 15.1018 19.0982 15.2979 18.9348 15.5594C18.7551 15.8372 18.6734 16.1313 18.5754 16.4582C18.4447 16.0823 18.3957 15.6738 18.167 15.3469C18.0363 15.1508 17.8402 15.0364 17.5952 15.0691C17.3338 15.1181 17.1377 15.2815 17.1051 15.543C17.0561 15.8862 17.1051 16.2131 17.3991 16.4582C17.4972 16.5399 17.6769 16.5562 17.7259 16.7197C17.5625 16.8177 17.4155 16.8994 17.2848 16.9975C16.9744 17.2263 17.0561 17.5695 17.1051 17.88Z" fill="#623032"/>
<path d="M96.9285 49.2245C96.6508 49.3225 96.4057 49.4533 96.079 49.584C96.177 49.3879 96.2424 49.2735 96.3077 49.1264C96.3731 48.9957 96.4221 48.8486 96.4548 48.7015C96.5201 48.4401 96.4384 48.2113 96.226 48.0642C96.03 47.9171 95.8176 47.9171 95.5889 48.0315C95.0824 48.2603 94.9681 48.5218 95.1151 49.0611C95.1478 49.1591 95.2458 49.2408 95.1805 49.3552C94.5923 49.2735 94.478 49.2899 94.2166 49.4369C93.8571 49.6494 93.7264 49.9599 93.8898 50.2704C94.0532 50.5972 94.3473 50.6953 94.7557 50.5482C94.9517 50.4829 95.1478 50.3848 95.3928 50.2704C95.2785 50.5482 95.1968 50.7607 95.1151 50.9568C95.0171 51.2346 95.0824 51.4797 95.3111 51.6595C95.5399 51.8556 95.7849 51.8229 96.0463 51.6758C96.5038 51.4144 96.5854 51.2019 96.4548 50.7116C96.4221 50.6136 96.3567 50.5155 96.3894 50.3521C96.7652 50.4828 97.1409 50.5809 97.484 50.2867C97.7781 50.0416 97.8761 49.7965 97.7617 49.5187C97.5984 49.2245 97.288 49.0938 96.9285 49.2245Z" fill="#622F31"/>
<path d="M95.9156 43.6354C96.0136 43.2269 95.9156 42.9327 95.6542 42.7856C95.4092 42.6385 95.0824 42.7039 94.772 42.949C94.527 43.1452 94.4616 43.3903 94.5596 43.7008C94.6086 43.8642 94.7393 43.9786 94.7557 44.1747C94.4453 44.2074 94.1185 44.142 93.8408 44.3545C93.4977 44.6323 93.367 44.9101 93.5467 45.2043C93.7591 45.5475 94.0695 45.6292 94.4616 45.4004C94.6577 45.286 94.8374 45.1716 95.0824 45.0082C95.0007 45.3677 94.821 45.6455 94.87 45.9724C94.9191 46.3319 95.2295 46.5934 95.5725 46.528C96.128 46.4136 96.3894 45.9233 96.177 45.384C96.1443 45.286 96.0463 45.2043 96.0953 45.0572C96.4384 45.0735 96.7815 45.1226 97.0919 44.8448C97.386 44.5669 97.484 44.2891 97.3206 44.0113C97.1409 43.7335 96.8468 43.6354 96.4874 43.8152C96.2424 43.9296 95.9973 44.0767 95.7032 44.2401C95.8013 44.0276 95.8666 43.8315 95.9156 43.6354Z" fill="#622F31"/>
<path d="M13.805 20.4621C13.903 20.5111 14.0827 20.4947 14.099 20.6745C13.9683 20.7726 13.8213 20.8706 13.7069 20.9687C13.4129 21.2301 13.5109 21.557 13.6089 21.8511C13.6906 22.0963 13.8703 22.2434 14.1644 22.2434C14.5075 22.2434 14.6872 22.0473 14.8015 21.7694C14.8995 21.557 14.9486 21.3282 15.0466 21.034C15.2426 21.3282 15.2916 21.6387 15.504 21.8511C15.7491 22.1126 15.9941 22.1617 16.2555 22.0309C16.5333 21.8838 16.6149 21.655 16.5823 21.3282C16.5496 20.9033 16.2229 20.7072 15.8961 20.5111C16.0431 20.413 16.1738 20.3477 16.2719 20.2659C16.6149 19.9718 16.5169 19.22 16.1248 19.0076C15.8308 18.8442 15.4713 18.9586 15.2753 19.3181C15.1283 19.5959 15.0466 19.8901 14.9322 20.2169C14.7852 19.8901 14.7035 19.5632 14.5075 19.3181C14.3114 19.0566 14.0173 18.9749 13.7559 19.0893C13.4945 19.2037 13.3638 19.4652 13.4129 19.792C13.4129 20.0698 13.5272 20.315 13.805 20.4621Z" fill="#623032"/>
<path d="M96.9939 54.7809C96.7978 54.7482 96.6181 54.8136 96.4384 54.8626C96.275 54.8953 96.1117 55.0587 95.9156 54.977C96.0627 54.7155 96.226 54.4867 96.3241 54.2252C96.4711 53.8494 96.2587 53.4735 95.8829 53.4081C95.3438 53.3101 94.87 53.7513 94.9517 54.307C94.9681 54.454 95.0988 54.5848 94.9844 54.7318C94.4289 54.5194 94.2819 54.5031 93.9715 54.6665C93.6447 54.8299 93.4977 55.1077 93.5794 55.3855C93.6611 55.696 93.9552 55.8922 94.3146 55.8268C94.576 55.7778 94.8047 55.6797 95.1151 55.598C94.9354 55.8758 94.7393 56.0883 94.6413 56.3661C94.5596 56.5949 94.5923 56.8073 94.7557 56.9871C94.9354 57.1832 95.1641 57.2486 95.4255 57.1505C95.8993 56.9871 96.079 56.7256 96.03 56.219C96.0136 56.1046 95.8993 55.9902 96.0136 55.8595C96.0953 55.8922 96.177 55.9412 96.2587 55.9739C96.6181 56.17 96.9449 56.0719 97.2553 55.8431C97.4513 55.696 97.5493 55.4999 97.5003 55.2548C97.435 54.9933 97.2553 54.8299 96.9939 54.7809Z" fill="#622F31"/>
<path d="M10.5212 24.8908C10.6519 24.9398 10.7826 24.9562 10.9623 25.0052C10.7989 25.1686 10.6519 25.2994 10.5375 25.4465C10.3088 25.757 10.4395 26.0511 10.5702 26.3453C10.6846 26.5741 10.8969 26.6558 11.142 26.6394C11.4687 26.6068 11.6158 26.3943 11.7138 26.1001C11.7955 25.855 11.7628 25.5935 11.8118 25.283C12.0242 25.5608 12.1712 25.7896 12.3673 25.9857C12.596 26.2472 12.9391 26.2799 13.1841 26.1165C13.4129 25.9694 13.4619 25.6916 13.4129 25.3811C13.3312 24.9235 12.9881 24.7928 12.5797 24.6784C12.743 24.5313 12.8411 24.4496 12.9227 24.3515C13.1841 24.0737 13.1025 23.7632 12.9554 23.469C12.8247 23.1912 12.596 23.0605 12.3346 23.1095C12.0079 23.1585 11.8772 23.4037 11.7955 23.6815C11.7138 23.943 11.6975 24.2208 11.6648 24.5149C11.5014 24.3679 11.4524 24.1881 11.3544 24.0247C11.24 23.8449 11.1257 23.6815 10.9459 23.5671C10.5865 23.322 10.1127 23.5181 10.0147 23.9266C9.93304 24.2861 10.1781 24.7601 10.5212 24.8908Z" fill="#622F31"/>
<path d="M95.8829 60.1248C95.5725 60.1575 95.2621 60.2229 94.9027 60.2882C95.1314 59.9777 95.3928 59.7653 95.4909 59.4221C95.5889 59.0952 95.4418 58.7684 95.1314 58.654C94.6903 58.4906 94.1512 58.8664 94.1022 59.324C94.0859 59.5038 94.1675 59.6836 94.0695 59.8797C93.7101 59.6509 93.367 59.5365 92.9913 59.7489C92.6972 59.896 92.5665 60.1411 92.6318 60.4353C92.6809 60.7131 92.9096 60.8929 93.2363 60.9092C93.5141 60.9256 93.7918 60.8439 94.0859 60.7948C93.9225 61.0236 93.7428 61.2197 93.6284 61.4485C93.5141 61.6773 93.4977 61.9061 93.6774 62.1349C93.8735 62.38 94.1022 62.4127 94.3799 62.331C94.821 62.2003 95.0171 61.9225 94.9844 61.4485C94.9844 61.3341 94.8864 61.2361 94.9844 61.1053C95.1314 61.1871 95.2785 61.2688 95.4255 61.3341C95.7523 61.4649 96.2424 61.3178 96.4384 61.0563C96.5691 60.8766 96.5854 60.6641 96.4874 60.468C96.3731 60.2065 96.1443 60.0921 95.8829 60.1248Z" fill="#622F31"/>
<path d="M7.90723 29.5484C8.02159 29.5811 8.16862 29.5157 8.26665 29.6791C8.15229 29.8262 8.00525 29.9569 7.90723 30.104C7.71118 30.3982 7.84188 30.6923 7.98892 30.9538C8.11961 31.1826 8.34833 31.2806 8.60973 31.2316C8.9038 31.1826 9.01816 30.9538 9.11618 30.6923C9.19787 30.4472 9.13252 30.1857 9.23054 29.8752C9.45926 30.1203 9.58996 30.3818 9.80234 30.5452C10.0311 30.725 10.2925 30.7414 10.5375 30.6106C10.7826 30.4635 10.8643 30.1857 10.7826 29.8752C10.6682 29.434 10.3415 29.2542 9.86769 29.2052C9.99839 29.0581 10.0637 28.9764 10.1454 28.8947C10.3905 28.6169 10.4068 28.3881 10.2271 28.0285C10.0964 27.7671 9.9167 27.6036 9.62263 27.6363C9.32856 27.6527 9.16519 27.8324 9.05083 28.241C8.96915 28.5025 9.0345 28.7803 8.95281 29.1235C8.80577 28.911 8.72409 28.7639 8.60973 28.6169C8.49537 28.4534 8.34833 28.29 8.16862 28.192C7.79287 27.9959 7.33543 28.2573 7.30275 28.6822C7.25374 29.0581 7.53147 29.434 7.90723 29.5484Z" fill="#622F32"/>
<path d="M5.86508 34.5164C5.97944 34.5328 6.12648 34.4674 6.24084 34.5818C6.12648 34.7452 5.99578 34.9086 5.89776 35.0884C5.71805 35.3989 5.88142 35.6767 6.04479 35.9219C6.19183 36.1507 6.45322 36.1833 6.69828 36.1016C7.00868 36.0036 7.12304 35.7584 7.13938 35.4479C7.15572 35.2028 7.13938 34.9577 7.13938 34.7125C7.30275 34.7452 7.35177 34.9086 7.44979 35.0067C7.58049 35.1211 7.69485 35.2355 7.84188 35.3335C8.08694 35.4806 8.332 35.4479 8.56072 35.2682C8.78944 35.0721 8.78944 34.8433 8.70775 34.5981C8.60973 34.304 8.43002 34.0752 8.08694 34.0098C7.97258 33.9935 7.82554 34.0588 7.74386 33.8791C7.82554 33.781 7.92357 33.683 7.98892 33.5686C8.21764 33.2581 8.08694 32.9639 7.89089 32.6861C7.74386 32.4573 7.53147 32.3756 7.25374 32.441C6.97601 32.5063 6.81264 32.7351 6.77996 33.1273C6.76363 33.3725 6.77996 33.6339 6.77996 33.9771C6.60026 33.781 6.50223 33.6339 6.37154 33.5032C6.2245 33.3561 6.0938 33.209 5.88142 33.1273C5.522 32.9966 5.12991 33.2417 5.09723 33.6176C5.0809 34.0752 5.40764 34.4674 5.86508 34.5164Z" fill="#622F32"/>
<path d="M94.625 65.3543C94.4453 65.289 94.2656 65.2726 94.0695 65.3053C93.8898 65.338 93.7101 65.387 93.4814 65.338C93.6938 65.0765 93.9715 64.8968 94.1022 64.6026C94.2982 64.1777 94.0369 63.7201 93.5794 63.7201C93.0893 63.7201 92.7789 63.9979 92.7462 64.5045C92.7462 64.6353 92.7789 64.766 92.7135 64.8804C92.5175 64.8641 92.4031 64.6843 92.2234 64.6353C91.9457 64.5372 91.5373 64.6189 91.3412 64.815C91.1615 64.9948 91.1288 65.2073 91.2105 65.4361C91.2922 65.6975 91.5699 65.8446 91.9457 65.8283C92.1417 65.8283 92.3214 65.8119 92.5828 65.7956C92.4031 65.9917 92.2724 66.1224 92.1581 66.2695C91.8967 66.5964 91.8803 66.8905 92.0764 67.1356C92.2888 67.3808 92.5665 67.4298 92.9423 67.2664C93.1873 67.1683 93.3344 66.9886 93.3507 66.7107C93.367 66.531 93.367 66.3676 93.3834 66.1878C93.5631 66.2041 93.6284 66.3349 93.7428 66.4002C94.0695 66.5964 94.4453 66.5963 94.7393 66.3839C94.9191 66.2532 95.0171 66.0897 95.0007 65.8609C95.0007 65.6158 94.8537 65.4524 94.625 65.3543Z" fill="#612F31"/>
<path d="M92.2071 70.4041C91.962 70.3714 91.7006 70.3387 91.4066 70.3061C91.6516 70.1099 91.8477 69.9465 92.0437 69.7831C92.2561 69.587 92.3214 69.3419 92.2071 69.064C92.0764 68.7862 91.8477 68.7045 91.5536 68.7208C91.1452 68.7535 90.9491 68.9006 90.8348 69.3092C90.8021 69.4563 90.7694 69.6033 90.7204 69.7668C90.5734 69.636 90.459 69.5216 90.3283 69.4236C90.0506 69.2275 89.6421 69.2438 89.3807 69.4236C89.152 69.587 89.0867 69.8158 89.152 70.0773C89.2174 70.3714 89.4788 70.5348 89.8872 70.5512C90.0669 70.5512 90.2303 70.5512 90.4427 70.5512C90.3446 70.7636 90.1976 70.78 90.0996 70.8617C90.0016 70.9434 89.8872 71.0251 89.8055 71.1232C89.6258 71.3193 89.5441 71.5317 89.6748 71.7932C89.7892 72.0383 90.0016 72.1364 90.263 72.1364C90.7041 72.1364 90.9654 71.9403 91.0635 71.499C91.0961 71.3683 91.0961 71.2212 91.1452 70.9434C91.3575 71.2049 91.4719 71.3846 91.6353 71.5154C91.864 71.7115 92.2561 71.6788 92.5338 71.499C92.7462 71.352 92.8279 71.1558 92.7789 70.9107C92.7462 70.5839 92.5011 70.4531 92.2071 70.4041Z" fill="#622F32"/>
<path d="M86.342 79.5558C86.2277 79.5068 86.097 79.4741 85.9663 79.4414C85.8519 79.4087 85.6886 79.4577 85.6395 79.278C85.9173 79.1472 86.244 79.0655 86.4727 78.8367C86.8322 78.4935 86.7178 77.9706 86.244 77.8072C85.8519 77.6764 85.4925 77.8235 85.2965 78.183C85.2148 78.3301 85.2475 78.5262 85.0677 78.6243C84.9534 78.4609 84.839 78.2811 84.7083 78.1504C84.4796 77.9216 84.1692 77.8725 83.8751 77.9869C83.6301 78.085 83.4994 78.2811 83.5157 78.5589C83.532 78.8694 83.6791 79.0655 84.0548 79.1799C84.2509 79.2453 84.4469 79.278 84.7247 79.3433C84.3979 79.5395 84.0712 79.5721 83.8261 79.8173C83.6464 79.997 83.5811 80.1931 83.6627 80.4219C83.7444 80.6507 83.9078 80.7978 84.1529 80.8468C84.5123 80.9285 84.8063 80.7815 85.0187 80.4546C85.1168 80.3075 85.0841 80.0787 85.2801 79.9807C85.3945 80.1605 85.4925 80.3402 85.6232 80.4873C85.8193 80.7324 86.2113 80.7978 86.5054 80.6671C86.7341 80.569 86.8648 80.4056 86.8812 80.1605C86.8812 79.9317 86.7178 79.7029 86.342 79.5558Z" fill="#622F32"/>
<path d="M4.36206 39.7786C4.5091 39.7786 4.65613 39.7623 4.8195 39.746C4.72148 39.9257 4.60712 40.0728 4.54177 40.2362C4.41107 40.514 4.49276 40.8899 4.72148 41.1187C4.91753 41.3148 5.22793 41.3638 5.44032 41.2331C5.66904 41.1024 5.81607 40.7919 5.76706 40.4487C5.73439 40.2199 5.66904 39.9911 5.60369 39.7133C5.89776 39.9257 6.11014 40.1545 6.42055 40.2853C6.84531 40.4487 7.25374 40.2035 7.28642 39.7786C7.31909 39.3864 6.99235 39.0106 6.60026 38.9615C6.43688 38.9452 6.27351 39.0432 6.0938 38.9615C6.17549 38.8144 6.27351 38.6837 6.33886 38.5366C6.45322 38.2588 6.37154 37.8993 6.11014 37.6705C5.9141 37.4907 5.68537 37.4417 5.44032 37.5561C5.12991 37.7032 5.0809 37.9646 5.09724 38.2588C5.11357 38.5366 5.17892 38.7981 5.22793 39.1413C5.06456 38.9942 4.9502 38.8798 4.8195 38.7818C4.68881 38.6837 4.55811 38.5693 4.39474 38.5039C4.13334 38.3895 3.88828 38.3895 3.6759 38.6183C3.47985 38.8144 3.47985 39.0596 3.57788 39.3047C3.70858 39.6316 3.96997 39.795 4.36206 39.7786Z" fill="#622F32"/>
<path d="M89.5278 75.0617C89.2827 75.0126 89.0377 74.9799 88.7273 74.9146C88.9723 74.7512 89.1684 74.6531 89.3481 74.5224C89.7075 74.2445 89.7892 73.9994 89.6585 73.7052C89.5114 73.3947 89.201 73.264 88.7926 73.3621C88.5312 73.4274 88.3842 73.6072 88.2862 73.836C88.2208 73.9831 88.2535 74.1628 88.1391 74.3099C87.9921 74.2772 87.9431 74.1301 87.8777 74.0484C87.649 73.787 87.3713 73.7543 87.0609 73.8033C86.8158 73.836 86.6524 73.9831 86.5871 74.2119C86.5217 74.4733 86.5871 74.6858 86.7995 74.8655C86.9628 74.9963 87.1589 75.0453 87.3713 75.0617C87.5183 75.078 87.6817 75.078 87.9267 75.0943C87.7144 75.2251 87.6 75.2905 87.4856 75.3558C87.3713 75.4212 87.2732 75.5029 87.1752 75.5846C86.9628 75.7807 86.8648 75.9932 86.9792 76.2873C87.0935 76.5651 87.3059 76.6632 87.6653 76.6469C88.0084 76.6305 88.2208 76.4671 88.3352 76.1566C88.3842 76.0095 88.4169 75.8461 88.4822 75.601C88.6619 75.8134 88.7763 75.9932 88.9396 76.1239C89.152 76.32 89.5605 76.3364 89.8382 76.1729C90.0506 76.0422 90.1649 75.8624 90.1486 75.6173C90.1159 75.3558 89.9035 75.1434 89.5278 75.0617Z" fill="#612F32"/>
<path d="M83.1563 82.285C83.1399 82.0071 82.9766 81.8437 82.7152 81.762C82.3558 81.6313 82.0617 81.713 81.833 82.0562C81.7349 82.2196 81.6533 82.383 81.5552 82.5628C81.4409 82.3503 81.3592 82.1542 81.2285 82.0071C81.0161 81.7457 80.7384 81.664 80.4116 81.7457C80.1502 81.811 79.9869 81.9908 79.9705 82.2686C79.9379 82.5955 80.1502 82.7752 80.3953 82.9386C80.5913 83.053 80.8364 83.053 80.9998 83.2165C80.7711 83.2982 80.5423 83.3635 80.3463 83.4616C80.0195 83.6087 79.8725 83.8865 79.9542 84.1807C80.0195 84.4748 80.2809 84.6382 80.6404 84.6546C80.9344 84.6709 81.1305 84.5402 81.2938 84.3114C81.3919 84.148 81.4245 83.9519 81.5879 83.8211C81.6859 84.0663 81.7676 84.3114 81.9473 84.5075C82.1597 84.7363 82.4375 84.769 82.7315 84.7036C82.9929 84.6382 83.1563 84.4421 83.1726 84.1807C83.189 83.8865 83.0256 83.6741 82.7642 83.5597C82.5028 83.4289 82.2087 83.3309 81.931 83.2328C82.2414 83.0857 82.5845 83.0694 82.8622 82.8733C83.0583 82.7099 83.1726 82.5301 83.1563 82.285Z" fill="#612F32"/>
<path d="M3.41451 45.0899C3.57788 45.0735 3.72491 44.9265 3.88828 45.0409C3.8066 45.237 3.70858 45.4167 3.65956 45.6128C3.57788 45.9397 3.74125 46.2012 3.98631 46.3973C4.18235 46.5607 4.39474 46.5444 4.62346 46.43C4.91753 46.2665 4.98288 46.0051 4.91753 45.7109C4.86852 45.4658 4.78683 45.2043 4.68881 44.8774C5.01555 45.0899 5.26061 45.3023 5.58735 45.3841C5.96311 45.4658 6.32252 45.2043 6.3552 44.8448C6.38787 44.4689 6.02846 44.0603 5.63636 44.0603C5.45665 44.0603 5.27694 44.093 5.06456 44.1094C5.14625 43.9459 5.22793 43.8152 5.27694 43.6845C5.39131 43.3739 5.30962 43.0798 5.03189 42.8347C4.8195 42.6549 4.60712 42.5895 4.36206 42.7366C4.10067 42.8837 3.98631 43.1288 4.05166 43.5047C4.10067 43.7662 4.18235 44.0113 4.26404 44.3381C3.92096 44.1094 3.6759 43.8806 3.34916 43.7825C3.08776 43.7008 2.85904 43.7498 2.67933 43.9459C2.49962 44.1584 2.49962 44.3872 2.59765 44.6323C2.77736 44.9918 3.02241 45.1226 3.41451 45.0899Z" fill="#623032"/>
<path d="M3.1041 50.4992C3.28381 50.4828 3.43084 50.3358 3.64323 50.3848C3.57788 50.5646 3.49619 50.7443 3.46352 50.9077C3.39817 51.2019 3.56154 51.5778 3.82294 51.7249C4.03532 51.8556 4.2477 51.8393 4.46009 51.7085C4.72148 51.5451 4.80317 51.3 4.70514 50.9077C4.6398 50.6626 4.52543 50.4338 4.41107 50.1233C4.73782 50.3358 4.99921 50.4828 5.29328 50.5319C5.76706 50.6299 6.14282 50.2541 6.04479 49.8292C5.96311 49.4533 5.58735 49.2082 5.2116 49.2408C5.04822 49.2572 4.91753 49.4043 4.72148 49.3225C4.78683 49.1591 4.85218 49.012 4.88485 48.8486C4.98288 48.5054 4.77049 48.2766 4.54177 48.0805C4.34573 47.9008 4.08433 47.9171 3.85561 48.0642C3.62689 48.2113 3.5452 48.4727 3.62689 48.8159C3.70858 49.0938 3.8066 49.3716 3.92096 49.6821C3.56154 49.5023 3.28381 49.2735 2.92439 49.2082C2.67933 49.1755 2.48329 49.2408 2.33625 49.4369C2.18922 49.6331 2.18922 49.8455 2.28724 50.0743C2.46695 50.4338 2.71201 50.5646 3.1041 50.4992Z" fill="#612F32"/>
<path d="M79.219 85.7822C79.1863 85.5371 79.0393 85.3736 78.8106 85.2756C78.4348 85.1285 78.1571 85.1775 77.912 85.488C77.7977 85.6351 77.6997 85.8149 77.5853 85.9946C77.4873 85.7659 77.4219 85.5534 77.2912 85.3736C77.1115 85.0958 76.8175 84.9978 76.507 85.0631C76.262 85.1122 76.115 85.2592 76.0496 85.5044C75.9679 85.8312 76.1476 86.0273 76.3764 86.2234C76.5561 86.3705 76.8338 86.3705 77.0298 86.6157C76.7031 86.6483 76.4254 86.681 76.1803 86.8118C75.9516 86.9425 75.8209 87.1386 75.8536 87.4164C75.8699 87.6616 76.0169 87.825 76.2457 87.923C76.5724 88.0701 76.8665 88.0211 77.1115 87.7433C77.2422 87.5962 77.3402 87.4001 77.5036 87.1713C77.5853 87.4655 77.6343 87.7269 77.7977 87.9394C77.9937 88.2009 78.2715 88.2499 78.5492 88.2009C78.8106 88.1518 78.9903 87.9884 79.023 87.7106C79.072 87.4164 78.925 87.204 78.6799 87.0569C78.4512 86.9262 78.2061 86.8118 77.9284 86.6647C78.2551 86.5176 78.5982 86.5339 78.8596 86.3705C79.1047 86.2398 79.2517 86.06 79.219 85.7822Z" fill="#612F32"/>
<path d="M69.8088 90.9464C69.4984 90.7666 69.3024 90.7993 68.9919 91.0608C68.8449 91.1752 68.7306 91.3059 68.5672 91.453C68.5182 91.2078 68.5018 90.9954 68.4365 90.783C68.3548 90.4888 68.0607 90.2927 67.7667 90.2763C67.4889 90.26 67.3092 90.4071 67.1785 90.6359C67.0151 90.9464 67.1785 91.1752 67.3746 91.3876C67.5216 91.551 67.685 91.6818 67.881 91.8452C67.685 91.8452 67.5543 91.8452 67.4236 91.8452C67.2929 91.8452 67.1622 91.8452 67.0315 91.8779C66.7374 91.9596 66.525 92.2047 66.525 92.4826C66.525 92.7604 66.7211 92.9892 67.0315 93.0872C67.2765 93.1689 67.5216 93.1362 67.7176 92.9565C67.8647 92.8421 67.9954 92.7113 68.1751 92.5316C68.2241 92.8421 68.1751 93.0872 68.2731 93.316C68.4038 93.5938 68.6652 93.7736 68.9756 93.7736C69.2207 93.7736 69.4167 93.6592 69.5147 93.4304C69.6454 93.1362 69.5474 92.8748 69.3187 92.6787C69.1063 92.4989 68.8939 92.3191 68.6489 92.0903C68.9756 92.0903 69.2207 92.172 69.4657 92.123C69.7761 92.0576 70.0539 91.9759 70.1355 91.6164C70.2172 91.3549 70.1029 91.1098 69.8088 90.9464Z" fill="#612F32"/>
<path d="M73.6644 88.495C73.501 88.6421 73.354 88.8055 73.2069 88.9853C73.0599 88.7892 73.1089 88.544 72.9946 88.3479C72.8312 88.0538 72.5698 87.923 72.2594 87.923C71.998 87.923 71.851 88.1028 71.7529 88.3153C71.6222 88.5441 71.7203 88.8219 71.9817 89.067C72.1614 89.2304 72.3574 89.3448 72.6351 89.5573C72.243 89.5246 71.9653 89.5246 71.7039 89.6226C71.4425 89.7044 71.2955 89.8841 71.2628 90.1619C71.2301 90.4398 71.3772 90.6195 71.6059 90.7503C71.9 90.9137 72.2104 90.8647 72.4881 90.6359C72.6351 90.5051 72.7168 90.2927 72.9292 90.2273C72.9455 90.4888 72.9619 90.7012 73.0599 90.9137C73.2069 91.2242 73.4683 91.3549 73.7787 91.3386C74.0401 91.3386 74.2362 91.2078 74.3342 90.9464C74.4486 90.6195 74.2852 90.4071 74.0565 90.211C73.8604 90.0475 73.648 89.9168 73.3867 89.7207C73.7624 89.6717 74.0565 89.688 74.3505 89.59C74.759 89.4429 74.9223 89.018 74.6936 88.6911C74.4812 88.3316 73.9748 88.2335 73.6644 88.495Z" fill="#612F32"/>
<path d="M4.08433 55.7124C4.03532 55.9412 3.98631 56.1209 3.96997 56.3007C3.92096 56.6439 4.08433 56.9381 4.39474 57.0851C4.63979 57.2159 4.86852 57.1668 5.06456 56.9871C5.29328 56.7746 5.32596 56.5295 5.14625 56.17C5.03189 55.9412 4.90119 55.7451 4.75415 55.4836C4.91753 55.5326 5.04822 55.5653 5.17892 55.598C5.30962 55.6307 5.42398 55.6797 5.55468 55.696C5.76706 55.7124 5.99578 55.696 6.15915 55.4999C6.3552 55.2711 6.38787 55.0424 6.24084 54.7809C6.04479 54.4704 5.75072 54.3396 5.42398 54.4377C5.22793 54.5031 5.06456 54.6011 4.83584 54.6992C4.88485 54.5031 4.93386 54.3396 4.96654 54.1762C5.01555 53.8494 4.85218 53.5715 4.54177 53.3918C4.29671 53.261 4.06799 53.2937 3.87195 53.4735C3.62689 53.7023 3.62689 53.9638 3.75759 54.2416C3.87195 54.4867 4.00264 54.7155 4.14968 55.026C3.90462 54.9443 3.75759 54.8953 3.59422 54.8299C3.43084 54.7645 3.26747 54.7482 3.1041 54.7482C2.63032 54.7809 2.38526 55.2221 2.59765 55.6307C2.79369 55.9739 3.13677 56.1209 3.51253 55.9739C3.69224 55.9248 3.87195 55.8268 4.08433 55.7124Z" fill="#612F32"/>
<path d="M4.99921 61.6773C5.01555 62.0042 5.22793 62.2003 5.48933 62.2983C5.73439 62.3964 5.96311 62.2983 6.14282 62.0859C6.33886 61.8407 6.30619 61.5956 6.15915 61.3505C6.01212 61.1217 5.84875 60.8929 5.6527 60.6314C5.84875 60.6804 5.97944 60.7131 6.12648 60.7295C6.28985 60.7458 6.46956 60.7622 6.63293 60.7458C7.0577 60.7131 7.30276 60.3373 7.15572 59.9614C7.02502 59.6019 6.58392 59.4057 6.24084 59.5528C6.06113 59.6345 5.89776 59.7489 5.71805 59.847C5.66904 59.6182 5.76706 59.4384 5.75072 59.2587C5.73439 58.9645 5.522 58.6867 5.22793 58.5886C4.99921 58.5233 4.78683 58.5559 4.60712 58.7357C4.41107 58.9482 4.39474 59.1769 4.55811 59.5201C4.67247 59.7816 4.88485 59.9941 5.06456 60.2392C4.86851 60.2882 4.73782 60.1738 4.59078 60.1575C4.44375 60.1411 4.29671 60.0921 4.14968 60.0758C3.8066 60.0594 3.52887 60.2392 3.46352 60.5334C3.38183 60.8275 3.57788 61.1871 3.88828 61.3014C4.117 61.3995 4.32939 61.3668 4.52543 61.2361C4.68881 61.1544 4.80317 60.9909 4.98288 60.9746C4.99921 61.2361 4.98287 61.4649 4.99921 61.6773Z" fill="#612F32"/>
<path d="M7.74386 67.0866C7.92357 66.8742 7.90723 66.5964 7.71118 66.3185C7.56415 66.1061 7.38444 65.9263 7.22107 65.7139C7.4988 65.7139 7.74386 65.7139 7.97258 65.7139C8.332 65.6975 8.54438 65.5504 8.62607 65.289C8.70775 65.0275 8.60973 64.766 8.38101 64.6026C8.13595 64.4228 7.87456 64.4065 7.59682 64.5863C7.43345 64.7006 7.27008 64.8314 7.09037 64.9785C7.0577 64.7006 7.18839 64.4555 7.10671 64.194C7.00869 63.9162 6.82898 63.7528 6.55125 63.6874C6.30619 63.6221 6.11014 63.7201 5.96311 63.8999C5.7834 64.145 5.83241 64.3901 5.96311 64.6353C6.0938 64.8804 6.32252 65.0602 6.55125 65.3543C6.12648 65.3707 5.83241 65.2073 5.50567 65.289C5.12991 65.3707 4.90119 65.6812 4.98288 66.008C5.0809 66.4002 5.45665 66.629 5.83241 66.5146C6.01212 66.4656 6.11014 66.3349 6.25718 66.2532C6.37154 66.1878 6.42055 66.008 6.60026 66.0244C6.58392 66.1551 6.56758 66.2695 6.56758 66.3839C6.56758 66.4983 6.56758 66.6127 6.58392 66.7271C6.63293 67.0539 6.86165 67.2827 7.15572 67.3318C7.40078 67.3808 7.58049 67.2827 7.74386 67.0866Z" fill="#612F32"/>
<path d="M10.1291 71.8586C10.2598 71.5971 10.1454 71.3846 9.96571 71.1885C9.76967 70.9924 9.55728 70.829 9.27955 70.5839C9.58996 70.5675 9.81868 70.5675 10.0311 70.5348C10.3251 70.4858 10.5702 70.3551 10.6355 70.0282C10.7009 69.7668 10.6029 69.5543 10.3905 69.3909C10.1781 69.2275 9.81868 69.2275 9.6063 69.4072C9.42659 69.5543 9.26322 69.7341 9.08351 69.9138C9.06717 69.7014 9.06717 69.538 9.03449 69.3745C8.96915 68.9987 8.74043 68.7862 8.41368 68.7535C8.15229 68.7208 7.9399 68.8352 7.80921 69.064C7.66217 69.3255 7.71118 69.5706 8.00525 69.8648C8.18496 70.0446 8.36467 70.208 8.59339 70.4041C8.26665 70.4204 8.00525 70.4204 7.74386 70.4695C7.44979 70.5185 7.22107 70.6656 7.15572 70.9924C7.10671 71.2376 7.25374 71.5154 7.51514 71.6461C7.77653 71.7769 8.03793 71.7442 8.28298 71.5154C8.46269 71.352 8.60973 71.1722 8.80577 70.9597C8.83845 71.2866 8.78944 71.5644 8.92013 71.8259C9.06717 72.071 9.26322 72.2508 9.55728 72.2344C9.81868 72.2344 10.0147 72.1037 10.1291 71.8586Z" fill="#612F32"/>
<path d="M13.2495 74.2772C13.2168 73.9994 12.9718 73.7706 12.6777 73.7379C12.4326 73.7052 12.2366 73.8033 12.0895 73.9831C11.9589 74.1302 11.8445 74.2936 11.6975 74.506C11.6321 74.2445 11.6648 74.0158 11.5831 73.8033C11.4851 73.5255 11.3054 73.3621 11.0113 73.3457C10.7172 73.313 10.4722 73.4601 10.3741 73.7052C10.2598 73.9831 10.3415 74.2282 10.5539 74.408C10.7499 74.5877 10.9786 74.7512 11.24 74.9636C11.0276 74.9963 10.8969 75.029 10.7499 75.0453C10.5865 75.0617 10.4232 75.078 10.2598 75.1597C9.88403 75.3231 9.75333 75.6663 9.93304 75.9768C10.1127 76.3037 10.5375 76.4181 10.8479 76.2056C11.0113 76.1076 11.1257 75.9605 11.24 75.8134C11.3054 75.7154 11.3054 75.5519 11.5014 75.5683C11.5504 75.8297 11.5341 76.0912 11.6484 76.32C11.7791 76.5815 11.9915 76.7286 12.2693 76.7122C12.5307 76.6959 12.7267 76.5488 12.8247 76.3037C12.9554 75.9932 12.7757 75.7644 12.5797 75.5519C12.4 75.3722 12.1222 75.3068 11.9425 75.0617C12.2856 75.078 12.5633 75.029 12.8247 74.9309C13.1351 74.8165 13.2822 74.5551 13.2495 74.2772Z" fill="#612F32"/>
<path d="M32.6744 91.8942C32.4457 91.8779 32.217 91.8779 31.9066 91.8615C32.2006 91.6001 32.462 91.4366 32.5927 91.1588C32.7561 90.832 32.609 90.4398 32.2986 90.2927C31.9719 90.1456 31.5635 90.3417 31.4654 90.7176C31.4328 90.8647 31.4164 91.0117 31.4001 91.1588C31.3838 91.2732 31.4491 91.404 31.3347 91.5184C31.1877 91.3549 31.0734 91.1915 30.959 91.0608C30.7139 90.8156 30.4689 90.7503 30.1911 90.8647C29.9461 90.9791 29.7827 91.2569 29.8317 91.502C29.8971 91.7962 30.0604 92.0086 30.3872 92.0577C30.6322 92.1067 30.861 92.123 31.2041 92.172C30.9263 92.3845 30.7139 92.5479 30.5669 92.7604C30.4035 93.0055 30.3872 93.2506 30.5342 93.4958C30.6486 93.7082 30.861 93.8226 31.106 93.7899C31.4001 93.7573 31.5635 93.5611 31.6452 93.2833C31.7432 92.9728 31.6778 92.6787 31.6778 92.3191C31.9392 92.5806 32.0863 92.8748 32.364 93.0382C32.6254 93.2016 32.8704 93.2016 33.0992 93.0218C33.3115 92.8421 33.3932 92.4989 33.2789 92.2538C33.1482 92.0413 32.9521 91.9269 32.6744 91.8942Z" fill="#623032"/>
<path d="M15.9451 77.9542C15.7164 77.8398 15.4387 77.9052 15.2263 78.1177C15.0302 78.3138 14.9649 78.5916 14.7688 78.8857C14.7035 78.5589 14.6708 78.2974 14.5238 78.085C14.3277 77.7908 14.05 77.6928 13.7559 77.8072C13.2985 77.9869 13.2168 78.4935 13.5762 78.8531C13.805 79.0655 14.1154 79.1636 14.4748 79.3924C14.0663 79.4577 13.7723 79.5231 13.5272 79.6702C13.2985 79.8009 13.1515 79.997 13.1678 80.2585C13.1841 80.52 13.3475 80.7161 13.5926 80.7978C13.8376 80.8795 14.0663 80.8141 14.2624 80.618C14.3931 80.5036 14.4584 80.3402 14.5401 80.2095C14.6055 80.0951 14.5728 79.899 14.7852 79.8826C14.8342 80.1278 14.8832 80.3566 14.9976 80.5853C15.1609 80.8795 15.3897 80.9939 15.6837 80.9449C15.9451 80.8958 16.1248 80.7324 16.1902 80.4709C16.2555 80.1768 16.1248 79.9643 15.8961 79.8009C15.6674 79.6375 15.3897 79.5721 15.1119 79.4087C15.2753 79.3597 15.3897 79.327 15.504 79.278C15.6347 79.2289 15.7491 79.1963 15.8798 79.1472C16.0922 79.0492 16.2719 78.9184 16.3045 78.6733C16.3536 78.3628 16.2065 78.085 15.9451 77.9542Z" fill="#612F32"/>
<path d="M27.8713 89.59C27.6752 89.5736 27.4792 89.5573 27.2178 89.5246C27.4628 89.3121 27.6752 89.1487 27.8549 88.969C28.0183 88.8055 28.1327 88.6094 28.051 88.3643C27.9693 88.1192 27.8223 87.9394 27.5609 87.8904C27.2831 87.8413 27.0544 87.9721 26.9237 88.2335C26.7767 88.5114 26.793 88.8219 26.7603 89.1814C26.5806 88.9199 26.4499 88.7238 26.3029 88.5604C26.0742 88.2989 25.7964 88.2172 25.5514 88.3479C25.3227 88.4623 25.1756 88.6584 25.1756 88.9363C25.1756 89.2304 25.339 89.4429 25.6657 89.5409C25.9108 89.6226 26.1722 89.639 26.4826 89.7044C26.1885 89.9331 25.9108 90.0639 25.7311 90.309C25.5024 90.6195 25.5841 91.0608 25.8945 91.2405C26.1885 91.4203 26.5643 91.3059 26.744 90.9627C26.8584 90.7666 26.8747 90.5378 26.891 90.309C26.891 90.1946 26.8257 90.0639 26.9727 89.9495C27.0707 90.0966 27.1361 90.2273 27.2178 90.3417C27.3158 90.4724 27.4302 90.6032 27.5609 90.7012C27.8223 90.8973 28.1653 90.8647 28.3614 90.6195C28.5738 90.3907 28.5901 90.0802 28.4267 89.8514C28.296 89.7207 28.1 89.6063 27.8713 89.59Z" fill="#612F32"/>
<path d="M19.474 83.4943C19.2616 83.3799 19.0165 83.3145 18.7878 83.2165C18.9022 83.053 19.0819 83.0694 19.1962 83.004C19.3269 82.9223 19.474 82.8733 19.5883 82.7752C19.9641 82.4811 19.9477 82.0398 19.572 81.7783C19.2942 81.5822 18.9185 81.6639 18.6898 81.9744C18.5264 82.2032 18.4937 82.4811 18.363 82.7425C18.265 82.4811 18.1833 82.2359 18.0526 82.0071C17.9219 81.762 17.6932 81.6313 17.3828 81.6966C17.1214 81.7457 16.958 81.9254 16.8763 82.1706C16.7947 82.4647 16.958 82.6772 17.1867 82.8406C17.4481 83.0367 17.7585 83.1021 18.0853 83.2165C17.8892 83.2982 17.6932 83.3635 17.4972 83.4453C17.3011 83.5106 17.1214 83.6087 16.9907 83.7721C16.8437 83.9682 16.7783 84.1643 16.909 84.3931C17.0397 84.6382 17.2358 84.7526 17.4972 84.7363C17.7749 84.72 17.9546 84.5729 18.069 84.3441C18.1833 84.1316 18.265 83.9028 18.3794 83.625C18.4937 83.8865 18.5591 84.0989 18.6571 84.2951C18.7878 84.5565 19.0002 84.7363 19.3269 84.72C19.5883 84.6873 19.8334 84.4585 19.8824 84.2297C19.9477 83.9192 19.8334 83.674 19.474 83.4943Z" fill="#612F32"/>
<path d="M23.7216 86.8935C23.5583 86.7627 23.3622 86.7137 23.1498 86.6647C23.0191 86.632 22.8721 86.6647 22.7577 86.5176C22.9701 86.4032 23.1498 86.3215 23.3295 86.2071C23.6726 85.9783 23.8033 85.7005 23.7216 85.4063C23.6399 85.1449 23.4439 85.0141 23.1825 84.9814C22.8884 84.9487 22.627 85.1449 22.4963 85.5207C22.431 85.7005 22.3983 85.9129 22.3166 86.1581C22.2513 86.011 22.2023 85.8966 22.1533 85.7985C22.1042 85.6842 22.0389 85.5534 21.9735 85.4554C21.7938 85.1775 21.5324 85.0795 21.2547 85.1612C20.9933 85.2429 20.8299 85.4227 20.7973 85.6842C20.7646 85.9783 20.9116 86.1744 21.1567 86.3215C21.4017 86.4686 21.6795 86.5013 22.0716 86.5993C21.7285 86.7954 21.4671 86.8608 21.2547 87.0242C21.0097 87.2203 20.8953 87.4491 20.977 87.7596C21.0587 88.0211 21.2384 88.1682 21.4998 88.1845C21.8265 88.2009 22.0389 88.0211 22.1533 87.7433C22.2513 87.4981 22.3166 87.253 22.3983 86.9752C22.5944 87.253 22.6597 87.5799 22.8884 87.8086C23.1662 88.0538 23.5419 88.0374 23.787 87.7596C24.0484 87.4981 24.0157 87.1223 23.7216 86.8935Z" fill="#612F32"/>
</svg>
